<?xml version="1.0" encoding="UTF-8" standalone="no"?>
<svg
   xmlns:dc="http://purl.org/dc/elements/1.1/"
   xmlns:cc="http://creativecommons.org/ns#"
   xmlns:rdf="http://www.w3.org/1999/02/22-rdf-syntax-ns#"
   xmlns:svg="http://www.w3.org/2000/svg"
   xmlns="http://www.w3.org/2000/svg"
   xmlns:sodipodi="http://sodipodi.sourceforge.net/DTD/sodipodi-0.dtd"
   xmlns:inkscape="http://www.inkscape.org/namespaces/inkscape"
   version="1.1"
   id="svg2"
   xml:space="preserve"
   width="2933.3333"
   height="2666.6667"
   viewBox="0 0 2933.3333 2666.6667"
   sodipodi:docname="vecteezy_group-of-bitcoins-creative-financial-concept-of-blockchain_3565481.eps"><metadata
     id="metadata8"><rdf:RDF><cc:Work
         rdf:about=""><dc:format>image/svg+xml</dc:format><dc:type
           rdf:resource="http://purl.org/dc/dcmitype/StillImage" /></cc:Work></rdf:RDF></metadata><defs
     id="defs6" /><sodipodi:namedview
     pagecolor="#ffffff"
     bordercolor="#666666"
     borderopacity="1"
     objecttolerance="10"
     gridtolerance="10"
     guidetolerance="10"
     inkscape:pageopacity="0"
     inkscape:pageshadow="2"
     inkscape:window-width="640"
     inkscape:window-height="480"
     id="namedview4" /><g
     id="g10"
     inkscape:groupmode="layer"
     inkscape:label="ink_ext_XXXXXX"
     transform="matrix(1.3333333,0,0,-1.3333333,0,2666.6667)"><g
       id="g12"
       transform="scale(0.1)"><path
         d="M 22000,0 H 0 V 20000 H 22000 V 0"
         style="fill:#ffffff;fill-opacity:1;fill-rule:nonzero;stroke:none"
         id="path14" /><path
         d="m 19403.3,8784.1 c -58.1,159.8 -129.4,313.2 -213.4,460 -1.3,2.2 -2.7,4.5 -4,6.7 -1.2,2.3 -2.6,4.5 -3.8,6.8 -1.3,2.3 -2.7,4.5 -4,6.8 -1.3,2.3 -2.6,4.5 -3.9,6.8 -1.3,2.2 -2.6,4.5 -3.9,6.7 -1.3,2.3 -2.6,4.5 -3.9,6.8 -1.3,2.3 -2.6,4.5 -3.9,6.8 -1.3,2.2 -2.6,4.5 -3.9,6.7 -1.3,2.3 -2.6,4.5 -3.9,6.8 -1.3,2.3 -2.6,4.5 -3.9,6.8 -1.3,2.2 -2.6,4.5 -3.9,6.7 -1.3,2.3 -2.6,4.5 -3.9,6.8 -1.3,2.3 -2.6,4.5 -3.9,6.8 -1.3,2.2 -2.6,4.5 -3.9,6.7 -1.3,2.3 -2.7,4.5 -3.9,6.8 -1.3,2.3 -2.7,4.5 -4,6.8 -1.2,2.2 -2.6,4.5 -3.9,6.8 -1.3,2.2 -2.6,4.5 -3.9,6.7 -1.3,2.3 -2.6,4.5 -3.9,6.8 -1.3,2.3 -2.6,4.5 -3.9,6.8 -1.3,2.2 -2.6,4.5 -3.9,6.7 -1.3,2.3 -2.6,4.5 -3.9,6.8 -1.3,2.3 -2.6,4.5 -3.9,6.8 -1.3,2.2 -2.6,4.5 -3.9,6.7 -1.3,2.3 -2.6,4.5 -3.9,6.8 -1.3,2.3 -2.6,4.5 -3.9,6.8 -1.3,2.2 -2.6,4.5 -3.9,6.7 -1.3,2.3 -2.6,4.5 -3.9,6.8 -1.3,2.3 -2.6,4.5 -3.9,6.8 -1.3,2.2 -2.7,4.5 -4,6.7 -1.2,2.3 -2.6,4.6 -3.9,6.8 -1.2,2.3 -2.6,4.5 -3.9,6.8 -1.3,2.2 -2.6,4.5 -3.9,6.8 -1.3,2.2 -2.6,4.5 -3.9,6.7 -1.3,2.3 -2.6,4.5 -3.9,6.8 -1.3,2.3 -2.6,4.5 -3.9,6.8 -1.3,2.2 -2.6,4.5 -3.9,6.7 -1.3,2.3 -2.6,4.5 -3.9,6.8 -1.3,2.3 -2.6,4.5 -3.9,6.8 -1.3,2.2 -2.6,4.5 -3.9,6.7 -1.3,2.3 -2.6,4.5 -3.9,6.8 -1.3,2.3 -2.6,4.5 -3.9,6.8 -1.3,2.2 -2.6,4.5 -3.9,6.7 -1.3,2.3 -2.7,4.5 -3.9,6.8 -1.3,2.3 -2.7,4.5 -4,6.8 -1.2,2.2 -2.6,4.5 -3.8,6.7 -1.3,2.3 -2.7,4.5 -4,6.8 -1.3,2.3 -2.6,4.5 -3.9,6.8 -1.3,2.2 -2.6,4.5 -3.9,6.8 -1.3,2.2 -2.6,4.5 -3.9,6.7 -1.3,2.3 -2.6,4.5 -3.9,6.8 -1.3,2.3 -2.6,4.5 -3.9,6.8 -1.3,2.2 -2.6,4.5 -3.9,6.7 -1.3,2.3 -2.6,4.5 -3.9,6.8 -1.3,2.3 -2.6,4.5 -3.9,6.8 -1.3,2.2 -2.6,4.5 -3.9,6.7 -1.3,2.3 -2.6,4.5 -3.9,6.8 -1.3,2.3 -2.6,4.5 -3.9,6.8 -1.3,2.2 -2.7,4.5 -3.9,6.7 -1.3,2.3 -2.7,4.5 -4,6.8 -1.2,2.3 -2.6,4.5 -3.9,6.8 -1.3,2.2 -2.6,4.5 -3.9,6.7 -1.3,2.3 -2.6,4.6 -3.9,6.8 -1.3,2.3 -2.6,4.5 -3.9,6.8 -1.3,2.2 -2.6,4.5 -3.9,6.8 -1.3,2.2 -2.6,4.5 -3.9,6.7 -1.3,2.3 -2.6,4.5 -3.9,6.8 -1.3,2.2 -2.6,4.5 -3.9,6.7 -1.3,2.3 -2.6,4.6 -3.9,6.8 -1.3,2.3 -2.6,4.5 -3.9,6.8 -1.3,2.3 -2.6,4.5 -3.9,6.8 -1.3,2.2 -2.6,4.5 -3.9,6.7 -1.3,2.3 -2.6,4.5 -3.9,6.8 -1.3,2.3 -2.7,4.5 -4,6.8 -1.2,2.2 -2.6,4.5 -3.9,6.7 -1.3,2.3 -2.6,4.5 -3.9,6.8 -1.3,2.3 -2.6,4.5 -3.9,6.8 -1.3,2.2 -2.6,4.5 -3.9,6.7 -1.3,2.3 -2.6,4.6 -3.9,6.8 -1.3,2.3 -2.6,4.5 -3.9,6.8 -1.3,2.2 -2.6,4.5 -3.9,6.8 -1.3,2.2 -2.6,4.5 -3.9,6.7 -1.3,2.3 -2.6,4.5 -3.9,6.8 -1.3,2.2 -2.6,4.5 -3.9,6.8 -1.3,2.2 -2.6,4.5 -3.9,6.7 -1.3,2.3 -2.6,4.5 -3.9,6.8 -1.3,2.3 -2.6,4.5 -3.9,6.8 -1.3,2.2 -2.7,4.5 -4,6.7 -1.2,2.3 -2.6,4.5 -3.9,6.8 -1.2,2.3 -2.6,4.5 -3.8,6.8 -1.3,2.2 -2.7,4.5 -4,6.7 -1.3,2.3 -2.6,4.6 -3.9,6.8 -1.3,2.3 -2.6,4.5 -3.9,6.8 -1.3,2.2 -2.6,4.5 -3.9,6.7 -1.3,2.3 -2.6,4.6 -3.9,6.8 -1.3,2.3 -2.6,4.5 -3.9,6.8 -1.3,2.2 -2.6,4.5 -3.9,6.7 -1.3,2.3 -2.6,4.6 -3.9,6.8 -1.3,2.3 -2.6,4.5 -3.9,6.8 -1.3,2.2 -2.6,4.5 -3.9,6.8 -138.5,243.1 -312.1,467.7 -519.3,671.1 -884.1,867.9 -2284,1261.6 -3840.9,1080 -19.8,-2.3 -39.9,-4.8 -59.7,-7.3 -1391.5,-174.9 -2743.2,-781.6 -3805.9,-1708.4 -516.8,-450.8 -937.06,-952.8 -1249.17,-1492.3 -323.22,-558.6 -515.67,-1133.1 -572,-1707.6 -48.58,-495.3 7.11,-967.6 165.51,-1403.7 58.02,-159.8 129.31,-313.2 213.4,-460 1.29,-2.2 2.61,-4.5 3.91,-6.7 1.28,-2.3 2.61,-4.5 3.91,-6.8 1.28,-2.3 2.61,-4.5 3.9,-6.8 1.29,-2.2 2.61,-4.5 3.91,-6.7 1.29,-2.3 2.61,-4.5 3.9,-6.8 1.29,-2.3 2.62,-4.5 3.91,-6.8 1.29,-2.2 2.61,-4.5 3.91,-6.7 1.29,-2.3 2.61,-4.6 3.91,-6.8 1.29,-2.3 2.61,-4.5 3.9,-6.8 1.29,-2.2 2.61,-4.5 3.91,-6.8 1.29,-2.2 2.61,-4.5 3.91,-6.7 1.29,-2.3 2.61,-4.5 3.9,-6.8 1.29,-2.3 2.61,-4.5 3.91,-6.8 1.29,-2.2 2.61,-4.5 3.9,-6.7 1.29,-2.3 2.62,-4.5 3.91,-6.8 1.29,-2.2 2.61,-4.5 3.9,-6.7 1.29,-2.3 2.61,-4.6 3.91,-6.8 1.29,-2.3 2.62,-4.5 3.91,-6.8 1.29,-2.3 2.61,-4.5 3.91,-6.8 1.29,-2.2 2.61,-4.5 3.91,-6.7 1.29,-2.3 2.61,-4.5 3.9,-6.8 1.29,-2.3 2.62,-4.5 3.91,-6.8 1.29,-2.2 2.61,-4.5 3.91,-6.7 1.29,-2.3 2.61,-4.6 3.9,-6.8 1.3,-2.3 2.62,-4.5 3.91,-6.8 1.29,-2.3 2.62,-4.5 3.91,-6.7 1.28,-2.3 2.61,-4.6 3.91,-6.8 1.29,-2.3 2.61,-4.5 3.9,-6.8 1.29,-2.2 2.61,-4.5 3.91,-6.8 1.29,-2.2 2.61,-4.5 3.9,-6.7 1.29,-2.3 2.62,-4.5 3.91,-6.8 1.29,-2.3 2.61,-4.5 3.91,-6.8 1.29,-2.2 2.61,-4.5 3.9,-6.7 1.29,-2.3 2.62,-4.5 3.91,-6.8 1.29,-2.3 2.61,-4.5 3.91,-6.8 1.29,-2.2 2.61,-4.5 3.91,-6.7 1.29,-2.3 2.61,-4.5 3.9,-6.8 1.29,-2.3 2.61,-4.5 3.9,-6.8 1.29,-2.2 2.62,-4.5 3.92,-6.7 1.28,-2.3 2.61,-4.6 3.9,-6.8 1.29,-2.3 2.61,-4.5 3.91,-6.8 1.29,-2.2 2.62,-4.5 3.91,-6.8 1.29,-2.2 2.61,-4.5 3.91,-6.7 1.28,-2.3 2.6,-4.5 3.9,-6.8 1.29,-2.2 2.61,-4.5 3.91,-6.8 1.29,-2.2 2.61,-4.5 3.9,-6.7 1.29,-2.3 2.62,-4.5 3.91,-6.8 1.29,-2.3 2.61,-4.5 3.91,-6.8 1.29,-2.2 2.61,-4.5 3.9,-6.7 1.29,-2.3 2.62,-4.5 3.91,-6.8 1.29,-2.3 2.61,-4.5 3.91,-6.8 1.28,-2.2 2.61,-4.5 3.91,-6.7 1.29,-2.3 2.61,-4.5 3.9,-6.8 1.29,-2.3 2.62,-4.5 3.91,-6.8 1.29,-2.2 2.61,-4.5 3.91,-6.7 1.28,-2.3 2.61,-4.6 3.9,-6.8 1.29,-2.3 2.61,-4.5 3.91,-6.8 1.29,-2.2 2.62,-4.5 3.91,-6.8 1.28,-2.2 2.6,-4.4 3.89,-6.7 1.29,-2.3 2.62,-4.5 3.92,-6.8 1.29,-2.2 2.61,-4.5 3.91,-6.8 1.29,-2.2 2.61,-4.5 3.9,-6.7 1.29,-2.3 2.62,-4.5 3.91,-6.8 1.29,-2.3 2.61,-4.5 3.91,-6.8 1.29,-2.2 2.61,-4.5 3.9,-6.7 1.29,-2.3 2.62,-4.5 3.91,-6.8 1.29,-2.3 2.61,-4.5 3.91,-6.8 1.28,-2.2 2.61,-4.5 3.91,-6.7 1.28,-2.3 2.6,-4.5 3.9,-6.8 1.29,-2.3 2.62,-4.5 3.91,-6.8 1.29,-2.2 2.61,-4.5 3.91,-6.7 1.28,-2.3 2.61,-4.6 3.9,-6.8 1.29,-2.3 2.61,-4.5 3.91,-6.8 1.29,-2.2 2.61,-4.5 3.9,-6.7 1.3,-2.3 2.62,-4.6 3.92,-6.8 1.28,-2.3 2.61,-4.5 3.9,-6.8 1.29,-2.2 2.61,-4.5 3.91,-6.8 1.29,-2.2 2.61,-4.5 3.9,-6.7 1.29,-2.3 2.62,-4.5 3.91,-6.8 1.29,-2.3 2.61,-4.5 3.91,-6.8 1.28,-2.2 2.6,-4.5 3.89,-6.7 1.29,-2.3 2.62,-4.5 3.92,-6.8 1.29,-2.3 2.61,-4.5 3.91,-6.8 1.28,-2.2 2.61,-4.5 3.9,-6.7 1.29,-2.3 2.61,-4.5 3.91,-6.8 1.29,-2.3 2.61,-4.5 3.91,-6.8 1.29,-2.2 2.61,-4.5 3.91,-6.7 1.28,-2.3 2.61,-4.6 3.9,-6.8 1.29,-2.3 2.61,-4.5 3.91,-6.8 1.29,-2.2 2.61,-4.5 3.9,-6.7 1.29,-2.3 2.62,-4.6 3.91,-6.8 1.29,-2.3 2.62,-4.5 3.91,-6.8 1.29,-2.3 2.61,-4.5 3.91,-6.8 1.28,-2.2 2.6,-4.5 3.9,-6.7 1.29,-2.3 2.61,-4.5 3.91,-6.8 1.29,-2.3 2.61,-4.5 3.91,-6.8 1.29,-2.2 2.61,-4.5 3.9,-6.7 1.29,-2.3 2.61,-4.5 3.91,-6.8 1.29,-2.3 2.61,-4.5 3.91,-6.8 1.28,-2.2 2.61,-4.5 3.9,-6.7 138.47,-243.1 312.1,-467.7 519.28,-671.1 884,-868 2284,-1261.7 3841,-1080.1 19.8,2.3 39.9,4.7 59.7,7.2 1391.5,174.9 2743.1,781.6 3805.8,1708.5 516.8,450.7 937.1,952.7 1249.2,1492.2 323.2,558.7 515.7,1133.2 572,1707.6 48.6,495.3 -7.1,967.6 -165.5,1403.8"
         style="fill:#fbb900;fill-opacity:1;fill-rule:nonzero;stroke:none"
         id="path16" /><path
         d="m 13901,10247.1 c -47,-5.4 -82.1,21.1 -78.2,59.6 3.7,38.7 45.4,75.1 92.8,81.1 0.4,0 0.8,0 1.1,0.1 46.9,5.5 81.9,-21.1 78.2,-59.5 -3.8,-38.8 -45.5,-75.1 -93,-81.1 -0.3,-0.1 -0.6,-0.1 -0.9,-0.2"
         style="fill:#fddb3a;fill-opacity:1;fill-rule:nonzero;stroke:none"
         id="path18" /><path
         d="m 11405.7,8168.9 c -104.2,-12.1 -181.8,46.8 -173.4,132.1 8.4,85.8 100.9,166.5 206.1,179.7 0.7,0.1 1.4,0.2 2.2,0.3 104,12.1 181.6,-46.8 173.2,-132.1 -8.4,-85.8 -100.9,-166.5 -206,-179.7 -0.7,-0.1 -1.4,-0.2 -2.1,-0.3"
         style="fill:#fddb3a;fill-opacity:1;fill-rule:nonzero;stroke:none"
         id="path20" /><path
         d="m 10801.4,7220.7 c -0.3,-0.1 -0.7,-0.1 -1.1,-0.2 -46.9,-5.4 -81.8,21.2 -78.1,59.5 3.9,38.8 45.5,75.1 93,81.1 0.3,0.1 0.6,0.1 0.9,0.1 46.9,5.5 82,-21 78.2,-59.5 -3.8,-38.8 -45.5,-75.1 -92.9,-81"
         style="fill:#fddb3a;fill-opacity:1;fill-rule:nonzero;stroke:none"
         id="path22" /><path
         d="m 17181.2,8161.2 c 0.3,0.1 0.6,0.1 0.9,0.1 46.9,5.5 82,-21 78.2,-59.5 -3.8,-38.7 -45.4,-75 -93,-81 -0.3,-0.1 -0.6,-0.1 -0.8,-0.1 -47,-5.5 -82,21 -78.2,59.5 3.8,38.7 45.4,75.1 92.9,81"
         style="fill:#fddb3a;fill-opacity:1;fill-rule:nonzero;stroke:none"
         id="path24" /><path
         d="m 15605.2,6449.4 c 84.1,146 134.7,300.4 150.3,458.8 8.1,82.2 -0.4,161.8 -25.2,236.5 -24.5,73.8 -62.8,142.7 -114.1,204.7 -51.1,61.9 -115.8,117.4 -192.5,165 -48.5,30.2 -102,57.4 -159.1,81 162.6,94 296.8,203.5 399.1,325.8 126.2,150.6 198.4,310.6 214.6,476 15.2,155.3 -6.2,298.3 -63.7,425 -57.3,126.4 -143.8,233.3 -257.2,317.4 -113.1,84.1 -251.7,145.4 -411.7,182.1 -155.8,35.8 -327.1,43.2 -509.3,21.9 -5.4,-0.6 -10.8,-1.2 -16.2,-1.9 l -55.8,-6.9 36,367.8 c 2.9,29.5 -23.9,49.8 -59.9,45.6 l -375.8,-47.2 c -36.4,-4.6 -68.4,-32.5 -71.2,-62.2 l -36,-366.7 -345.3,-42.7 35.9,366 c 2.9,29.5 -23.9,49.9 -59.9,45.7 l -375.9,-47.2 c -36.3,-4.6 -68.3,-32.5 -71.2,-62.2 l -35.7,-364.9 -841.7,-104 c -17.6,-2.2 -34.7,-9.8 -48.1,-21.6 -13.5,-11.7 -21.7,-26.2 -23.1,-40.5 l -41.1,-419.8 c -2.9,-29.4 23.9,-49.8 59.9,-45.6 l 610.7,76.8 -264.9,-2701.2 -526.7,-66.2 c -32.4,-4 -61.7,-26.4 -69.5,-53.1 l -123.8,-423.2 c -4.7,-15.9 -0.8,-31.1 10.5,-41.6 11.2,-10.4 28.4,-15 47.5,-12.8 l 842.7,105.9 -35.6,-363.1 c -2.9,-29.5 24,-49.8 60,-45.6 l 375.8,47.2 c 36.4,4.6 68.3,32.4 71.2,62.1 l 35.7,363.2 345.3,43.3 -35.6,-363.1 c -2.9,-29.5 23.9,-49.8 59.9,-45.7 l 375.9,47.3 c 36.3,4.6 68.3,32.4 71.2,62.1 l 35.6,363.2 82.2,10.3 c 188.5,23.7 370.8,76 541.8,155.5 170.6,79.1 324.3,178.8 457.3,296.3 132.9,117.4 242.8,250.8 326.7,396.5 M 17366.9,7629 c -26.8,76.1 -114.5,122.3 -224.2,109.5 -143.8,-18.1 -267.6,-126 -278.8,-241 -11.2,-114.1 92.6,-192.9 232,-176.7 114,14.4 214.5,84.5 257.4,170.1 l 1034.7,130 c -23.2,-109.9 -52.3,-219.3 -86.6,-327.7 L 17185.7,7153 c -22.5,-2.9 -44.7,-12.9 -61.9,-27.8 L 16716.6,6770 c -50.9,20 -112.1,27.8 -179.1,20 -202.8,-25.4 -377.2,-177.6 -393.1,-339.6 -15.8,-161.1 130.8,-272.1 327.3,-249.2 202.5,25.4 376.9,177.6 392.9,339.7 5.5,56 -8.8,106 -37.9,146.4 l 380.5,331.8 1045.7,131.5 c -514,-1415.8 -1942.2,-2661.3 -3648.5,-3182.1 l 44.2,450.9 380.5,331.8 c 50.8,-20.1 112.1,-27.9 179.1,-20.1 202.7,25.5 377.3,177.7 393.1,339.8 15.8,160.9 -130.6,272.1 -327.2,249.2 -202.6,-25.5 -377.2,-177.7 -393.1,-339.8 -5.4,-56.1 8.8,-106 37.9,-146.3 l -407.2,-355.3 c -17.3,-14.9 -27.9,-33.7 -29.7,-52 l -49.8,-508 c -131.1,-35.8 -263.7,-67.4 -397.4,-94.4 l 43.3,441.9 c 102.1,41 181.1,127.4 190.1,218.1 11.2,114.1 -92.7,192.9 -232.1,176.6 -143.6,-18 -267.4,-125.9 -278.7,-240.9 -8.9,-90.7 54.9,-159 151.4,-175.1 l -44.3,-452.5 c -86.3,-14.7 -172.8,-27.8 -259.9,-38.6 -16.8,-2.1 -33.7,-4.1 -50.4,-6.1 -69.9,-8.1 -139.3,-14.9 -208.2,-20.4 l 44.4,452.4 c 102.1,41.1 181.1,127.4 190,218.1 11.2,114.2 -92.7,192.9 -232,176.7 -143.7,-18 -267.4,-126 -278.7,-240.9 -8.9,-90.7 54.9,-159.1 151.4,-175.2 l -43.4,-441.8 c -131.7,-6.4 -261.3,-7.8 -388.5,-4.4 l 49.8,508 c 1.8,18.4 -5.4,34.8 -20,45.8 l -346.9,260.3 c 37.9,48.9 62.4,103.7 67.9,159.7 15.8,161.1 -130.8,272.2 -327.3,249.3 -202.5,-25.5 -377.1,-177.6 -392.9,-339.7 -15.8,-161 130.6,-272.1 327.1,-249.2 72.8,9.1 138.5,32.9 195.9,67.1 l 324.1,-243.2 -44.2,-450.9 C 10977.1,3818.8 9760.64,4732 9514.94,6052.3 l 1046.66,131.6 324.1,-243.3 c -37.8,-48.9 -62.3,-103.7 -67.8,-159.7 -15.8,-161.1 130.8,-272.1 327.3,-249.2 202.6,25.4 377,177.6 392.9,339.7 15.8,161 -130.7,272.1 -327.3,249.2 -72.7,-9.2 -138.4,-33.1 -195.8,-67.2 l -346.9,260.4 c -14.4,10.7 -34.6,15.3 -56.7,12.8 L 9493.59,6186.1 c -13.71,102.4 -21.64,207.1 -23.77,313.9 l 1035.78,130.1 c 26.7,-75.9 114.4,-122.2 224.2,-109.4 143.8,18.1 267.5,126 278.8,240.9 11.1,114.1 -92.7,193 -231.9,176.7 -114.2,-14.3 -214.6,-84.5 -257.6,-169.9 L 9470.54,6636.5 c 1.94,69.5 6.28,139.7 13.22,210.7 6.95,71 16.39,141.8 28.21,212.5 l 1048.63,131.8 c 26.9,-76 114.5,-122.2 224.3,-109.4 143.7,18.1 267.5,125.9 278.8,240.9 11.2,114.1 -92.7,192.9 -232,176.7 -114.1,-14.3 -214.6,-84.5 -257.5,-170 L 9538.43,7199.5 c 23.38,110 52.26,219.3 86.64,327.8 l 1116.73,140.3 c 22.4,2.8 44.8,12.9 61.9,27.8 l 407.2,355.1 c 51.1,-20 112.4,-27.8 179.7,-20 202.3,25.5 376.7,177.6 392.6,339.7 15.8,161 -130.8,272.2 -327.2,249.2 -202.7,-25.4 -377.1,-177.6 -393.1,-339.7 -5.4,-56.1 8.8,-106 37.9,-146.5 l -380.5,-331.8 -1046.7,-131.6 c 514.1,1415.8 1942.2,2661.4 3648.5,3182.1 l -49,-501.6 -380.5,-331.8 c -51.1,20 -112.5,27.8 -179.7,20 -202.3,-25.4 -376.7,-177.6 -392.6,-339.7 -15.9,-161 130.7,-272.1 327.2,-249.2 202.7,25.5 377.1,177.6 393,339.7 5.5,56.1 -8.7,106.1 -37.8,146.5 l 407.3,355.2 c 17.1,14.9 27.7,33.6 29.6,51.9 l 54.7,558.8 c 131.1,35.9 263.6,67.4 397.4,94.5 l -48.3,-492.7 c -102.1,-41 -181.1,-127.3 -189.9,-218 -11.2,-114.2 92.5,-193 231.8,-176.7 143.9,18 267.6,125.9 278.9,240.9 8.9,90.6 -55,159.1 -151.5,175.1 l 49.4,503.1 c 86.2,14.9 172.8,27.9 259.8,38.7 16.8,2.2 33.7,4.2 50.4,6.2 69.9,8.1 139.4,14.9 208.2,20.4 l -49.4,-503.2 c -102.1,-41.1 -181.1,-127.4 -190,-218.2 -11.1,-114.1 92.7,-192.9 232,-176.6 143.8,18 267.6,125.9 278.8,240.8 8.9,90.8 -55,159.1 -151.5,175.2 l 48.4,492.7 c 131.7,6.3 261.3,7.7 388.5,4.4 l -54.8,-558.8 c -1.7,-18.3 5.5,-34.8 20.1,-45.7 l 346.8,-260.5 c -37.8,-48.8 -62.3,-103.7 -67.8,-159.7 -15.8,-160.9 130.6,-272.1 327.1,-249.2 202.8,25.4 377.2,177.7 393.2,339.7 15.7,161 -130.8,272.1 -327.4,249.2 -72.6,-9.1 -138.4,-33 -195.8,-67.2 l -324,243.3 49.2,501.6 c 1645.5,-99.4 2861.9,-1012.6 3107.7,-2332.8 l -1045.7,-131.5 -324.2,243.3 c 37.9,48.8 62.4,103.7 67.9,159.7 15.8,161 -130.6,272.1 -327,249.2 -202.8,-25.4 -377.2,-177.7 -393.2,-339.7 -15.7,-161 130.8,-272.1 327.4,-249.2 72.6,9.1 138.4,33 195.7,67.2 l 346.8,-260.4 c 14.4,-10.8 35,-15.4 57.2,-12.8 l 1116.5,140.3 c 13.6,-102.4 21.6,-207.1 23.6,-313.8 l -1034.7,-130.1 c -26.7,76 -114.4,122.2 -224.3,109.4 -143.7,-18 -267.5,-125.9 -278.7,-240.8 -11.2,-114.2 92.6,-193.1 232,-176.8 114.1,14.4 214.6,84.6 257.6,170.1 l 1047.5,131.5 c -1.9,-69.3 -6.3,-139.5 -13.2,-210.6 -7.1,-70.9 -16.5,-141.8 -28.3,-212.5 L 17366.9,7629"
         style="fill:#fddb3a;fill-opacity:1;fill-rule:nonzero;stroke:none"
         id="path26" /><path
         d="m 17260.3,8101.8 c 3.8,38.5 -31.3,65 -78.2,59.6 -0.3,-0.1 -0.6,-0.1 -0.9,-0.2 -47.5,-5.9 -89.1,-42.3 -93,-81 -3.7,-38.5 31.3,-65 78.3,-59.5 0.2,0 0.6,0.1 0.9,0.1 47.5,6 89.1,42.4 92.9,81 M 14005.9,4381.9 c 47.4,6 89.1,42.4 92.9,81 3.8,38.5 -31.3,65.1 -78.2,59.6 -0.3,0 -0.6,-0.1 -0.9,-0.1 -47.5,-5.9 -89.1,-42.4 -93,-81.1 -3.8,-38.5 31.4,-65 78.3,-59.5 0.3,0.1 0.5,0.1 0.9,0.1 m -3338.7,2336.8 c -3.8,-38.4 31.1,-65 78.1,-59.5 0.3,0 0.7,0.1 1,0.1 47.5,6 89.1,42.3 93,81.1 3.7,38.3 -31.2,64.9 -78.1,59.4 -0.4,0 -0.8,-0.1 -1.1,-0.1 -47.4,-5.9 -89.2,-42.3 -92.9,-81 m 2651,-2423.2 c 47.4,6 89.1,42.3 92.9,81 3.7,38.4 -31.2,65 -78.1,59.5 -0.4,0 -0.7,-0.1 -1.1,-0.1 -47.4,-5.9 -89.1,-42.3 -92.9,-81 -3.8,-38.4 31.1,-65 78.1,-59.5 0.3,0 0.7,0 1.1,0.1 m -2596,2984.5 c -3.7,-38.3 31.2,-64.9 78.2,-59.5 0.3,0.1 0.7,0.1 1,0.2 47.4,5.9 89,42.2 92.9,81 3.8,38.5 -31.3,65 -78.2,59.6 -0.3,-0.1 -0.7,-0.1 -0.9,-0.1 -47.5,-6 -89.2,-42.4 -93,-81.2 m 3881.3,3194.2 c -47.5,-6 -89.2,-42.3 -93,-81.1 -3.8,-38.4 31.3,-64.9 78.2,-59.5 0.3,0.1 0.6,0.1 0.9,0.1 47.5,6 89.1,42.4 93,81.1 3.7,38.5 -31.3,65 -78.2,59.6 -0.4,-0.1 -0.7,-0.1 -0.9,-0.2 m -687.9,-86.4 c -47.3,-6 -89.1,-42.3 -92.9,-81.1 -3.7,-38.5 31.3,-65 78.3,-59.5 0.3,0 0.6,0 0.9,0.1 47.5,6 89.1,42.3 93,81.1 3.7,38.4 -31.3,65 -78.2,59.5 -0.3,-0.1 -0.7,-0.1 -1.1,-0.1 m 3289.6,-2847.3 c 3.9,38.5 -31.2,65 -78.2,59.5 -0.3,0 -0.6,0 -0.9,-0.1 -47.4,-5.9 -89.1,-42.3 -92.9,-81 -3.8,-38.5 31.2,-65.1 78.3,-59.6 0.3,0.1 0.5,0.1 0.8,0.1 47.5,6 89.2,42.4 92.9,81.1 M 15050.4,5001.6 c -8.3,-85.2 69.2,-144.1 173.3,-132 0.8,0.1 1.4,0.2 2.2,0.3 105.2,13.2 197.6,93.8 206.1,179.7 8.3,85.3 -69.2,144.1 -173.3,132 -0.7,-0.1 -1.5,-0.2 -2.2,-0.3 -105.2,-13.2 -197.7,-93.8 -206.1,-179.7 m 1889.8,4016.8 c 8.4,85.3 -69.1,144.2 -173.2,132 -0.7,-0.1 -1.5,-0.2 -2.1,-0.3 -105.3,-13.2 -197.7,-93.8 -206.1,-179.6 -8.4,-85.3 69.2,-144.2 173.3,-132 0.8,0.1 1.5,0.1 2.3,0.2 105,13.2 197.5,93.9 205.8,179.7 M 12370.6,4664.8 c 8.4,85.3 -69.1,144.2 -173.2,132 -0.8,-0.1 -1.5,-0.1 -2.3,-0.2 -105.1,-13.2 -197.6,-93.9 -206,-179.8 -8.4,-85.3 69.2,-144.1 173.3,-131.9 0.7,0 1.4,0.1 2.2,0.3 105.2,13.2 197.6,93.7 206,179.6 m 4324.6,1854.8 c 8.4,85.2 -69.2,144.1 -173.3,132 -0.7,-0.1 -1.5,-0.2 -2.2,-0.3 -105.2,-13.2 -197.6,-93.8 -206,-179.7 -8.3,-85.3 69.2,-144.1 173.4,-132 0.7,0.1 1.4,0.2 2.1,0.3 105.2,13.2 197.6,93.8 206,179.7 m -1144.3,3585.2 c -8.4,-85.2 69.3,-144 173.4,-131.9 0.7,0.1 1.4,0.2 2.2,0.3 105.1,13.2 197.6,93.7 206,179.6 8.4,85.3 -69.3,144.2 -173.4,132.1 -0.7,-0.1 -1.4,-0.2 -2.1,-0.3 -105.3,-13.2 -197.7,-93.9 -206.1,-179.8 m -2679.7,-336.7 c 8.4,85.2 -69.2,144.1 -173.2,131.9 -0.8,0 -1.6,-0.1 -2.4,-0.3 -105.2,-13.1 -197.6,-93.8 -206,-179.6 -8.4,-85.3 69.2,-144.2 173.3,-132 0.8,0.1 1.5,0.1 2.2,0.2 105.2,13.2 197.6,93.9 206.1,179.8 m -1884,-3966 c -8.3,-85.3 69.2,-144.2 173.4,-132 0.7,0.1 1.4,0.2 2.1,0.3 105.2,13.2 197.7,93.9 206.1,179.7 8.4,85.3 -69.2,144.2 -173.4,132 -0.7,0 -1.4,-0.1 -2.2,-0.2 -105.2,-13.3 -197.5,-93.9 -206,-179.8 m 245.1,2498.9 c -8.4,-85.3 69.3,-144.2 173.4,-132 0.7,0 1.4,0.1 2.1,0.2 105.2,13.3 197.6,93.9 206,179.8 8.4,85.3 -69.2,144.1 -173.3,132 -0.7,-0.1 -1.4,-0.2 -2.2,-0.3 -105.2,-13.2 -197.6,-93.8 -206,-179.7 m 5907.4,-562.9 c 112.7,13.2 200.4,-33 227.2,-109.1 l 1047.6,131.7 c 11.7,70.6 21.2,141.5 28.3,212.6 7,71 11.3,141.2 13.2,210.6 l -1047.5,-131.7 c -43,-85.4 -143.5,-155.7 -254.6,-169.6 -142.3,-16.6 -246.2,62.2 -235,176.4 11.3,114.9 135,222.8 275.8,240.5 112.8,13.1 200.5,-33.1 227.2,-109.1 l 1034.7,130.1 c -2,106.8 -10,211.4 -23.6,313.9 l -1115.8,-140.3 c -22.9,-2.7 -43.4,1.9 -57.9,12.7 l -346.8,260.4 c -57.3,-34.2 -123.1,-58.1 -191.7,-66.7 -200.6,-23.4 -347.1,87.7 -331.4,248.7 16,162 190.4,314.3 389,339.2 200.5,23.4 347,-87.7 331.2,-248.7 -5.5,-56 -29.9,-110.9 -67.9,-159.7 l 324.2,-243.3 1045.7,131.5 c -245.8,1320.2 -1462.2,2233.4 -3107.7,2332.8 l -49.2,-501.6 324,-243.3 c 57.4,34.2 123.2,58.1 191.8,66.7 200.6,23.4 347.1,-87.7 331.4,-248.7 -16,-162 -190.4,-314.2 -389,-339.1 -200.7,-23.5 -347.1,87.7 -331.2,248.6 5.4,56 29.9,110.8 67.7,159.7 l -346.8,260.4 c -14.6,11 -21.8,27.5 -20.1,45.8 l 54.8,558.8 c -127.2,3.3 -256.8,1.9 -388.6,-4.4 l -48.3,-492.7 c 96.5,-16.1 160.4,-84.4 151.5,-175.1 -11.3,-115 -135,-222.9 -275.9,-240.6 -142.2,-16.6 -246.1,62.3 -234.8,176.4 8.8,90.7 87.8,177 189.9,218.1 l 49.4,503.2 c -68.9,-5.5 -138.2,-12.2 -208.2,-20.4 -16.8,-1.9 -33.6,-4 -50.4,-6.1 -87,-10.9 -173.6,-23.9 -259.8,-38.7 l -49.4,-503.2 c 96.5,-16.1 160.4,-84.5 151.5,-175.2 -11.3,-114.9 -135,-222.8 -275.9,-240.5 -142.3,-16.6 -246,62.2 -234.9,176.3 8.9,90.8 87.9,177.1 190,218.1 l 48.3,492.6 c -133.8,-27 -266.3,-58.5 -397.4,-94.4 l -54.7,-558.8 c -1.9,-18.3 -12.5,-37 -29.6,-51.9 l -407.3,-355.2 c 29.1,-40.4 43.3,-90.4 37.8,-146.5 -16,-162.1 -190.4,-314.2 -389,-339.2 -200.6,-23.4 -347,87.7 -331.2,248.7 15.9,162.1 190.3,314.3 388.9,339.3 70.9,8.2 132.2,0.5 183.3,-19.6 l 380.6,331.8 49,501.6 C 11615.8,10331.2 10187.7,9085.6 9673.63,7669.8 l 1046.67,131.6 380.5,331.8 c -29.1,40.5 -43.3,90.5 -37.9,146.5 16,162.1 190.4,314.3 389.1,339.3 200.4,23.3 347,-87.7 331.1,-248.8 -15.8,-162.1 -190.3,-314.2 -388.9,-339.2 -70.9,-8.3 -132.2,-0.5 -183.3,19.5 l -407.2,-355.1 c -17.1,-14.9 -39.5,-25 -61.9,-27.8 L 9625.08,7527.3 c -34.38,-108.5 -63.26,-217.8 -86.65,-327.7 l 1035.77,130.1 c 43,85.5 143.3,155.7 254.5,169.7 142.3,16.6 246.2,-62.3 234.9,-176.4 -11.2,-115 -135,-222.9 -275.8,-240.5 -112.7,-13.2 -200.3,33 -227.2,109 L 9511.98,7059.7 c -11.8,-70.7 -21.28,-141.5 -28.22,-212.5 -6.98,-71 -11.28,-141.2 -13.25,-210.7 l 1048.59,131.9 c 42.9,85.4 143.4,155.6 254.6,169.6 142.3,16.6 246,-62.3 235,-176.4 -11.4,-114.9 -135.1,-222.8 -275.9,-240.5 -112.8,-13.2 -200.5,33.1 -227.2,109 L 9469.86,6500 c 2.05,-106.8 9.96,-211.5 23.71,-313.9 l 1116.73,140.4 c 23.1,2.7 43.5,-1.9 57.8,-12.7 l 346.9,-260.4 c 57.3,34.1 123.1,58 191.8,66.7 200.6,23.4 347.1,-87.7 331.3,-248.7 -15.9,-162.1 -190.4,-314.3 -388.9,-339.3 -200.6,-23.4 -347.1,87.7 -331.3,248.8 5.5,56 30,110.9 67.8,159.7 l -324.1,243.3 -1046.63,-131.6 C 9760.6,4732 10977.1,3818.8 12622.7,3719.4 l 44.2,450.9 -324.1,243.3 c -57.4,-34.3 -123.1,-58.1 -191.7,-66.7 -200.7,-23.4 -347.1,87.7 -331.4,248.7 15.9,162.1 190.4,314.2 388.9,339.2 200.6,23.4 347.1,-87.7 331.4,-248.7 -5.5,-56.1 -30,-110.9 -67.9,-159.8 L 12819,4266 c 14.6,-11 21.8,-27.4 20,-45.8 l -49.7,-508 c 127.1,-3.4 256.7,-2 388.4,4.4 l 43.4,441.8 c -96.5,16.1 -160.3,84.5 -151.4,175.2 11.3,114.9 135,222.9 275.8,240.6 142.2,16.5 246.1,-62.2 235,-176.4 -9,-90.7 -88,-177 -190.1,-218.1 l -44.4,-452.4 c 68.9,5.5 138.3,12.2 208.1,20.4 16.8,1.9 33.6,4 50.5,6.1 87.1,10.8 173.6,23.9 259.9,38.6 l 44.3,452.5 c -96.5,16.1 -160.3,84.4 -151.4,175.1 11.3,115 135,222.9 275.8,240.6 142.3,16.6 246.2,-62.2 235,-176.3 -9,-90.8 -88,-177.1 -190.1,-218.1 l -43.3,-441.9 c 133.7,27 266.4,58.6 397.4,94.5 l 49.9,507.9 c 1.7,18.3 12.3,37.1 29.5,52 l 407.3,355.2 c -29.2,40.4 -43.3,90.4 -37.8,146.4 15.8,162.1 190.4,314.3 388.9,339.3 200.7,23.4 347.1,-87.8 331.3,-248.7 -15.9,-162.1 -190.4,-314.3 -388.9,-339.2 -71.2,-8.4 -132.5,-0.6 -183.3,19.5 l -380.6,-331.8 -44.2,-450.9 c 1706.5,520.8 3134.6,1766.3 3648.6,3182.1 l -1045.7,-131.4 -380.5,-331.9 c 29.1,-40.4 43.4,-90.4 37.9,-146.4 -16,-162.1 -190.4,-314.3 -389,-339.2 -200.4,-23.5 -347,87.7 -331.2,248.7 15.9,162 190.3,314.2 388.9,339.1 71.2,8.4 132.4,0.5 183.3,-19.4 l 407.2,355 c 17.2,15 39.4,25 61.8,27.9 l 1115.8,140.2 c 34.3,108.5 63.4,217.8 86.6,327.7 l -1034.7,-130 c -42.9,-85.6 -143.4,-155.7 -254.6,-169.7 -142.2,-16.6 -246,62.3 -234.8,176.3 11.3,115 135,222.9 275.8,240.6 M 18539.4,9493 c 203.2,-452 279.8,-949.6 227.9,-1478.9 -51.9,-529.4 -229.4,-1058.9 -527.3,-1574 -287.8,-497.3 -675.3,-960.2 -1151.8,-1375.8 -476.4,-415.5 -1017.8,-762.8 -1609.3,-1032.2 -612.5,-279 -1251.8,-461.7 -1900.3,-543.3 -18.6,-2.3 -37.1,-4.5 -55.6,-6.7 -628.2,-73.3 -1228.3,-46.4 -1784,79.9 -552.8,125.6 -1038.8,343.8 -1444.7,648.4 -405.78,304.7 -711.1,680.5 -907.18,1117.1 -203.12,452 -279.88,949.6 -227.97,1478.9 51.9,529.3 229.38,1058.9 527.33,1573.9 287.81,497.4 675.22,960.2 1151.72,1375.8 476.5,415.5 1018,762.9 1609.4,1032.2 612.5,279 1251.8,461.8 1900.3,543.3 18.6,2.4 37.1,4.6 55.6,6.8 628.3,73.2 1228.2,46.4 1784.2,-80 552.7,-125.6 1038.7,-343.7 1444.5,-648.3 405.9,-304.7 711,-680.5 907.2,-1117.1"
         style="fill:#fbbc0d;fill-opacity:1;fill-rule:nonzero;stroke:none"
         id="path28" /><path
         d="m 14588.7,10333.6 c -46.9,-5.5 -82,21.1 -78.2,59.5 3.8,38.8 45.4,75.1 93,81.2 0.3,0 0.6,0 0.8,0.1 47,5.4 82,-21.1 78.3,-59.6 -3.9,-38.7 -45.5,-75.1 -93,-81.1 -0.3,0 -0.6,0 -0.9,-0.1"
         style="fill:#fddb3a;fill-opacity:1;fill-rule:nonzero;stroke:none"
         id="path30" /><path
         d="m 14852.9,7120.5 c 49.6,-39.6 88.1,-87.8 114.2,-143.2 25.7,-54.5 35.6,-113.8 29.5,-176.4 -7.5,-74.9 -30.7,-151.5 -69.3,-227.7 -38.8,-76.3 -89.6,-147.2 -150.9,-210.8 -60.9,-63.1 -130.5,-117.4 -207,-161.5 -74,-42.7 -150.3,-68.5 -233.2,-78.9 l -971.3,-122.1 107.6,1096.5 971.3,122.1 c 2.2,0.3 4.4,0.5 6.5,0.8 79.6,9.3 154.3,5.2 222.1,-12.3 70.5,-18.2 131.3,-47.3 180.5,-86.5"
         style="fill:#fddb3a;fill-opacity:1;fill-rule:nonzero;stroke:none"
         id="path32" /><path
         d="m 17088.2,5064.4 c 476.5,415.4 864.1,878.4 1151.8,1375.8 297.9,515 475.4,1044.5 527.3,1573.9 51.9,529.3 -24.8,1026.9 -227.8,1478.9 -196.3,436.6 -501.4,812.4 -907.3,1117 -405.8,304.7 -891.8,522.8 -1444.5,648.4 -555.9,126.4 -1155.9,153.2 -1784.2,80 -18.5,-2.2 -37,-4.4 -55.6,-6.8 -648.5,-81.5 -1287.8,-264.3 -1900.3,-543.3 -591.4,-269.3 -1132.9,-616.7 -1609.4,-1032.2 -476.5,-415.6 -863.92,-878.4 -1151.68,-1375.8 -297.99,-515 -475.47,-1044.6 -527.33,-1573.9 -51.93,-529.3 24.77,-1026.9 227.91,-1478.9 196.1,-436.7 501.39,-812.4 907.2,-1117.1 405.8,-304.6 891.9,-522.8 1444.6,-648.4 555.8,-126.3 1156,-153.1 1784.1,-79.9 18.5,2.2 37.1,4.4 55.7,6.7 648.4,81.5 1287.7,264.3 1900.2,543.3 591.5,269.4 1133,616.7 1609.3,1032.3 m -2648.5,6602 c 2844.8,331.8 4957.4,-1271.5 4728.8,-3601.9 -230.1,-2346.6 -2747.2,-4541.8 -5622,-4903.2 -19.8,-2.4 -39.9,-4.9 -59.7,-7.2 C 10642,2822.3 8529.36,4425.5 8757.93,6756 c 230.13,2346.6 2747.17,4541.8 5622.07,4903.1 19.8,2.5 39.9,5 59.7,7.3"
         style="fill:#fddb3a;fill-opacity:1;fill-rule:nonzero;stroke:none"
         id="path34" /><path
         d="m 10746.3,6659.3 c -0.3,0 -0.7,-0.1 -1.1,-0.1 -46.9,-5.5 -81.8,21.1 -78,59.5 3.7,38.8 45.5,75.1 92.9,81 0.4,0.1 0.7,0.1 1,0.1 47,5.5 81.9,-21.1 78.2,-59.4 -3.8,-38.8 -45.5,-75.1 -93,-81.1"
         style="fill:#fddb3a;fill-opacity:1;fill-rule:nonzero;stroke:none"
         id="path36" /><path
         d="m 16764.8,9150.1 c 0.8,0.1 1.5,0.2 2.2,0.3 104.1,12.1 181.6,-46.7 173.3,-132 -8.5,-85.8 -100.9,-166.5 -206,-179.7 -0.7,-0.1 -1.4,-0.2 -2.1,-0.3 -104.2,-12.1 -181.8,46.8 -173.4,132.1 8.4,85.8 100.8,166.4 206,179.6"
         style="fill:#fddb3a;fill-opacity:1;fill-rule:nonzero;stroke:none"
         id="path38" /><path
         d="m 15726.4,9973.1 c -0.7,0 -1.4,-0.1 -2.2,-0.2 -104,-12.1 -181.7,46.7 -173.3,131.9 8.4,85.9 100.8,166.6 206.1,179.8 0.6,0.1 1.4,0.2 2.1,0.2 104.2,12.2 181.8,-46.7 173.4,-131.9 -8.4,-86 -100.8,-166.5 -206.1,-179.8"
         style="fill:#fddb3a;fill-opacity:1;fill-rule:nonzero;stroke:none"
         id="path40" /><path
         d="m 12698,9900 c 104,12.2 181.6,-46.7 173.2,-131.9 -8.5,-85.9 -100.9,-166.5 -206.1,-179.8 -0.7,-0.1 -1.4,-0.1 -2.2,-0.2 -104.1,-12.2 -181.7,46.7 -173.3,132 8.4,85.9 100.8,166.5 206,179.7 0.8,0.1 1.6,0.2 2.4,0.2"
         style="fill:#fddb3a;fill-opacity:1;fill-rule:nonzero;stroke:none"
         id="path42" /><path
         d="m 11162.7,5670.4 c -0.7,-0.1 -1.4,-0.2 -2.1,-0.3 -104.2,-12.1 -181.7,46.7 -173.4,132 8.5,85.9 100.9,166.5 206,179.8 0.8,0 1.5,0.1 2.2,0.2 104.1,12.1 181.8,-46.7 173.4,-132 -8.4,-85.9 -100.8,-166.5 -206.1,-179.7"
         style="fill:#fddb3a;fill-opacity:1;fill-rule:nonzero;stroke:none"
         id="path44" /><path
         d="m 12195.1,4796.6 c 0.8,0.1 1.5,0.2 2.2,0.2 104.1,12.2 181.7,-46.7 173.3,-132 -8.4,-85.9 -100.8,-166.4 -206.1,-179.7 -0.6,0 -1.4,-0.1 -2.1,-0.2 -104.1,-12.2 -181.7,46.7 -173.3,131.9 8.4,85.9 100.9,166.6 206,179.8"
         style="fill:#fddb3a;fill-opacity:1;fill-rule:nonzero;stroke:none"
         id="path46" /><path
         d="m 15223.7,4869.6 c -104.1,-12.1 -181.7,46.8 -173.3,132 8.4,85.9 100.9,166.5 206.1,179.7 0.7,0.1 1.4,0.2 2.2,0.3 104.1,12.1 181.6,-46.8 173.2,-132 -8.4,-85.9 -100.8,-166.5 -206,-179.7 -0.7,-0.1 -1.5,-0.2 -2.2,-0.3"
         style="fill:#fddb3a;fill-opacity:1;fill-rule:nonzero;stroke:none"
         id="path48" /><path
         d="m 16521.9,6651.6 c 104.1,12.1 181.7,-46.8 173.3,-132 -8.4,-85.9 -100.7,-166.5 -206,-179.7 -0.7,-0.1 -1.4,-0.2 -2.1,-0.3 -104.2,-12.1 -181.7,46.7 -173.4,132 8.4,85.9 100.8,166.5 206,179.7 0.8,0.1 1.5,0.2 2.2,0.3"
         style="fill:#fddb3a;fill-opacity:1;fill-rule:nonzero;stroke:none"
         id="path50" /><path
         d="m 17126.1,7599.9 c 0.3,0 0.6,0.1 0.9,0.1 47,5.5 82,-21.1 78.2,-59.5 -3.7,-38.7 -45.4,-75 -92.9,-81.1 -0.3,0 -0.5,0 -0.8,-0.1 -47.1,-5.5 -82.1,21.1 -78.3,59.6 3.7,38.7 45.5,75.1 92.9,81"
         style="fill:#fddb3a;fill-opacity:1;fill-rule:nonzero;stroke:none"
         id="path52" /><path
         d="m 13523.9,7621.4 944.9,118.7 c 84.1,10.6 164.7,34.2 239.6,70.3 76,36.6 144,81.9 202.1,134.6 58.6,53.1 107.5,112.9 145.4,177.9 37.5,64.1 59.7,129.1 66,193.5 7,71.4 -2.3,140.8 -27.7,206.2 -25.6,65.8 -64.2,123.2 -114.6,170.5 -49.9,46.9 -111,82.8 -181.5,107 -66.2,22.6 -139.4,29.5 -217.5,20.4 -2,-0.2 -3.9,-0.5 -5.9,-0.7 l -944.9,-118.7 -105.9,-1079.7 m 1403.3,-1048.2 c 38.6,76.2 61.9,152.8 69.3,227.7 6.2,62.6 -3.7,121.9 -29.4,176.4 -26.2,55.4 -64.6,103.6 -114.2,143.2 -49.2,39.3 -110,68.4 -180.5,86.5 -67.8,17.5 -142.5,21.6 -222.1,12.3 -2.2,-0.2 -4.3,-0.5 -6.5,-0.8 l -971.3,-122.1 -107.6,-1096.5 971.3,122.1 c 82.9,10.4 159.2,36.2 233.2,78.9 76.5,44.1 146.1,98.4 206.9,161.6 61.4,63.6 112.2,134.4 150.9,210.7 m 803.1,571.5 c 24.7,-74.7 33.2,-154.3 25.1,-236.5 -15.5,-158.4 -66.1,-312.8 -150.2,-458.8 -83.9,-145.7 -193.8,-279.1 -326.7,-396.5 -133,-117.5 -286.8,-217.2 -457.3,-296.3 -171,-79.5 -353.3,-131.8 -541.9,-155.5 l -82.1,-10.3 -35.6,-363.1 c -3,-29.7 -34.9,-57.6 -71.3,-62.2 l -375.1,-47.1 c -36.7,-4.3 -63.6,16 -60.7,45.5 l 35.6,363.2 -345.3,-43.4 -35.7,-363.2 c -2.8,-29.7 -34.7,-57.5 -71.1,-62.1 l -375.1,-47.1 c -36.7,-4.3 -63.6,16 -60.7,45.5 l 35.6,363.2 -841.8,-105.8 c -20,-2.4 -37.2,2.2 -48.4,12.6 -11.3,10.5 -15.2,25.7 -10.5,41.7 l 123.8,423.1 c 7.8,26.7 37,49.1 69.5,53.2 l 526.7,66.2 264.9,2701.1 -610,-76.7 c -36.7,-4.3 -63.6,16.1 -60.7,45.5 l 41.2,419.8 c 1.4,14.4 9.6,28.8 23,40.5 13.5,11.8 30.6,19.4 48.2,21.6 l 841.7,104.1 35.7,364.8 c 2.9,29.7 34.8,57.6 71.2,62.2 l 375.1,47.1 c 36.7,4.3 63.6,-16 60.7,-45.5 l -35.9,-366 345.3,42.6 36,366.8 c 2.8,29.6 34.8,57.5 71.1,62.1 l 375.1,47.1 c 36.8,4.3 63.6,-16 60.7,-45.5 l -36,-367.8 55.7,6.9 c 5.5,0.7 10.9,1.3 16.3,2 182.2,21.2 353.5,13.8 509.3,-21.9 160,-36.8 298.5,-98.1 411.7,-182.2 113.4,-84.1 199.8,-191 257.2,-317.4 57.4,-126.7 78.9,-269.7 63.7,-425 -16.3,-165.4 -88.4,-325.4 -214.6,-476 -102.3,-122.3 -236.6,-231.8 -399.1,-325.8 57.1,-23.6 110.6,-50.9 159.1,-81 76.7,-47.6 141.4,-103.1 192.5,-165 51.2,-62 89.6,-130.9 114.1,-204.7"
         style="fill:#ffffff;fill-opacity:1;fill-rule:nonzero;stroke:none"
         id="path54" /><path
         d="m 14708.4,7810.4 c -74.9,-36.1 -155.4,-59.7 -239.6,-70.3 l -944.9,-118.7 105.9,1079.7 944.9,118.7 c 2,0.2 3.9,0.5 5.9,0.7 78.1,9.1 151.3,2.2 217.5,-20.5 70.5,-24.1 131.6,-60 181.6,-106.9 50.3,-47.3 88.9,-104.7 114.5,-170.5 25.4,-65.4 34.7,-134.8 27.7,-206.3 -6.3,-64.3 -28.5,-129.3 -65.9,-193.4 -38,-65 -86.9,-124.9 -145.5,-177.9 -58.1,-52.7 -126.1,-98 -202.1,-134.6"
         style="fill:#fddb3a;fill-opacity:1;fill-rule:nonzero;stroke:none"
         id="path56" /><path
         d="m 14020.6,4522.5 c 47,5.5 82,-21.1 78.2,-59.6 -3.8,-38.6 -45.5,-75 -92.9,-81 -0.3,0 -0.6,-0.1 -1,-0.1 -46.9,-5.5 -82,21.1 -78.2,59.5 3.9,38.7 45.5,75.1 93,81.1 0.3,0 0.6,0.1 0.9,0.1"
         style="fill:#fddb3a;fill-opacity:1;fill-rule:nonzero;stroke:none"
         id="path58" /><path
         d="m 13333,4436 c 46.9,5.5 81.8,-21.1 78.2,-59.5 -3.9,-38.7 -45.6,-75.1 -93,-81 -0.4,-0.1 -0.8,-0.1 -1.1,-0.1 -47,-5.5 -81.9,21.1 -78.1,59.5 3.8,38.7 45.5,75.1 92.9,81 0.4,0 0.7,0.1 1.1,0.1"
         style="fill:#fddb3a;fill-opacity:1;fill-rule:nonzero;stroke:none"
         id="path60" /><path
         d="m 17842.1,16688.6 c -11.8,16.8 -24.9,32.8 -39.2,47.8 -1.4,1.4 -2.7,3 -4.1,4.5 -1.3,1.4 -2.6,3 -4,4.5 -1.4,1.5 -2.6,3 -4,4.5 -1.4,1.5 -2.7,3.1 -4.1,4.5 -1.3,1.5 -2.6,3.1 -4,4.5 -1.4,1.5 -2.6,3.1 -4,4.6 -1.4,1.4 -2.7,3 -4.1,4.5 -1.3,1.5 -2.6,3 -4,4.5 -1.4,1.5 -2.6,3.1 -4,4.5 -1.4,1.5 -2.6,3.1 -4,4.5 -1.4,1.5 -2.7,3.1 -4.1,4.6 -1.3,1.4 -2.6,3 -4,4.5 -1.4,1.5 -2.6,3 -4,4.5 -1.4,1.5 -2.7,3.1 -4.1,4.5 -1.3,1.5 -2.6,3.1 -4,4.5 -1.4,1.5 -2.6,3.1 -4,4.6 -1.4,1.4 -2.6,3 -4,4.5 -1.4,1.5 -2.7,3 -4.1,4.5 -1.3,1.5 -2.6,3 -4,4.5 -1.4,1.5 -2.6,3.1 -4,4.5 -1.4,1.5 -2.7,3.1 -4.1,4.6 -1.3,1.4 -2.6,3 -4,4.5 -1.4,1.5 -2.6,3 -4,4.5 -1.4,1.5 -2.7,3 -4.1,4.5 -1.3,1.5 -2.6,3.1 -4,4.5 -1.4,1.5 -2.6,3.1 -4,4.5 -1.4,1.5 -2.6,3.1 -4,4.6 -1.4,1.4 -2.7,3 -4.1,4.5 -1.3,1.5 -2.6,3 -4,4.5 -1.4,1.5 -2.6,3.1 -4,4.5 -1.4,1.5 -2.7,3.1 -4.1,4.5 -1.3,1.5 -2.6,3.1 -4,4.6 -1.4,1.4 -2.6,3 -4,4.5 -1.4,1.4 -2.7,3 -4.1,4.5 -1.3,1.5 -2.6,3.1 -4,4.5 -1.4,1.5 -2.6,3.1 -4,4.5 -1.4,1.5 -2.6,3.1 -4,4.6 -1.4,1.4 -2.7,3 -4.1,4.5 -1.3,1.5 -2.6,3 -4,4.5 -1.4,1.5 -2.6,3 -4,4.5 -1.4,1.5 -2.7,3.1 -4.1,4.5 -1.3,1.5 -2.6,3.1 -4,4.5 -1.4,1.5 -2.6,3.1 -4,4.6 -1.4,1.5 -2.7,3 -4,4.5 -1.4,1.5 -2.7,3 -4.1,4.5 -1.4,1.5 -2.6,3.1 -4,4.5 -1.4,1.5 -2.6,3.1 -4,4.5 -1.4,1.5 -2.7,3.1 -4.1,4.6 -1.3,1.4 -2.6,3 -4,4.5 -1.4,1.5 -2.6,3 -4,4.5 -1.4,1.5 -2.7,3.1 -4.1,4.5 -1.3,1.5 -2.6,3.1 -4,4.5 -1.4,1.5 -2.6,3.1 -4,4.6 -1.4,1.4 -2.6,3 -4.1,4.5 -1.3,1.5 -2.6,3 -4,4.5 -1.3,1.5 -2.6,3 -4,4.5 -1.4,1.5 -2.6,3.1 -4,4.5 -1.4,1.5 -2.7,3.1 -4.1,4.5 -1.3,1.5 -2.6,3.1 -4,4.6 -1.4,1.4 -2.6,3 -4,4.5 -1.4,1.5 -2.7,3.1 -4.1,4.5 -1.3,1.5 -2.6,3.1 -4,4.5 -1.4,1.5 -2.6,3.1 -4,4.5 -1.4,1.5 -2.6,3.1 -4,4.6 -1.4,1.4 -2.7,3 -4.1,4.5 -1.3,1.5 -2.6,3 -4,4.5 -1.4,1.5 -2.6,3.1 -4,4.5 -1.4,1.5 -2.7,3.1 -4.1,4.5 -1.3,1.5 -2.6,3.1 -4,4.6 -1.4,1.4 -2.6,3 -4,4.5 -1.4,1.5 -2.7,3 -4.1,4.5 -1.3,1.5 -2.6,3.1 -4,4.5 -1.4,1.5 -2.6,3.1 -4,4.5 -1.4,1.5 -2.6,3.1 -4,4.6 -1.4,1.4 -2.7,3 -4.1,4.5 -1.3,1.5 -2.6,3 -4,4.5 -1.4,1.5 -2.6,3 -4,4.5 -1.4,1.5 -2.7,3.1 -4.1,4.5 -1.3,1.5 -2.6,3.1 -4,4.6 -1.4,1.4 -2.6,3 -4,4.5 -1.4,1.5 -2.7,3 -4,4.5 -1.4,1.5 -2.7,3 -4.1,4.5 -1.4,1.5 -2.6,3.1 -4,4.5 -1.4,1.5 -2.6,3.1 -4,4.5 -1.4,1.5 -2.7,3.1 -4.1,4.6 -1.3,1.4 -2.6,3 -4,4.5 -1.4,1.5 -2.6,3 -4,4.5 -1.4,1.5 -2.7,3.1 -4.1,4.5 -1.3,1.5 -2.6,3.1 -4,4.5 -1.4,1.5 -2.6,3.1 -4,4.6 -1.4,1.4 -2.7,3 -4,4.5 -1.4,1.5 -2.7,3 -4.1,4.5 -1.4,1.5 -2.6,3.1 -4,4.5 -1.4,1.5 -2.6,3.1 -4,4.5 -1.4,1.5 -2.7,3.1 -4.1,4.6 -1.3,1.4 -2.6,3 -4,4.5 -1.4,1.5 -2.6,3 -4,4.5 -1.4,1.5 -2.7,3 -4.1,4.5 -1.3,1.5 -2.6,3.1 -4,4.5 -1.4,1.5 -2.6,3.1 -4,4.5 -211.2,227.8 -692.4,242.7 -1366.8,39.9 -10.1,-3 -20.3,-6.2 -30.4,-9.3 -1465.6,-451.1 -3371.5,-1785.3 -4248.6,-2974.2 -414.2,-561.4 -542.3,-1012.6 -360.6,-1270.6 11.9,-16.8 25,-32.7 39.3,-47.7 1.4,-1.5 2.6,-3.1 4,-4.5 1.4,-1.5 2.7,-3.1 4.1,-4.6 1.3,-1.4 2.6,-3 4,-4.5 1.4,-1.5 2.6,-3 4,-4.5 1.4,-1.5 2.7,-3.1 4.1,-4.5 1.3,-1.5 2.6,-3.1 4,-4.5 1.4,-1.5 2.6,-3.1 4,-4.6 1.4,-1.4 2.6,-3 4,-4.5 1.4,-1.5 2.7,-3 4.1,-4.5 1.3,-1.5 2.6,-3.1 4,-4.5 1.4,-1.5 2.6,-3.1 4,-4.5 1.4,-1.5 2.7,-3.1 4.1,-4.6 1.3,-1.4 2.6,-3 4,-4.5 1.4,-1.5 2.6,-3 4,-4.5 1.4,-1.5 2.7,-3.1 4,-4.5 1.4,-1.5 2.7,-3.1 4.1,-4.5 1.4,-1.5 2.6,-3.1 4,-4.6 1.4,-1.4 2.6,-3 4,-4.5 1.4,-1.5 2.7,-3 4.1,-4.5 1.3,-1.5 2.6,-3 4,-4.5 1.4,-1.5 2.6,-3.1 4,-4.5 1.4,-1.5 2.7,-3.1 4.1,-4.5 1.3,-1.5 2.6,-3.1 4,-4.6 1.4,-1.4 2.6,-3 4,-4.5 1.4,-1.5 2.6,-3 4,-4.5 1.4,-1.5 2.7,-3.1 4.1,-4.5 1.3,-1.5 2.6,-3.1 4,-4.5 1.4,-1.5 2.6,-3.1 4,-4.6 1.4,-1.4 2.7,-3 4.1,-4.5 1.3,-1.5 2.6,-3 4,-4.5 1.4,-1.5 2.6,-3 4,-4.5 1.4,-1.5 2.7,-3.1 4.1,-4.5 1.3,-1.5 2.6,-3.1 4,-4.5 1.4,-1.5 2.6,-3.1 4,-4.6 1.4,-1.5 2.6,-3 4,-4.5 1.4,-1.5 2.7,-3 4.1,-4.5 1.3,-1.5 2.6,-3.1 4,-4.5 1.4,-1.5 2.6,-3.1 4,-4.5 1.4,-1.5 2.7,-3.1 4.1,-4.6 1.3,-1.5 2.6,-3 4,-4.5 1.4,-1.5 2.6,-3.1 4,-4.5 1.4,-1.5 2.7,-3.1 4.1,-4.5 1.3,-1.5 2.6,-3.1 4,-4.6 1.4,-1.4 2.6,-3 4,-4.5 1.4,-1.4 2.6,-3 4,-4.5 1.4,-1.5 2.7,-3 4.1,-4.5 1.3,-1.5 2.6,-3.1 4,-4.5 1.4,-1.5 2.6,-3.1 4,-4.5 1.4,-1.5 2.7,-3.1 4.1,-4.6 1.3,-1.4 2.6,-3 4,-4.5 1.4,-1.5 2.6,-3 4,-4.5 1.4,-1.5 2.7,-3.1 4,-4.5 1.4,-1.5 2.7,-3.1 4.1,-4.5 1.3,-1.5 2.6,-3.1 4,-4.6 1.4,-1.4 2.6,-3 4,-4.5 1.4,-1.5 2.7,-3 4.1,-4.5 1.3,-1.5 2.6,-3 4,-4.5 1.4,-1.5 2.6,-3.1 4,-4.5 1.4,-1.5 2.7,-3.1 4.1,-4.5 1.3,-1.5 2.6,-3.1 4,-4.6 1.4,-1.4 2.6,-3 4,-4.5 1.4,-1.5 2.7,-3 4,-4.5 1.4,-1.5 2.7,-3.1 4.1,-4.5 1.3,-1.5 2.6,-3.1 4,-4.5 1.4,-1.5 2.6,-3.1 4,-4.6 1.4,-1.4 2.7,-3 4.1,-4.5 1.3,-1.5 2.6,-3 4,-4.5 1.4,-1.5 2.6,-3.1 4,-4.5 1.4,-1.5 2.7,-3.1 4,-4.5 1.4,-1.5 2.7,-3.1 4.1,-4.6 1.4,-1.4 2.6,-3 4,-4.5 1.4,-1.5 2.6,-3 4,-4.5 1.4,-1.5 2.7,-3 4.1,-4.5 1.3,-1.5 2.6,-3.1 4,-4.5 1.4,-1.5 2.6,-3.1 4,-4.6 1.4,-1.4 2.7,-3 4.1,-4.5 1.3,-1.4 2.6,-3 4,-4.5 1.4,-1.5 2.6,-3 4,-4.5 1.4,-1.5 2.7,-3.1 4.1,-4.5 1.3,-1.5 2.6,-3.1 4,-4.5 1.4,-1.5 2.6,-3.1 4,-4.6 1.4,-1.4 2.6,-3 4,-4.5 1.4,-1.5 2.7,-3 4.1,-4.5 1.3,-1.5 2.6,-3.1 4,-4.5 1.4,-1.5 2.6,-3.1 4,-4.5 1.4,-1.5 2.7,-3.1 4.1,-4.6 1.3,-1.4 2.6,-3 4,-4.5 1.4,-1.5 2.6,-3 4,-4.5 1.4,-1.5 2.6,-3 4,-4.5 1.4,-1.5 2.7,-3.1 4.1,-4.5 1.4,-1.5 2.6,-3.1 4,-4.5 1.4,-1.5 2.6,-3.1 4,-4.6 1.4,-1.5 2.7,-3 4.1,-4.5 1.3,-1.5 2.6,-3.1 4,-4.5 1.4,-1.5 2.6,-3.1 4,-4.5 1.4,-1.5 2.7,-3.1 4.1,-4.6 1.3,-1.4 2.6,-3 4,-4.5 1.4,-1.5 2.6,-3 4,-4.5 1.4,-1.5 2.6,-3 4,-4.5 1.4,-1.5 2.7,-3.1 4.1,-4.5 211.2,-227.8 692.3,-242.7 1366.7,-39.9 10.1,3 20.3,6.1 30.4,9.2 47.3,14.6 94.7,30 142.8,46.3 1444.4,490.6 3257,1777.4 4105.9,2927.9 414.2,561.5 542.2,1012.7 360.5,1270.7"
         style="fill:#fbb900;fill-opacity:1;fill-rule:nonzero;stroke:none"
         id="path62" /><path
         d="m 14637.8,16179.5 c 52.8,15.9 69.9,-6.1 38,-49.3 -32.2,-43.6 -102,-92.4 -155.6,-108.9 -0.4,-0.2 -0.8,-0.3 -1.1,-0.4 -52.9,-15.9 -70,6.1 -38,49.4 32.1,43.5 101.9,92.3 155.6,108.9 0.4,0.1 0.7,0.2 1.1,0.3"
         style="fill:#fddb3a;fill-opacity:1;fill-rule:nonzero;stroke:none"
         id="path64" /><path
         d="m 15667,16574.1 c -23.8,-7.2 -31.6,2.7 -17.1,22.2 14.4,19.6 46,41.7 70.1,49.1 0.2,0.1 0.4,0.2 0.5,0.2 23.9,7.2 31.6,-2.7 17.2,-22.2 -14.5,-19.7 -46,-41.7 -70.2,-49.2 -0.1,0 -0.3,-0.1 -0.5,-0.1"
         style="fill:#fddb3a;fill-opacity:1;fill-rule:nonzero;stroke:none"
         id="path66" /><path
         d="m 12658.9,14381.6 c -0.2,0 -0.3,-0.1 -0.5,-0.1 -23.8,-7.2 -31.6,2.7 -17.1,22.2 14.4,19.6 46,41.7 70.2,49.2 0.1,0 0.3,0 0.4,0.1 23.9,7.2 31.6,-2.7 17.1,-22.3 -14.4,-19.6 -45.9,-41.6 -70.1,-49.1"
         style="fill:#fddb3a;fill-opacity:1;fill-rule:nonzero;stroke:none"
         id="path68" /><path
         d="m 16082.4,16502.1 c -0.3,-0.1 -0.7,-0.2 -1.1,-0.3 -52.8,-15.9 -69.9,6.1 -38,49.3 32.1,43.6 101.9,92.4 155.7,109 0.3,0.1 0.7,0.2 1.1,0.3 52.7,15.9 69.8,-6.1 37.9,-49.3 -32.1,-43.6 -101.9,-92.4 -155.6,-109"
         style="fill:#fddb3a;fill-opacity:1;fill-rule:nonzero;stroke:none"
         id="path70" /><path
         d="m 12529.7,13928.7 c -0.4,-0.2 -0.7,-0.3 -1.1,-0.4 -52.8,-15.9 -69.9,6.1 -38,49.4 32.1,43.5 101.9,92.3 155.6,108.9 0.4,0.1 0.8,0.2 1.1,0.3 52.9,15.9 70,-6.1 38,-49.3 -32.1,-43.6 -101.9,-92.4 -155.6,-108.9"
         style="fill:#fddb3a;fill-opacity:1;fill-rule:nonzero;stroke:none"
         id="path72" /><path
         d="m 16299.5,16190.6 c 0.4,0.1 0.7,0.2 1.1,0.3 52.8,15.9 69.9,-6.1 37.9,-49.4 -32.1,-43.5 -101.9,-92.3 -155.6,-108.9 -0.3,-0.1 -0.7,-0.2 -1.1,-0.3 -52.8,-15.9 -69.9,6.1 -38,49.3 32.2,43.5 102,92.4 155.7,109"
         style="fill:#fddb3a;fill-opacity:1;fill-rule:nonzero;stroke:none"
         id="path74" /><path
         d="m 16170.3,15737.6 c 0.2,0 0.4,0.1 0.5,0.1 23.8,7.2 31.5,-2.7 17.1,-22.2 -14.5,-19.7 -46,-41.7 -70.2,-49.1 -0.2,-0.1 -0.4,-0.2 -0.5,-0.2 -23.8,-7.2 -31.5,2.8 -17.1,22.2 14.5,19.7 46,41.7 70.2,49.2"
         style="fill:#fddb3a;fill-opacity:1;fill-rule:nonzero;stroke:none"
         id="path76" /><path
         d="m 15960.2,15452.9 c 0.2,0 0.4,0.1 0.6,0.2 23.8,7.1 31.4,-2.8 17.1,-22.3 -14.5,-19.7 -46,-41.7 -70.2,-49.1 -0.2,-0.1 -0.4,-0.1 -0.5,-0.2 -23.9,-7.1 -31.5,2.8 -17.1,22.3 14.4,19.6 46,41.7 70.1,49.1"
         style="fill:#fddb3a;fill-opacity:1;fill-rule:nonzero;stroke:none"
         id="path78" /><path
         d="m 13493.6,13627.2 c 23.9,7.2 31.5,-2.8 17.2,-22.2 -14.5,-19.6 -46,-41.7 -70.2,-49.1 -0.2,-0.1 -0.4,-0.1 -0.6,-0.2 -23.8,-7.1 -31.4,2.8 -17.1,22.3 14.5,19.6 46,41.6 70.2,49.1 0.2,0 0.4,0.1 0.5,0.1"
         style="fill:#fddb3a;fill-opacity:1;fill-rule:nonzero;stroke:none"
         id="path80" /><path
         d="m 13463.5,15195.6 c -52.7,-15.9 -69.8,6 -37.9,49.3 32.1,43.5 101.9,92.4 155.6,108.9 0.4,0.1 0.8,0.3 1.1,0.4 52.8,15.9 69.9,-6.1 38,-49.4 -32.1,-43.5 -101.9,-92.4 -155.6,-108.9 -0.4,-0.1 -0.8,-0.2 -1.2,-0.3"
         style="fill:#fddb3a;fill-opacity:1;fill-rule:nonzero;stroke:none"
         id="path82" /><path
         d="m 12868.9,14666.3 c -0.2,-0.1 -0.3,-0.1 -0.4,-0.2 -23.9,-7.1 -31.6,2.8 -17.2,22.3 14.5,19.6 46,41.7 70.2,49.1 0.2,0.1 0.3,0.1 0.5,0.2 23.8,7.1 31.6,-2.7 17.1,-22.3 -14.5,-19.6 -45.9,-41.6 -70.2,-49.1"
         style="fill:#fddb3a;fill-opacity:1;fill-rule:nonzero;stroke:none"
         id="path84" /><path
         d="m 13142.6,13519.2 c 23.9,7.2 31.6,-2.7 17.2,-22.3 -14.5,-19.6 -46,-41.6 -70.2,-49.1 -0.2,0 -0.3,-0.1 -0.5,-0.1 -23.8,-7.2 -31.5,2.7 -17.1,22.2 14.5,19.7 46,41.7 70.2,49.2 0.1,0 0.3,0.1 0.4,0.1"
         style="fill:#fddb3a;fill-opacity:1;fill-rule:nonzero;stroke:none"
         id="path86" /><path
         d="m 14171.9,13913.8 c -52.8,-15.9 -69.9,6.1 -38,49.3 32.1,43.6 101.9,92.4 155.6,109 0.4,0.1 0.7,0.2 1.1,0.3 52.8,15.9 70,-6.1 38,-49.3 -32.1,-43.6 -101.9,-92.5 -155.6,-109 -0.4,-0.1 -0.8,-0.2 -1.1,-0.3"
         style="fill:#fddb3a;fill-opacity:1;fill-rule:nonzero;stroke:none"
         id="path88" /><path
         d="m 16187.9,15715.5 c 14.4,19.5 6.7,29.4 -17.1,22.2 -0.2,0 -0.3,-0.1 -0.5,-0.1 -24.2,-7.5 -55.7,-29.5 -70.2,-49.2 -14.4,-19.4 -6.7,-29.4 17.1,-22.2 0.1,0 0.3,0.1 0.5,0.1 24.3,7.5 55.7,29.5 70.2,49.2 m -2747.3,-2159.6 c 24.2,7.4 55.7,29.5 70.2,49.1 14.3,19.5 6.7,29.4 -17.2,22.2 -0.2,0 -0.3,-0.1 -0.5,-0.1 -24.2,-7.5 -55.7,-29.5 -70.2,-49.2 -14.3,-19.4 -6.7,-29.4 17.1,-22.2 0.2,0.1 0.4,0.1 0.6,0.2 m 2537.3,1874.9 c 14.3,19.5 6.7,29.4 -17.1,22.3 -0.2,-0.1 -0.4,-0.2 -0.6,-0.2 -24.2,-7.5 -55.6,-29.5 -70.1,-49.1 -14.4,-19.5 -6.7,-29.4 17.1,-22.3 0.1,0.1 0.3,0.1 0.5,0.2 24.2,7.4 55.7,29.4 70.2,49.1 m -3126.6,-742.4 c -14.4,-19.5 -6.7,-29.4 17.2,-22.3 0.1,0.1 0.3,0.1 0.4,0.2 24.3,7.5 55.7,29.5 70.3,49.2 14.3,19.4 6.6,29.3 -17.2,22.2 -0.2,-0.1 -0.3,-0.1 -0.5,-0.2 -24.2,-7.4 -55.7,-29.5 -70.2,-49.1 m 238.3,-1240.6 c 24.2,7.5 55.7,29.5 70.2,49.1 14.4,19.6 6.7,29.5 -17.2,22.3 -0.2,0 -0.3,-0.1 -0.4,-0.1 -24.2,-7.5 -55.8,-29.5 -70.2,-49.2 -14.4,-19.5 -6.7,-29.4 17.1,-22.2 0.2,0 0.4,0.1 0.5,0.1 m 2630.4,3197.6 c -24.1,-7.4 -55.7,-29.5 -70.1,-49.1 -14.4,-19.5 -6.7,-29.4 17.1,-22.2 0.2,0 0.3,0.1 0.5,0.1 24.2,7.5 55.7,29.5 70.2,49.2 14.4,19.4 6.7,29.4 -17.2,22.2 -0.2,-0.1 -0.3,-0.1 -0.5,-0.2 m -350.9,-108 c -24.2,-7.4 -55.7,-29.5 -70.2,-49.1 -14.4,-19.5 -6.7,-29.4 17.1,-22.3 0.2,0.1 0.4,0.1 0.5,0.2 24.2,7.4 55.8,29.5 70.2,49.1 14.4,19.5 6.7,29.5 -17.1,22.3 -0.2,-0.1 -0.3,-0.1 -0.5,-0.2 m -2727.8,-2133.7 c -14.4,-19.5 -6.7,-29.4 17.1,-22.2 0.2,0 0.3,0.1 0.5,0.1 24.2,7.5 55.7,29.5 70.1,49.1 14.5,19.6 6.8,29.5 -17.1,22.3 -0.2,-0.1 -0.3,-0.1 -0.4,-0.2 -24.2,-7.4 -55.8,-29.5 -70.2,-49.1 m 3697.2,1737.8 c 32,43.3 14.9,65.3 -37.9,49.4 -0.4,-0.1 -0.8,-0.2 -1.1,-0.3 -53.7,-16.6 -123.5,-65.5 -155.7,-109 -31.9,-43.2 -14.8,-65.2 38,-49.3 0.4,0.1 0.8,0.2 1.1,0.3 53.7,16.5 123.5,65.4 155.6,108.9 m -2912.9,-896.6 c -31.9,-43.3 -14.8,-65.2 38,-49.3 0.3,0.1 0.7,0.2 1.1,0.3 53.7,16.5 123.5,65.4 155.6,108.9 31.9,43.3 14.9,65.3 -38,49.4 -0.3,-0.1 -0.7,-0.3 -1.1,-0.4 -53.7,-16.5 -123.5,-65.4 -155.6,-108.9 m 1250.2,885.3 c 31.9,43.2 14.8,65.2 -38,49.3 -0.4,-0.1 -0.8,-0.2 -1.1,-0.3 -53.7,-16.5 -123.6,-65.4 -155.7,-108.9 -31.8,-43.3 -14.8,-65.3 38.1,-49.4 0.3,0.1 0.7,0.2 1.1,0.4 53.6,16.5 123.4,65.3 155.6,108.9 m -1909.5,-2588.1 c 31.9,43.3 14.8,65.3 -38,49.4 -0.3,-0.1 -0.7,-0.2 -1,-0.4 -53.7,-16.5 -123.5,-65.3 -155.7,-108.9 -31.9,-43.2 -14.8,-65.2 38,-49.3 0.4,0.1 0.8,0.2 1.1,0.3 53.7,16.5 123.5,65.4 155.6,108.9 m 3277,3009 c -31.9,-43.2 -14.8,-65.2 38,-49.3 0.4,0.1 0.8,0.2 1.1,0.3 53.7,16.5 123.5,65.4 155.6,108.9 31.9,43.3 14.9,65.3 -37.9,49.4 -0.4,-0.1 -0.8,-0.2 -1.1,-0.3 -53.8,-16.6 -123.5,-65.4 -155.7,-109 m -1909.4,-2588 c -31.9,-43.3 -14.8,-65.2 38,-49.3 0.3,0.1 0.7,0.2 1.1,0.3 53.7,16.5 123.5,65.4 155.6,109 32,43.3 14.8,65.2 -38,49.3 -0.4,-0.1 -0.7,-0.2 -1,-0.3 -53.8,-16.6 -123.6,-65.4 -155.7,-109 m 1269.7,911.2 c 31.9,43.3 14.8,65.2 -38,49.4 -0.4,-0.2 -0.7,-0.3 -1.1,-0.4 -53.7,-16.5 -123.5,-65.4 -155.6,-108.9 -31.9,-43.3 -14.8,-65.2 38,-49.3 0.4,0.1 0.7,0.2 1.1,0.3 53.7,16.5 123.5,65.4 155.6,108.9 m -2913,-896.7 c -31.9,-43.2 -14.8,-65.2 38,-49.3 0.4,0.1 0.8,0.2 1.1,0.3 53.7,16.6 123.5,65.4 155.7,109 31.9,43.2 14.8,65.2 -38.1,49.3 -0.3,-0.1 -0.7,-0.2 -1.1,-0.3 -53.7,-16.6 -123.5,-65.4 -155.6,-109 M 16012,15523 c 57.1,17.2 83.1,2.4 70.8,-32.8 l 534.6,164.6 c 28.7,36.2 56.4,72.4 82.9,108.4 26.6,36 51.7,71.4 75.4,106.1 l -534.6,-164.5 c -48.2,-46.7 -118.4,-91.1 -175.1,-108.5 -72.2,-21.7 -95,7.7 -52.3,65.5 43,58.3 136.4,123.7 208.3,145.9 57.2,17.2 83.1,2.4 70.8,-32.9 l 528,162.6 c 34.1,52.9 64.7,104.3 91.8,154 l -569.3,-175.3 c -11.7,-3.5 -19.8,-3.1 -23,0.9 l -77.3,96.8 c -38.1,-22.4 -76.7,-40.5 -111.7,-51.3 -101.9,-30.6 -134,10.9 -73.9,92.5 60.7,82.2 192.5,174.5 293.8,205.7 101.7,30.6 134,-10.9 73.8,-92.6 -21,-28.4 -50.5,-58 -84.3,-85.9 l 72.2,-90.5 533.7,164.3 c 318,634.1 47,973.8 -692.3,867.7 l -187.6,-254.4 72.1,-90.4 c 38.2,22.4 76.8,40.5 111.9,51.3 101.7,30.6 134,-10.9 73.8,-92.5 -60.7,-82.2 -192.4,-174.5 -293.8,-205.7 -101.8,-30.6 -134,10.9 -73.8,92.5 21,28.5 50.5,58.1 84.2,85.9 l -77.3,96.9 c -3.2,4.1 -1.2,11.6 5.7,20.9 l 209.1,283.4 c -58.6,-10.4 -119.8,-23.3 -183.7,-38.9 l -184.3,-249.8 c 40,1.1 47.5,-26.9 13.5,-73 -43,-58.2 -136.4,-123.6 -208.3,-145.8 -72.2,-21.7 -95,7.7 -52.3,65.6 33.9,46 99.3,96.5 160.6,126.5 l 188.3,255.2 c -34.6,-9.3 -70,-19.4 -106,-30.3 -7.9,-2.4 -15.9,-4.8 -23.9,-7.3 -44.4,-13.6 -89.3,-28.3 -134.6,-43.8 l -188.3,-255.2 c 40,1.1 47.5,-26.8 13.5,-72.9 -43,-58.3 -136.4,-123.7 -208.3,-145.8 -72.1,-21.7 -95,7.7 -52.3,65.6 33.9,46 99.3,96.4 160.7,126.5 l 184.3,249.8 c -71.6,-26 -144.1,-54.3 -217.4,-84.5 l -209.1,-283.4 c -6.8,-9.3 -18,-19.6 -30.9,-28.7 l -307.6,-215.3 c 0.4,-17.4 -9.3,-40.9 -30.4,-69.4 -60.6,-82.1 -192.3,-174.4 -293.7,-205.6 -101.8,-30.6 -134,10.9 -73.8,92.5 60.7,82.2 192.5,174.5 293.8,205.7 36.1,10.9 62.3,12.8 79.6,7.6 l 287.3,201.1 187.7,254.4 c -971.3,-420.5 -2050,-1175.6 -2755.7,-1929.1 l 534.2,164.5 287.4,201.2 c -0.5,17.3 9.3,40.8 30.3,69.3 60.6,82.2 192.4,174.4 293.7,205.6 101.8,30.6 134,-10.9 73.8,-92.5 -60.6,-82.2 -192.4,-174.4 -293.7,-205.6 -36.2,-10.9 -62.3,-12.8 -79.6,-7.6 l -307.6,-215.3 c -12.9,-9.1 -26.7,-16.2 -38.2,-19.7 l -569.9,-175.4 c -51.6,-57.3 -101.1,-114.5 -148.1,-171.4 l 528.6,162.7 c 48.2,46.7 118.3,91.1 175,108.5 72.2,21.7 95,-7.7 52.3,-65.6 -43,-58.3 -136.5,-123.7 -208.3,-145.8 -57.2,-17.2 -83.1,-2.5 -70.8,32.8 l -535.1,-164.7 c -28.7,-36.3 -56.4,-72.5 -83,-108.5 -26.6,-36 -51.6,-71.4 -75.4,-106.1 l 535.2,164.8 c 48.2,46.6 118.4,91 175.1,108.4 72.1,21.8 95,-7.7 52.3,-65.5 -43,-58.4 -136.4,-123.8 -208.3,-145.9 -57.2,-17.2 -83.2,-2.5 -70.8,32.9 l -528.6,-162.8 c -34,-52.9 -64.6,-104.3 -91.8,-154 l 569.9,175.5 c 11.6,3.5 19.7,3.1 22.9,-0.9 l 77.3,-96.9 c 38.1,22.5 76.8,40.6 111.9,51.4 101.8,30.6 134,-10.9 73.7,-92.5 -60.6,-82.2 -192.3,-174.4 -293.7,-205.7 -101.8,-30.6 -134,10.9 -73.8,92.5 21,28.4 50.5,58.1 84.2,85.9 l -72.1,90.6 -534.2,-164.4 c -318,-634.2 -47.1,-973.8 692.2,-867.8 l 168.7,228.6 -72.2,90.5 c -38.1,-22.4 -76.8,-40.5 -111.8,-51.3 -101.8,-30.6 -134,10.9 -73.8,92.5 60.6,82.2 192.4,174.5 293.8,205.7 101.8,30.6 133.9,-11 73.8,-92.5 -21,-28.5 -50.5,-58.1 -84.3,-86 l 77.3,-96.8 c 3.2,-4.1 1.2,-11.6 -5.7,-20.9 l -190.1,-257.7 c 58.6,10.4 119.9,23.3 183.8,38.9 l 165.3,224.1 c -40,-1.1 -47.5,26.9 -13.5,72.9 43,58.3 136.4,123.7 208.3,145.9 72.1,21.7 95,-7.8 52.3,-65.6 -34,-46.1 -99.3,-96.5 -160.7,-126.6 l -169.3,-229.4 c 34.1,9.2 68.9,19.1 104.3,29.8 8.6,2.5 17.1,5.2 25.7,7.8 44.4,13.7 89.3,28.3 134.6,43.8 l 169.2,229.4 c -39.9,-1.1 -47.4,27 -13.5,73 43,58.2 136.5,123.7 208.3,145.8 72.2,21.7 95.1,-7.7 52.3,-65.6 -33.9,-46 -99.3,-96.5 -160.6,-126.5 l -165.4,-224.1 c 71.7,26.1 144.2,54.3 217.5,84.6 l 190,257.6 c 6.9,9.3 18,19.6 31,28.6 l 307.5,215.4 c -0.3,17.3 9.4,40.9 30.4,69.3 60.6,82.2 192.5,174.5 293.7,205.6 101.8,30.6 134,-10.8 73.8,-92.4 -60.6,-82.3 -192.4,-174.5 -293.8,-205.7 -36.1,-10.9 -62.2,-12.7 -79.5,-7.6 l -287.4,-201.1 -168.7,-228.7 c 971.4,420.5 2050,1175.6 2755.8,1929.1 l -533.7,-164.3 -287.4,-201.2 c 0.4,-17.3 -9.3,-40.9 -30.3,-69.3 -60.6,-82.2 -192.4,-174.4 -293.7,-205.6 -101.9,-30.6 -134.1,10.8 -73.9,92.5 60.7,82.2 192.5,174.4 293.8,205.6 36.2,10.9 62.3,12.8 79.6,7.6 l 307.6,215.3 c 13,9.1 26.6,16.2 38.1,19.7 l 569.4,175.3 c 51.7,57.2 101.2,114.4 148.2,171.3 l -528.1,-162.5 c -48.1,-46.6 -118.3,-91.1 -175,-108.5 -72.2,-21.7 -95.1,7.7 -52.3,65.6 42.9,58.2 136.4,123.6 208.3,145.8 m 1232.4,1006 c -53,-205.9 -180.4,-446.4 -378.4,-714.8 -198,-268.4 -455.1,-548.9 -763.8,-833.4 -298.3,-274.8 -631.9,-541.9 -991.8,-793.9 -359.9,-251.9 -727.8,-476 -1093.7,-666 -378.8,-196.8 -738.7,-348.2 -1069.6,-450.1 -9.5,-2.9 -18.9,-5.7 -28.3,-8.6 -318.8,-95.8 -591.4,-139.1 -810.7,-128.8 -218.1,10.3 -374.4,73 -464.9,186.3 -90.3,113.3 -110.2,271.6 -59,470.4 53.1,205.8 180.4,446.3 378.5,714.7 198,268.5 455,548.9 763.8,833.5 298.2,274.8 631.9,541.9 991.7,793.8 359.9,251.9 727.8,476 1093.7,666 378.9,196.8 738.7,348.2 1069.7,450.1 9.5,2.9 18.9,5.8 28.3,8.6 318.7,95.9 591.3,139.2 810.7,128.9 218,-10.3 374.4,-73 464.8,-186.3 90.4,-113.4 110.3,-271.6 59,-470.4"
         style="fill:#fbbc0d;fill-opacity:1;fill-rule:nonzero;stroke:none"
         id="path90" /><path
         d="m 14869.2,14736.3 c 87.4,80.7 161.8,162.3 221.1,242.7 30.8,41.7 52.9,80.4 65.8,115.3 12.7,34.4 17.2,65.1 13.7,91.2 -3.7,25.9 -15.8,47.5 -36.2,63.9 -12.9,10.4 -29,18.9 -48,25.3 107,62.2 205.9,129.4 294.1,199.9 108.5,86.9 195,173.5 256.8,257.3 58.1,78.7 95,147.9 109.6,205.6 14.6,57.5 9.1,102.5 -16.5,133.7 -25.5,31.1 -70.4,48.6 -133.3,51.7 -61.3,3.2 -139.3,-9.4 -231.8,-37.2 -2.8,-0.9 -5.5,-1.7 -8.3,-2.5 l -28.4,-8.7 137.7,186.5 c 11,15 5.1,22.5 -13.2,17.1 l -191.8,-59.1 c -18.6,-5.7 -42.7,-22.6 -53.7,-37.6 l -137.3,-186 -176,-53.9 137,185.6 c 11,15 5.1,22.6 -13.2,17.1 l -191.7,-59.1 c -18.6,-5.7 -42.7,-22.6 -53.9,-37.6 l -136.5,-185.1 -428.9,-131.3 c -9,-2.8 -19.5,-8.2 -29.7,-15.3 -10.1,-7.1 -18.7,-15 -24.1,-22.4 l -157.1,-212.9 c -10.9,-14.9 -5.1,-22.5 13.1,-17 l 311.8,95.9 -1010.6,-1369.7 -268.8,-82.8 c -16.6,-5.1 -37.6,-19 -50.1,-33.1 l -196.9,-222.3 c -7.5,-8.4 -10.6,-15.6 -8.8,-19.8 1.9,-4.1 8.6,-4.7 18.3,-1.8 l 429.9,132.3 -135.9,-184.1 c -11,-15 -5.1,-22.6 13.2,-17.1 l 191.8,59.1 c 18.5,5.7 42.6,22.6 53.7,37.6 l 136,184.2 176.1,54.2 -135.8,-184.2 c -11,-14.8 -5.2,-22.5 13,-17 l 191.9,59.1 c 18.6,5.7 42.7,22.6 53.8,37.6 l 135.9,184.2 41.9,12.9 c 96.2,29.6 198.9,72.9 305.2,128.6 105.9,55.5 210.9,119.7 311.8,190.8 100.8,71 196.2,147.8 283.3,228.2 m 1213.6,753.9 c 12.3,35.3 -13.6,50 -69.3,33.2 -73.4,-22.6 -166.9,-88 -209.8,-146.2 -42.8,-57.9 -19.9,-87.3 50.8,-66.1 58.2,17.9 128.4,62.4 176.5,109 l 528.1,162.5 c -47,-56.9 -96.5,-114.1 -148.2,-171.3 l -569.4,-175.3 c -11.5,-3.5 -25.1,-10.6 -38.1,-19.7 l -307.6,-215.3 c -17.3,5.2 -43.4,3.3 -77.4,-6.9 -103.5,-31.9 -235.3,-124.1 -296,-206.3 -60.2,-81.7 -28,-123.1 71.7,-93.2 103.5,31.9 235.3,124.1 295.9,206.3 21,28.4 30.7,52 30.3,69.4 l 287.4,201.1 533.7,164.3 c -705.8,-753.5 -1784.4,-1508.6 -2755.8,-1929.1 l 168.7,228.7 287.4,201.1 c 17.3,-5.1 43.4,-3.3 77.4,7 103.5,31.8 235.3,124 295.9,206.3 60.3,81.6 28,123.1 -71.7,93.1 -103.4,-31.8 -235.2,-124.1 -295.8,-206.3 -21,-28.4 -30.8,-52 -30.3,-69.3 l -307.6,-215.3 c -13,-9.1 -24.1,-19.4 -30.9,-28.7 l -190.2,-257.7 c -73.2,-30.2 -145.7,-58.4 -217.3,-84.5 l 165.3,224.1 c 61.3,30 126.7,80.5 160.6,126.5 42.8,57.9 19.9,87.3 -50.8,66 -73.3,-22.5 -166.8,-88 -209.8,-146.2 -33.9,-46 -26.4,-74 13.6,-72.9 l -169.3,-229.5 c -45.3,-15.5 -90.2,-30.1 -134.6,-43.8 -8.6,-2.6 -17.1,-5.3 -25.7,-7.8 -35.4,-10.7 -70.2,-20.6 -104.3,-29.8 l 169.3,229.4 c 61.4,30.1 126.7,80.5 160.7,126.6 42.7,57.8 19.8,87.3 -50.8,66 -73.4,-22.6 -166.8,-88 -209.9,-146.3 -33.9,-46 -26.4,-74 13.6,-72.9 l -165.3,-224.1 c -63.9,-15.6 -125.2,-28.5 -183.8,-38.9 l 190.1,257.7 c 6.9,9.3 9,16.8 5.7,20.8 l -77.3,96.9 c 33.8,27.9 63.3,57.5 84.2,86 60.2,81.6 28,123.1 -71.6,93.1 -103.5,-31.9 -235.3,-124.1 -295.9,-206.3 -60.3,-81.6 -28,-123.1 71.6,-93.1 37.2,11.4 75.9,29.4 114,51.9 l 72.2,-90.4 -168.7,-228.7 c -739.2,-106 -1010.2,233.6 -692.2,867.8 l 534.2,164.4 72.1,-90.5 c -33.7,-27.9 -63.2,-57.6 -84.2,-86 -60.2,-81.6 -28,-123.1 71.7,-93.1 103.4,31.9 235.2,124.1 295.8,206.3 60.3,81.6 28.1,123.1 -71.6,93.1 -37.2,-11.4 -75.9,-29.5 -114,-52 l -77.3,96.9 c -3.2,4 -11.3,4.4 -22.5,1 l -570.3,-175.6 c 27.2,49.7 57.8,101.1 91.8,154 l 528.6,162.8 c -12.4,-35.4 13.6,-50.1 69.4,-33.3 73.2,22.5 166.7,87.9 209.7,146.3 42.7,57.8 19.9,87.3 -50.8,66 -58.2,-17.9 -128.4,-62.3 -176.6,-108.9 l -535.1,-164.8 c 23.7,34.8 48.8,70.1 75.3,106.1 26.6,36 54.3,72.2 83,108.5 l 535.1,164.7 c -12.3,-35.2 13.6,-50 69.4,-33.2 73.3,22.5 166.7,87.9 209.8,146.3 42.6,57.8 19.8,87.3 -50.9,66 -58.2,-17.9 -128.3,-62.3 -176.5,-108.9 l -528.6,-162.7 c 47,56.8 96.4,114 148.2,171.3 l 569.8,175.4 c 11.5,3.5 25.2,10.6 38.2,19.7 l 307.6,215.3 c 17.3,-5.2 43.5,-3.3 77.5,7 103.4,31.8 235.2,124 295.8,206.2 60.2,81.6 28,123.1 -71.7,93.2 -103.4,-31.9 -235.2,-124.1 -295.8,-206.3 -21,-28.4 -30.8,-52 -30.3,-69.3 l -287.4,-201.2 -534.2,-164.5 c 705.8,753.5 1784.4,1508.6 2755.7,1929.1 l -187.7,-254.4 -287.3,-201.1 c -17.3,5.2 -43.5,3.3 -77.5,-7 -103.4,-31.8 -235.2,-124 -295.9,-206.3 -60.2,-81.6 -28,-123.1 71.7,-93.1 103.5,31.8 235.2,124.1 295.9,206.3 20.9,28.4 30.7,51.9 30.3,69.3 l 307.6,215.3 c 13,9.1 24.1,19.4 30.9,28.7 l 209.1,283.4 c 73.3,30.2 145.8,58.5 217.4,84.5 l -184.3,-249.8 c -61.4,-30.1 -126.8,-80.5 -160.7,-126.5 -42.7,-57.9 -19.8,-87.3 50.8,-66.1 73.4,22.6 166.8,88 209.8,146.3 34,46 26.5,74 -13.5,72.9 l 188.3,255.2 c 45.3,15.5 90.1,30.2 134.5,43.8 8.1,2.5 16,4.9 24,7.3 36,10.8 71.3,21 106,30.3 l -188.3,-255.2 c -61.3,-30 -126.7,-80.5 -160.6,-126.5 -42.8,-57.9 -19.9,-87.3 50.8,-66.1 73.4,22.7 166.8,88.1 209.8,146.4 34,46 26.5,74 -13.5,72.9 l 184.2,249.8 c 63.9,15.6 125.2,28.5 183.8,38.9 l -209.1,-283.4 c -6.9,-9.3 -8.9,-16.8 -5.7,-20.9 l 77.3,-96.8 c -33.7,-27.9 -63.2,-57.5 -84.2,-85.9 -60.2,-81.7 -28,-123.2 71.7,-93.2 103.5,31.8 235.2,124.1 295.9,206.3 60.2,81.6 27.9,123.1 -71.7,93.1 -37.2,-11.4 -75.8,-29.5 -114,-51.9 l -72.2,90.4 187.7,254.4 c 739.3,106.1 1010.3,-233.6 692.3,-867.7 l -533.7,-164.2 -72.2,90.4 c 33.8,27.9 63.3,57.5 84.3,86 60.2,81.6 27.9,123.1 -71.8,93.1 -103.3,-31.9 -235.1,-124.1 -295.8,-206.3 -60.2,-81.6 -28,-123.1 71.7,-93.1 37.2,11.4 75.8,29.5 113.9,51.9 l 77.4,-96.8 c 3.1,-4.1 11.2,-4.4 22.3,-1 l 570,175.4 c -27.2,-49.7 -57.8,-101 -91.9,-154 l -528,-162.5 c 12.3,35.2 -13.6,50 -69.3,33.2 -73.4,-22.6 -166.8,-88 -209.8,-146.2 -42.7,-57.9 -19.9,-87.3 50.9,-66.1 58.1,17.9 128.3,62.3 176.5,109 l 534.6,164.5 c -23.7,-34.7 -48.8,-70.1 -75.4,-106.1 -26.5,-36 -54.2,-72.2 -82.9,-108.4 l -534.6,-164.6"
         style="fill:#fddb3a;fill-opacity:1;fill-rule:nonzero;stroke:none"
         id="path92" /><path
         d="m 14591.8,14733.9 c 43.1,41.6 79.2,81.9 107.3,120 23.4,31.6 38.2,60.2 44,84.9 5.9,25.2 3.7,45.5 -6.5,60.6 -10.2,14.8 -29.2,23.5 -56.3,25.9 -26,2.3 -59.6,-2.6 -99.9,-14.7 -1.2,-0.4 -2.4,-0.8 -3.6,-1.1 l -495.7,-152.6 -410.3,-556.1 495.7,152.6 c 42.3,13 86.6,33.1 135.3,61.3 50.3,29.2 100.8,62.8 150.1,100 49.7,37.5 96.8,77.6 139.9,119.2"
         style="fill:#fddb3a;fill-opacity:1;fill-rule:nonzero;stroke:none"
         id="path94" /><path
         d="m 14277.5,15123.1 482.3,148.4 c 42.8,13.2 88.4,32.7 135.4,57.7 47.6,25.4 94.4,54.3 139,86.1 44.9,32 87.5,66.4 126.6,102.3 38.5,35.4 70.4,70 94.4,102.5 26.7,36.2 45.1,69.9 54.7,100.1 9.5,30.3 10.3,55.2 2.2,74.1 -8.1,18.5 -25,30.7 -50.1,36.1 -23.7,5 -55.9,1.5 -95.6,-10.5 -0.9,-0.3 -1.8,-0.5 -2.7,-0.8 l -482.2,-148.5 -404,-547.5 m 314.4,-389.2 c 43.1,41.6 79.1,81.9 107.2,120 23.4,31.6 38.2,60.2 44,84.9 6,25.2 3.7,45.5 -6.5,60.6 -10.2,14.8 -29.2,23.6 -56.3,25.9 -26,2.3 -59.6,-2.6 -99.8,-14.7 -1.2,-0.4 -2.5,-0.8 -3.7,-1.1 l -495.7,-152.6 -410.3,-556.1 495.7,152.6 c 42.3,13 86.6,33.1 135.3,61.3 50.4,29.2 100.9,62.9 150.1,100 49.7,37.5 96.8,77.6 140,119.2 m 564.2,360.4 c -12.9,-34.9 -35,-73.6 -65.8,-115.3 -59.3,-80.4 -133.7,-162.1 -221,-242.7 -87.2,-80.5 -182.6,-157.3 -283.4,-228.3 -100.9,-71 -205.9,-135.2 -311.8,-190.7 -106.3,-55.7 -209,-99 -305.2,-128.6 l -41.9,-12.9 -135.9,-184.2 c -11.1,-15 -35.2,-31.9 -53.8,-37.7 l -191.4,-58.8 c -18.7,-5.7 -24.5,1.9 -13.5,16.8 l 135.8,184.2 -176.2,-54.2 -135.9,-184.2 c -11.1,-15 -35.2,-31.9 -53.7,-37.6 l -191.5,-59 c -18.6,-5.6 -24.5,2 -13.5,17 l 135.9,184.1 -429.6,-132.2 c -10.1,-3 -16.7,-2.4 -18.6,1.7 -1.8,4.2 1.4,11.4 8.8,19.8 l 196.9,222.3 c 12.5,14.1 33.5,28 50.1,33.1 l 268.8,82.7 1010.6,1369.8 -311.3,-95.8 c -18.7,-5.6 -24.5,2 -13.5,17 l 157,212.8 c 5.4,7.4 14,15.3 24.1,22.4 10.2,7.1 20.7,12.5 29.7,15.3 l 428.9,131.3 136.5,185 c 11.2,15.1 35.3,32 53.8,37.7 l 191.5,59 c 18.6,5.6 24.5,-2 13.5,-17 l -137,-185.6 176,53.9 137.3,186 c 11,15 35.1,31.9 53.7,37.6 l 191.4,58.9 c 18.7,5.6 24.6,-1.9 13.6,-16.9 l -137.7,-186.5 28.4,8.7 c 2.8,0.8 5.6,1.7 8.3,2.5 92.5,27.8 170.5,40.4 231.8,37.2 62.9,-3.2 107.8,-20.6 133.3,-51.7 25.6,-31.2 31.1,-76.2 16.5,-133.7 -14.6,-57.7 -51.5,-126.9 -109.6,-205.6 -61.8,-83.9 -148.3,-170.4 -256.9,-257.3 -88,-70.5 -187,-137.7 -294,-199.9 19,-6.4 35.1,-14.9 48,-25.3 20.4,-16.4 32.5,-38 36.2,-63.9 3.6,-26.1 -1,-56.8 -13.7,-91.2"
         style="fill:#ffffff;fill-opacity:1;fill-rule:nonzero;stroke:none"
         id="path96" /><path
         d="m 15365.6,14923.7 c 52.8,15.9 69.9,-6.1 38,-49.4 -32.1,-43.5 -101.9,-92.4 -155.6,-108.9 -0.4,-0.1 -0.8,-0.2 -1.1,-0.4 -52.8,-15.8 -69.9,6.1 -38.1,49.3 32.2,43.6 102,92.5 155.7,109 0.4,0.1 0.7,0.2 1.1,0.4"
         style="fill:#fddb3a;fill-opacity:1;fill-rule:nonzero;stroke:none"
         id="path98" /><path
         d="m 17263.5,16825.2 c 1.8,-9.5 3.3,-19.2 4.5,-29 2.5,-19.7 3.8,-39.9 4.1,-60.9 0.1,-10.5 0,-21.2 -0.5,-32 -0.8,-21.6 -2.8,-43.9 -5.9,-66.8 -4.6,-34.4 -11.7,-70.3 -21.3,-107.6 -16.6,-64.3 -40.4,-132 -71.4,-202.9 -43.3,-99.2 -100.7,-204.7 -171.8,-315.9 -10.1,-15.8 -20.6,-31.8 -31.3,-47.9 -32.1,-48.4 -66.8,-97.7 -103.9,-148 -148.5,-201.3 -330.2,-409.4 -542.1,-620.9 -54.5,-54.5 -111.7,-109.2 -170.2,-164.1 -17.2,-16.1 -34,-32.3 -51.6,-48.4 -37.2,-34.4 -75.1,-68.6 -113.4,-102.7 -153.5,-136.4 -315.5,-270.6 -485,-401.7 -127.1,-98.4 -258.3,-195 -393.3,-289.5 -45,-31.5 -90.1,-62.5 -135.3,-93.1 -271.3,-183.7 -546.4,-351.2 -821.1,-500 -45.8,-24.8 -91.5,-49.1 -137.3,-72.9 -236.7,-123 -466.1,-228.2 -685.6,-314.8 -43.9,-17.3 -87.5,-33.8 -130.5,-49.6 -43.2,-15.9 -85.8,-30.9 -128.1,-45.1 -42.3,-14.3 -84.1,-27.9 -125.4,-40.6 -9.5,-2.9 -18.9,-5.8 -28.3,-8.6 -79.7,-24 -156.5,-44.6 -230.3,-62 -73.8,-17.4 -144.7,-31.5 -212.4,-42.2 -135.4,-21.5 -258.4,-29.8 -368,-24.6 -40.9,1.9 -79.6,5.7 -116.2,11.3 -24.3,3.7 -47.7,8.3 -70,13.6 -11.2,2.7 -22.2,5.6 -32.9,8.7 -107,30.8 -189.3,81.8 -245.8,152.7 -5.6,7 -11,14.3 -16.1,21.7 -15.3,22.3 -28.1,46.2 -38.4,71.6 -6.9,16.9 -12.7,34.6 -17.4,52.9 -4.6,18.3 -8.2,37.3 -10.7,56.9 -9.8,78.6 -2,167.9 23.6,267.2 18.3,71 45.6,146.2 81.4,225.1 9.7,21.3 19.7,42.7 30.6,64.4 29.3,58.8 63.2,119.5 101.6,182.1 48,78.2 103,159.3 164.8,243.2 198.1,268.5 455.1,548.9 763.9,833.5 128.9,118.8 264.8,236 406.2,351.3 116.9,95.3 237.7,189.2 362.3,281.4 60.2,44.6 121.3,88.8 183.2,132.6 13.4,9.4 26.6,19.1 40,28.5 90,63 180.5,124.2 271.3,183.6 45.4,29.7 90.9,59 136.5,87.7 227.8,143.9 457.2,275.9 685.9,394.7 137.6,71.5 272.7,136.8 404.8,196.1 52.3,23.5 104.2,46 155.5,67.6 175.3,73.5 344.9,135.6 507.5,185.8 0.6,0.2 1.2,0.4 1.8,0.6 4.8,1.4 9.5,2.8 14.2,4.3 4.7,1.4 9.5,2.9 14.2,4.3 39.8,12 78.9,23.1 117.3,33.5 38.4,10.3 76,19.8 113,28.5 221.4,52.1 415.9,74.6 580.4,66.9 115.5,-5.5 213.5,-25.8 293.7,-60.4 9.7,-4.2 19.1,-8.6 28.2,-13.1 18.6,-9.3 36,-19.5 52.4,-30.5 6.6,-4.5 13.1,-9 19.3,-13.8 27,-20.3 50.9,-43.1 71.2,-68.6 3.8,-4.8 7.4,-9.8 11,-14.8 2.9,-4.1 5.8,-8.2 8.6,-12.5 8.8,-13.2 16.8,-26.8 23.8,-41.1 8,-16.3 14.9,-33.2 20.7,-50.8 5.7,-17.7 10.4,-35.9 14,-54.9 m -1229,398.3 c -10.1,-3 -20.3,-6.1 -30.4,-9.3 -1467.1,-451.5 -3368.2,-1782.3 -4246.2,-2972.4 -871.9,-1181.8 -407.1,-1780.4 1036.3,-1346.3 10,3 20.2,6.1 30.3,9.2 1467.2,451.7 3368.2,1782.5 4246.2,2972.5 872,1181.8 407.2,1780.4 -1036.2,1346.3"
         style="fill:#fddb3a;fill-opacity:1;fill-rule:nonzero;stroke:none"
         id="path100" /><path
         d="m 15299.4,16464.1 c 4.1,-0.7 9.5,-0.2 16.6,1.9 0.1,0.1 0.2,0.1 0.4,0.1 0,0.1 0.1,0.1 0.2,0.1 12,3.7 26,11.1 38.7,20 6.3,4.4 12.4,9.3 17.7,14.2 5.4,5 10.1,10 13.7,14.9 3.6,4.9 5.8,9.2 6.8,12.7 0.4,1.8 0.6,3.4 0.4,4.8 -0.8,7.1 -9.4,9.3 -24.3,4.8 -0.2,-0.1 -0.4,-0.1 -0.5,-0.2 -6.1,-1.8 -12.6,-4.6 -19.1,-8 -3.3,-1.7 -6.7,-3.6 -9.9,-5.6 -4.4,-2.7 -8.6,-5.6 -12.8,-8.6 -11.4,-8.4 -21.7,-17.9 -28.4,-26.9 -1.8,-2.5 -3.3,-4.8 -4.4,-6.9 -1.1,-2.1 -1.9,-4.1 -2.3,-5.8 -0.5,-1.8 -0.6,-3.4 -0.5,-4.8 0.4,-3.7 3.2,-5.9 7.7,-6.7"
         style="fill:#fddb3a;fill-opacity:1;fill-rule:nonzero;stroke:none"
         id="path102" /><path
         d="m 14895.2,15329.2 c -47,-25 -92.6,-44.5 -135.4,-57.6 l -482.3,-148.5 404,547.5 482.2,148.5 c 0.9,0.3 1.8,0.6 2.7,0.8 39.7,12 71.9,15.5 95.6,10.5 25.1,-5.4 42,-17.5 50.1,-36.1 8.1,-18.9 7.3,-43.8 -2.2,-74.1 -9.6,-30.2 -28,-63.8 -54.7,-100.1 -24,-32.5 -55.9,-67.1 -94.5,-102.5 -39,-35.9 -81.7,-70.3 -126.5,-102.3 -44.6,-31.8 -91.4,-60.7 -139,-86.1"
         style="fill:#fddb3a;fill-opacity:1;fill-rule:nonzero;stroke:none"
         id="path104" /><path
         d="m 12727.3,13591.2 c 0.3,0.1 0.7,0.2 1.1,0.3 52.7,15.9 69.9,-6.1 37.9,-49.4 -32.1,-43.5 -101.9,-92.4 -155.6,-108.9 -0.4,-0.1 -0.7,-0.2 -1.1,-0.3 -52.8,-15.9 -69.9,6.1 -38,49.3 32.2,43.6 102,92.4 155.7,109"
         style="fill:#fddb3a;fill-opacity:1;fill-rule:nonzero;stroke:none"
         id="path106" /><path
         d="m 9433.8,10861.1 c 0.73,1.8 1.49,3.5 2.22,5.2 0.72,1.8 1.48,3.5 2.2,5.2 0.74,1.7 1.5,3.5 2.22,5.2 0.73,1.7 1.49,3.5 2.21,5.2 0.73,1.7 1.49,3.5 2.21,5.2 0.74,1.7 1.49,3.5 2.22,5.2 0.73,1.7 1.48,3.4 2.21,5.2 0.72,1.7 1.49,3.4 2.21,5.2 0.73,1.7 1.49,3.4 2.21,5.2 0.73,1.7 1.5,3.4 2.22,5.2 0.73,1.7 1.49,3.4 2.21,5.2 0.73,1.7 1.48,3.4 2.21,5.2 0.73,1.7 1.49,3.4 2.21,5.2 0.73,1.7 1.49,3.4 2.22,5.2 0.72,1.7 1.48,3.4 2.21,5.1 0.73,1.8 1.49,3.5 2.21,5.2 0.73,1.8 1.49,3.5 2.21,5.2 0.73,1.8 1.49,3.5 2.21,5.2 0.74,1.8 1.49,3.5 2.21,5.2 0.74,1.8 1.49,3.5 2.21,5.2 0.73,1.7 1.5,3.5 2.22,5.2 0.73,1.7 1.49,3.5 2.21,5.2 0.73,1.7 1.49,3.5 2.22,5.2 0.73,1.7 1.49,3.5 2.21,5.2 0.73,1.7 1.49,3.5 2.21,5.2 0.73,1.7 1.49,3.4 2.21,5.2 0.74,1.7 1.49,3.4 2.22,5.2 0.72,1.7 1.48,3.4 2.21,5.2 0.73,1.7 1.49,3.4 2.21,5.2 0.73,1.7 1.49,3.4 2.21,5.2 0.73,1.7 1.49,3.4 2.21,5.2 0.74,1.7 1.49,3.4 2.21,5.1 0.73,1.8 1.49,3.5 2.22,5.3 0.73,1.7 1.49,3.4 2.21,5.1 0.73,1.8 1.49,3.5 2.22,5.2 0.72,1.8 1.48,3.5 2.21,5.2 0.73,1.8 1.49,3.5 2.21,5.2 0.73,1.8 1.49,3.5 2.21,5.2 0.73,1.8 1.49,3.5 2.21,5.2 0.74,1.7 1.49,3.5 2.21,5.2 0.74,1.7 1.49,3.5 2.22,5.2 0.73,1.7 1.49,3.5 2.21,5.2 0.73,1.7 1.49,3.5 2.22,5.2 0.72,1.7 1.48,3.4 2.2,5.2 0.74,1.7 1.49,3.4 2.21,5.2 0.74,1.7 1.5,3.5 2.22,5.2 0.73,1.7 1.49,3.4 2.21,5.2 0.73,1.7 1.49,3.4 2.22,5.2 0.73,1.7 1.48,3.4 2.21,5.2 0.73,1.7 1.49,3.4 2.21,5.2 0.73,1.7 1.49,3.4 2.22,5.2 0.72,1.7 1.48,3.4 2.2,5.2 0.74,1.7 1.49,3.4 2.22,5.1 0.73,1.8 1.49,3.5 2.21,5.2 0.73,1.8 1.49,3.5 2.21,5.2 0.73,1.8 1.49,3.5 2.21,5.2 0.73,1.8 1.49,3.5 2.21,5.2 0.73,1.8 1.5,3.5 2.22,5.2 0.73,1.8 1.49,3.5 2.21,5.2 0.73,1.8 1.49,3.5 2.21,5.2 0.74,1.7 1.49,3.5 2.21,5.2 0.74,1.7 1.49,3.5 2.22,5.2 0.73,1.7 1.49,3.5 2.21,5.2 0.73,1.7 1.49,3.5 2.22,5.2 0.72,1.7 1.48,3.4 2.2,5.2 0.73,1.7 1.5,3.5 2.22,5.2 0.73,1.7 1.49,3.4 2.21,5.2 0.73,1.7 1.49,3.4 2.21,5.2 0.73,1.7 1.49,3.4 2.22,5.2 0.73,1.7 1.48,3.4 2.21,5.2 0.73,1.7 1.49,3.4 2.21,5.1 0.73,1.8 1.49,3.5 2.22,5.3 0.72,1.7 1.48,3.4 2.2,5.1 0.74,1.8 1.49,3.5 2.22,5.2 0.73,1.8 1.48,3.5 2.21,5.2 0.73,1.8 1.49,3.5 2.21,5.2 0.73,1.8 1.49,3.5 2.22,5.2 0.72,1.8 1.48,3.5 2.2,5.2 0.73,1.8 1.5,3.5 2.22,5.2 0.73,1.7 1.48,3.5 2.21,5.2 0.73,1.7 1.49,3.5 2.21,5.2 0.74,1.7 1.49,3.5 2.21,5.2 0.74,1.7 1.49,3.5 2.22,5.2 0.73,1.7 1.49,3.5 2.21,5.2 0.73,1.7 1.49,3.4 2.21,5.2 0.73,1.7 1.49,3.4 2.22,5.2 0.72,1.7 1.49,3.4 2.21,5.2 0.73,1.7 1.49,3.4 2.21,5.2 0.73,1.7 1.49,3.4 2.21,5.2 0.73,1.7 1.49,3.4 2.21,5.2 0.73,1.7 1.49,3.4 2.22,5.2 0.73,1.7 1.49,3.4 2.2,5.1 0.74,1.8 1.5,3.5 2.22,5.2 0.73,1.8 1.49,3.5 2.22,5.2 0.73,1.8 1.48,3.5 2.2,5.2 0.74,1.8 1.5,3.5 2.22,5.2 0.73,1.8 1.49,3.5 2.21,5.2 0.73,1.8 1.49,3.5 2.21,5.2 44.44,105.5 75.06,216.3 91.49,331.8 101.35,712.6 -341.18,1524.4 -1214.11,2227.3 -759.72,611.8 -1755.91,1071.1 -2805.05,1293.4 -1048.53,222.1 -2028.96,182 -2760.69,-113 -10.5,-4.3 -21.11,-8.6 -31.55,-13 -317.19,-132.3 -571.59,-307.6 -756.12,-520.8 -100.78,-116.5 -179.48,-242.8 -235.61,-377.6 -0.73,-1.8 -1.49,-3.5 -2.21,-5.2 -0.73,-1.8 -1.5,-3.5 -2.22,-5.2 -0.73,-1.8 -1.48,-3.5 -2.21,-5.2 -0.73,-1.8 -1.49,-3.5 -2.21,-5.2 -0.73,-1.8 -1.49,-3.5 -2.21,-5.2 -0.73,-1.7 -1.49,-3.5 -2.21,-5.2 -0.73,-1.7 -1.5,-3.5 -2.22,-5.2 -0.73,-1.7 -1.49,-3.5 -2.21,-5.2 -0.73,-1.7 -1.49,-3.5 -2.21,-5.2 -0.73,-1.7 -1.49,-3.4 -2.21,-5.2 -0.74,-1.7 -1.49,-3.4 -2.22,-5.2 -0.73,-1.7 -1.49,-3.4 -2.21,-5.2 -0.73,-1.7 -1.49,-3.4 -2.21,-5.2 -0.73,-1.7 -1.49,-3.4 -2.22,-5.2 -0.72,-1.7 -1.48,-3.4 -2.2,-5.2 -0.74,-1.7 -1.5,-3.4 -2.22,-5.2 -0.73,-1.7 -1.49,-3.4 -2.21,-5.2 -0.73,-1.7 -1.49,-3.4 -2.21,-5.1 -0.73,-1.8 -1.49,-3.5 -2.22,-5.2 -0.73,-1.8 -1.49,-3.5 -2.21,-5.2 -0.73,-1.8 -1.49,-3.5 -2.21,-5.2 -0.73,-1.8 -1.49,-3.5 -2.21,-5.2 -0.73,-1.8 -1.49,-3.5 -2.21,-5.2 -0.74,-1.8 -1.49,-3.5 -2.22,-5.2 -0.73,-1.7 -1.49,-3.5 -2.21,-5.2 -0.73,-1.7 -1.49,-3.5 -2.21,-5.2 -0.73,-1.7 -1.49,-3.5 -2.22,-5.2 -0.72,-1.7 -1.49,-3.5 -2.2,-5.2 -0.74,-1.7 -1.5,-3.4 -2.22,-5.2 -0.73,-1.7 -1.48,-3.4 -2.21,-5.2 -0.73,-1.7 -1.49,-3.4 -2.21,-5.2 -0.74,-1.7 -1.49,-3.4 -2.22,-5.2 -0.73,-1.7 -1.49,-3.4 -2.21,-5.2 -0.73,-1.7 -1.49,-3.4 -2.21,-5.2 -0.73,-1.7 -1.49,-3.4 -2.22,-5.2 -0.72,-1.7 -1.48,-3.4 -2.2,-5.1 -0.74,-1.8 -1.5,-3.5 -2.22,-5.3 -0.73,-1.7 -1.49,-3.4 -2.21,-5.1 -0.73,-1.8 -1.49,-3.5 -2.21,-5.2 -0.74,-1.8 -1.49,-3.5 -2.22,-5.2 -0.73,-1.8 -1.49,-3.5 -2.21,-5.2 -0.73,-1.8 -1.48,-3.5 -2.21,-5.2 -0.73,-1.7 -1.49,-3.5 -2.21,-5.2 -0.73,-1.8 -1.49,-3.5 -2.22,-5.2 -0.73,-1.8 -1.49,-3.5 -2.21,-5.2 -0.73,-1.7 -1.49,-3.5 -2.21,-5.2 -0.73,-1.7 -1.49,-3.5 -2.21,-5.2 -0.73,-1.7 -1.49,-3.5 -2.21,-5.2 -0.73,-1.7 -1.5,-3.5 -2.22,-5.2 -0.73,-1.7 -1.49,-3.4 -2.21,-5.2 -0.73,-1.7 -1.49,-3.4 -2.21,-5.2 -0.73,-1.7 -1.49,-3.4 -2.21,-5.2 -0.74,-1.7 -1.49,-3.4 -2.22,-5.2 -0.72,-1.7 -1.49,-3.4 -2.2,-5.2 -0.74,-1.7 -1.5,-3.4 -2.22,-5.2 -0.73,-1.7 -1.49,-3.4 -2.21,-5.1 -0.73,-1.8 -1.5,-3.5 -2.22,-5.2 -0.73,-1.8 -1.48,-3.5 -2.21,-5.2 -0.73,-1.8 -1.49,-3.5 -2.21,-5.2 -0.73,-1.8 -1.49,-3.5 -2.21,-5.2 -0.73,-1.8 -1.49,-3.5 -2.22,-5.2 -0.72,-1.8 -1.49,-3.5 -2.21,-5.2 -0.73,-1.8 -1.49,-3.5 -2.21,-5.2 -0.73,-1.7 -1.49,-3.5 -2.21,-5.2 -0.73,-1.7 -1.49,-3.5 -2.21,-5.2 -0.74,-1.7 -1.49,-3.4 -2.21,-5.2 -0.73,-1.7 -1.5,-3.5 -2.22,-5.2 -0.73,-1.7 -1.49,-3.4 -2.21,-5.2 -0.73,-1.7 -1.49,-3.4 -2.22,-5.2 -0.73,-1.7 -1.49,-3.4 -2.21,-5.2 -0.73,-1.7 -1.49,-3.4 -2.21,-5.2 -0.73,-1.7 -1.49,-3.4 -2.21,-5.2 -0.73,-1.7 -1.49,-3.4 -2.21,-5.2 -0.73,-1.7 -1.49,-3.4 -2.22,-5.2 -0.73,-1.7 -1.49,-3.4 -2.21,-5.2 -0.73,-1.7 -1.49,-3.4 -2.21,-5.1 -0.73,-1.8 -1.49,-3.5 -2.22,-5.2 -0.72,-1.8 -1.48,-3.5 -2.2,-5.2 -0.73,-1.8 -1.49,-3.5 -2.22,-5.2 -0.73,-1.8 -1.49,-3.5 -2.21,-5.2 -0.73,-1.8 -1.49,-3.5 -2.21,-5.2 -0.73,-1.8 -1.49,-3.5 -2.22,-5.2 -0.73,-1.7 -1.49,-3.5 -2.21,-5.2 -0.73,-1.7 -1.49,-3.5 -2.21,-5.2 -0.73,-1.7 -1.49,-3.5 -2.21,-5.2 -0.73,-1.7 -1.49,-3.5 -2.21,-5.2 -0.74,-1.7 -1.49,-3.4 -2.22,-5.2 -0.73,-1.7 -1.49,-3.4 -2.21,-5.2 -0.73,-1.7 -1.49,-3.4 -2.21,-5.2 -0.73,-1.7 -1.49,-3.4 -2.21,-5.2 -0.73,-1.7 -1.49,-3.4 -2.21,-5.2 -0.74,-1.7 -1.5,-3.4 -2.22,-5.2 -0.73,-1.7 -1.49,-3.4 -2.21,-5.2 -0.73,-1.7 -1.49,-3.4 -2.21,-5.2 -0.73,-1.7 -1.49,-3.4 -2.22,-5.1 -0.73,-1.8 -1.49,-3.5 -2.21,-5.2 -0.73,-1.8 -1.49,-3.5 -2.21,-5.2 -0.73,-1.8 -1.49,-3.5 -2.22,-5.2 -0.72,-1.8 -1.48,-3.5 -2.2,-5.2 -0.74,-1.8 -1.5,-3.5 -2.22,-5.2 -44.43,-105.5 -75.06,-216.3 -91.49,-331.9 -101.33,-712.5 341.2,-1524.3 1214.14,-2227.2 759.71,-611.8 1755.88,-1071.1 2805,-1293.4 709.13,-150.2 1387.01,-180.5 1978.02,-93 282.84,41.8 545.88,110.6 782.74,206.1 10.52,4.2 21.11,8.5 31.56,12.9 317.17,132.4 571.56,307.6 756.07,520.8 100.78,116.5 179.48,242.8 235.61,377.6 0.73,1.8 1.48,3.5 2.21,5.2 0.73,1.8 1.49,3.5 2.21,5.2"
         style="fill:#fbb900;fill-opacity:1;fill-rule:nonzero;stroke:none"
         id="path108" /><path
         d="m 5346.67,11441.6 c -0.43,-0.2 -0.83,-0.4 -1.23,-0.5 -55.25,-22.3 -146.24,-3.1 -203.69,43.2 -57.88,46.6 -60.09,103.3 -4.91,126.3 0.32,0.2 0.72,0.3 1.12,0.5 55.29,22.3 146.34,3 203.82,-43.3 57.89,-46.6 60.1,-103.3 4.89,-126.2"
         style="fill:#fddb3a;fill-opacity:1;fill-rule:nonzero;stroke:none"
         id="path110" /><path
         d="m 5961.46,13111.7 c -19.65,-30.5 -52.01,-55.3 -96.14,-73.6 l -495.43,-206.8 -727.63,585.9 495.5,206.8 c 1.06,0.4 2.08,0.8 3.13,1.3 41.47,16.7 91.58,24.2 149.11,22.3 61.18,-1.9 125.28,-11.6 190.48,-28.7 65.82,-17.3 131.7,-41.7 195.84,-72.6 63.71,-30.6 120.47,-65.8 168.61,-104.6 43.34,-34.9 77.49,-72.6 101.43,-112.1 24.35,-40.1 38.01,-79.1 40.9,-116.1 2.86,-36.6 -5.81,-70.9 -25.8,-101.8"
         style="fill:#fddb3a;fill-opacity:1;fill-rule:nonzero;stroke:none"
         id="path112" /><path
         d="m 7952.09,11271.6 c 24.87,10 66.04,1.4 91.95,-19.5 26.05,-21 27.05,-46.5 2.25,-56.9 -0.17,-0.1 -0.33,-0.2 -0.49,-0.3 -24.95,-10 -66.04,-1.3 -92.03,19.5 -26.05,21.1 -27.08,46.6 -2.18,57 0.17,0 0.33,0.1 0.5,0.2"
         style="fill:#fddb3a;fill-opacity:1;fill-rule:nonzero;stroke:none"
         id="path114" /><path
         d="m 3985.36,12204.6 c -0.16,-0.1 -0.33,-0.1 -0.5,-0.2 -24.97,-10.1 -66.04,-1.4 -91.98,19.5 -26.12,21 -27.05,46.5 -2.25,56.9 0.17,0.1 0.33,0.2 0.49,0.2 24.94,10.1 66.04,1.4 91.99,-19.5 26.08,-21 27.09,-46.6 2.25,-56.9"
         style="fill:#fddb3a;fill-opacity:1;fill-rule:nonzero;stroke:none"
         id="path116" /><path
         d="m 4363.64,11899.9 c -0.2,0 -0.4,-0.1 -0.56,-0.2 -24.88,-10 -65.94,-1.3 -91.86,19.5 -26.08,21.1 -27.08,46.6 -2.25,57 0.17,0.1 0.33,0.1 0.5,0.2 24.91,10 65.97,1.4 91.99,-19.5 26.08,-21 27.11,-46.6 2.18,-57"
         style="fill:#fddb3a;fill-opacity:1;fill-rule:nonzero;stroke:none"
         id="path118" /><path
         d="m 9445.85,12025.4 c -11.42,292 -112.36,595.3 -300.19,901.7 -194.48,317.3 -473.99,623.8 -830.72,911.1 -356.77,287.2 -769.52,538.1 -1226.79,745.7 -441.58,200.5 -905.81,352.3 -1379.84,451.2 -473.97,98.9 -933.9,139.8 -1366.99,121.8 -435.57,-18.1 -825.28,-95.4 -1158.87,-229.9 -9.87,-3.9 -19.63,-7.9 -29.4,-12 -339.99,-141.9 -600.06,-335.9 -772.78,-576.5 -166.85,-232.4 -245.66,-498.3 -234.34,-790.2 11.42,-292 112.37,-595.3 300.2,-901.7 194.48,-317.3 474.09,-623.8 830.78,-911 356.77,-287.3 769.46,-538.2 1226.72,-745.8 441.62,-200.5 905.81,-352.3 1379.85,-451.2 473.97,-98.9 933.89,-139.9 1366.98,-121.8 435.58,18.1 825.29,95.4 1158.88,229.8 9.86,4 19.63,8 29.39,12.1 340.03,141.9 600.07,335.9 772.78,576.5 166.86,232.4 245.7,498.3 234.34,790.2 m -6481.98,3080.3 c 1510.51,609 3990.82,85 5561.41,-1179.7 1581.52,-1273.6 1641.52,-2815.9 134.21,-3445.1 -10.43,-4.3 -21.01,-8.6 -31.51,-12.9 -1510.68,-608.9 -3990.85,-85 -5561.45,1179.7 -1581.55,1273.5 -1641.57,2815.9 -134.17,3445.1 10.43,4.3 21.01,8.6 31.51,12.9"
         style="fill:#fddb3a;fill-opacity:1;fill-rule:nonzero;stroke:none"
         id="path120" /><path
         d="m 7228.68,13674 c 0.19,0 0.36,0.1 0.56,0.2 24.93,10 66,1.3 91.82,-19.5 26.18,-21 27.11,-46.6 2.31,-57 -0.13,0 -0.29,-0.1 -0.46,-0.2 -24.98,-10.1 -66.04,-1.4 -91.99,19.5 -26.15,21 -27.11,46.6 -2.24,57"
         style="fill:#fddb3a;fill-opacity:1;fill-rule:nonzero;stroke:none"
         id="path122" /><path
         d="m 3661.61,12797.2 c -55.33,-22.3 -146.44,-3.1 -203.96,43.2 -57.88,46.7 -60.09,103.3 -4.98,126.3 0.4,0.2 0.79,0.3 1.15,0.5 55.3,22.3 146.38,3.1 203.86,-43.2 57.89,-46.6 60.16,-103.3 4.99,-126.3 -0.37,-0.2 -0.73,-0.3 -1.06,-0.5"
         style="fill:#fddb3a;fill-opacity:1;fill-rule:nonzero;stroke:none"
         id="path124" /><path
         d="m 5369.95,12831.3 495.39,206.8 c 44.15,18.3 76.51,43.1 96.17,73.6 19.96,30.9 28.63,65.1 25.76,101.8 -2.88,37 -16.55,76 -40.88,116.1 -23.95,39.5 -58.09,77.2 -101.45,112.1 -48.13,38.8 -104.87,74 -168.58,104.6 -64.13,30.9 -130.04,55.3 -195.84,72.6 -65.22,17.1 -129.28,26.7 -190.51,28.7 -57.51,1.9 -107.64,-5.6 -149.1,-22.3 -1.04,-0.5 -2.08,-0.9 -3.11,-1.3 l -495.51,-206.8 727.66,-585.9 m 1635.12,-339.2 c -32.05,46.1 -73.96,90.1 -124.55,130.8 -42.12,33.9 -91.79,63.7 -147.58,88.6 -56.81,25.2 -115.91,44.8 -175.63,58.1 -59.19,13.2 -118.01,19.3 -174.8,18.1 -54.65,-1.1 -103.75,-10.3 -146.04,-27.4 -1.14,-0.4 -2.29,-0.9 -3.43,-1.4 l -509.29,-212.5 738.96,-595.1 509.34,212.6 c 43.46,18.1 71.5,43.3 85.82,77.1 14.77,35 17.84,74.3 9,116.9 -8.9,42.9 -29.65,88 -61.8,134.2 m 75.5,424.1 c 70.14,-35.7 133.84,-76.4 189.26,-121 106.75,-86 188.96,-175.1 244.26,-265 55.29,-89.7 85.46,-176.9 89.74,-259.1 4.3,-82.3 -17.36,-158.4 -64.32,-226.1 -47.07,-68.1 -121.12,-123.4 -219.95,-164.7 l -43.16,-18 244.75,-197.1 c 19.99,-16.1 20.77,-35.7 1.7,-43.6 l -196.69,-82.1 c -19.49,-7.9 -50.96,-1.2 -70.81,14.8 l -244.75,197.1 -181.12,-75.6 244.75,-197.1 c 19.99,-16.1 20.76,-35.7 1.69,-43.6 l -196.68,-82.1 c -19.49,-7.9 -50.96,-1.2 -70.86,14.7 l -244.7,197.1 -441.43,-184.2 c -10.52,-4.2 -24.64,-4.4 -39.14,-0.7 -14.73,3.8 -28.27,11.3 -37.1,20.4 l -234.4,242.2 c -14.82,15.3 -13.26,31.6 3.77,38.6 l 276.2,115.3 -1820.41,1465.9 -319.87,-133.5 c -19.49,-7.9 -51,-1.2 -70.87,14.8 l -282.84,227.8 c -9.7,7.8 -15.26,16.6 -15.53,24.9 -0.33,8.3 4.58,14.9 13.78,18.7 l 442.61,183.3 -245.92,198 c -20,16.1 -20.76,35.7 -1.75,43.6 l 196.69,82.2 c 19.49,7.8 51.01,1.2 70.86,-14.8 l 246.68,-198.7 181.6,75.2 -247.16,199 c -19.98,16.1 -20.76,35.7 -1.7,43.7 l 196.69,82.1 c 19.49,7.8 50.96,1.2 70.86,-14.8 l 247.86,-199.6 29.31,12.1 c 2.85,1.2 5.7,2.4 8.57,3.5 96.79,39.1 207.81,61.3 330.22,66.2 125.58,4.9 256.02,-6.2 387.63,-33.4 131.67,-27.1 263.5,-70.3 391.7,-128.2 128.52,-58.2 246.74,-130.4 351.39,-214.7 111.42,-89.6 184.49,-185.2 217.32,-283.9 26.63,-80.1 24.31,-158.4 -6.87,-232.8 52.61,-3.7 105.54,-10 157.62,-18.4 82.22,-13.5 162.93,-32.9 239.85,-57.8 77.13,-24.9 151.38,-55.4 220.67,-90.6"
         style="fill:#ffffff;fill-opacity:1;fill-rule:nonzero;stroke:none"
         id="path126" /><path
         d="m 6625.11,11137.8 c 0.4,0.2 0.76,0.3 1.15,0.5 55.3,22.3 146.35,3.1 203.79,-43.2 57.89,-46.7 60.1,-103.3 4.99,-126.3 -0.4,-0.1 -0.79,-0.3 -1.15,-0.4 -55.3,-22.3 -146.38,-3.1 -203.83,43.2 -57.88,46.6 -60.12,103.2 -4.95,126.2"
         style="fill:#fddb3a;fill-opacity:1;fill-rule:nonzero;stroke:none"
         id="path128" /><path
         d="m 8134.66,12733.4 c 57.89,-46.6 60.13,-103.2 4.93,-126.2 -0.35,-0.2 -0.72,-0.4 -1.14,-0.5 -55.27,-22.3 -146.32,-3 -203.79,43.2 -57.88,46.6 -60.1,103.3 -4.96,126.3 0.34,0.2 0.7,0.3 1.06,0.5 55.27,22.2 146.39,3.1 203.9,-43.3 m -432.98,559.7 c -0.18,-0.1 -0.35,-0.2 -0.53,-0.2 -24.9,-10.1 -65.99,-1.5 -91.92,19.5 -26.1,21 -27.14,46.5 -2.19,56.9 0.11,0.1 0.29,0.1 0.44,0.2 24.93,10.1 66,1.4 91.98,-19.5 26.07,-21 27.07,-46.5 2.22,-56.9 m -378.3,304.6 c -0.15,-0.1 -0.32,-0.1 -0.5,-0.2 -24.96,-10.1 -66.03,-1.4 -91.99,19.5 -26.13,21.1 -27.1,46.6 -2.21,56.9 0.2,0.1 0.38,0.2 0.58,0.3 24.91,10 65.97,1.3 91.83,-19.5 26.14,-21.1 27.07,-46.6 2.29,-57 m -867.84,365.6 c -0.41,-0.2 -0.73,-0.3 -1.14,-0.5 -55.27,-22.3 -146.38,-3 -203.82,43.3 -57.89,46.6 -60.19,103.2 -5,126.2 0.36,0.2 0.71,0.3 1.06,0.5 55.34,22.3 146.49,3.1 203.97,-43.2 57.86,-46.6 60.1,-103.3 4.93,-126.3 m -1664.53,614 c 0.37,0.2 0.75,0.4 1.1,0.5 55.28,22.3 146.38,3 203.85,-43.3 57.86,-46.6 60.07,-103.2 4.87,-126.2 -0.35,-0.2 -0.73,-0.3 -1.15,-0.5 -55.27,-22.3 -146.32,-3 -203.79,43.3 -57.81,46.5 -60.06,103.2 -4.88,126.2 m -850.67,-75.8 c 0.18,0 0.32,0.1 0.47,0.2 24.93,10 66.08,1.4 91.98,-19.5 26.07,-21 27.14,-46.6 2.28,-57 -0.18,0 -0.35,-0.1 -0.53,-0.2 -24.96,-10 -65.99,-1.4 -92.02,19.5 -26.06,21 -27.03,46.5 -2.18,57 m -360.53,-150.6 c 0.17,0.2 0.35,0.2 0.52,0.3 24.91,10 65.98,1.3 91.86,-19.5 26.11,-21.1 27.11,-46.6 2.16,-56.9 -0.18,-0.1 -0.38,-0.2 -0.56,-0.3 -24.87,-10 -65.91,-1.3 -91.79,19.5 -26.11,21 -27.11,46.6 -2.19,56.9 m -189.07,-486.3 c 57.89,-46.6 60.16,-103.2 4.97,-126.3 -0.39,-0.1 -0.8,-0.3 -1.15,-0.4 -55.31,-22.3 -146.38,-3.1 -203.85,43.2 -57.86,46.6 -60.1,103.3 -4.9,126.3 0.35,0.1 0.73,0.3 1.14,0.5 55.28,22.2 146.33,3 203.79,-43.3 m 66.92,-1024.2 c -57.86,46.6 -60.1,103.3 -4.96,126.3 0.36,0.1 0.73,0.3 1.15,0.5 55.24,22.3 146.34,3 203.81,-43.3 57.93,-46.6 60.13,-103.2 5,-126.2 -0.38,-0.2 -0.74,-0.3 -1.09,-0.5 -55.33,-22.3 -146.37,-3.1 -203.91,43.2 m 432.96,-559.6 c 0.14,0.1 0.32,0.2 0.5,0.2 24.95,10.1 66.02,1.4 91.95,-19.5 26.12,-21 27.14,-46.6 2.25,-56.9 -0.15,-0.1 -0.32,-0.2 -0.51,-0.2 -24.95,-10.1 -65.99,-1.4 -91.95,19.5 -26.12,21 -27.03,46.5 -2.24,56.9 m 378.36,-304.6 c 0.15,0 0.33,0.1 0.5,0.2 24.9,10 65.96,1.4 91.98,-19.5 26.07,-21.1 27.08,-46.6 2.16,-57 -0.2,-0.1 -0.38,-0.1 -0.58,-0.2 -24.85,-10 -65.92,-1.3 -91.83,19.5 -26.07,21 -27.08,46.6 -2.23,57 m 867.8,-365.6 c 0.42,0.1 0.77,0.3 1.18,0.4 55.28,22.3 146.32,3.1 203.82,-43.2 57.89,-46.6 60.1,-103.3 4.89,-126.2 -0.43,-0.2 -0.84,-0.4 -1.26,-0.5 -55.24,-22.3 -146.23,-3.1 -203.66,43.2 -57.89,46.6 -60.1,103.3 -4.97,126.3 m 1698.24,-641.8 c -0.38,-0.2 -0.76,-0.3 -1.14,-0.4 -55.28,-22.3 -146.41,-3.1 -203.84,43.1 -57.86,46.6 -60.13,103.3 -4.94,126.3 0.38,0.2 0.8,0.3 1.15,0.5 55.27,22.3 146.38,3 203.85,-43.2 57.83,-46.7 60.03,-103.3 4.92,-126.3 m 850.58,75.8 c -0.18,0 -0.39,-0.1 -0.57,-0.2 -24.87,-10 -65.94,-1.3 -91.82,19.5 -26.11,21.1 -27.11,46.6 -2.23,57 0.12,0.1 0.29,0.1 0.48,0.2 24.9,10 65.99,1.4 91.98,-19.5 26.07,-21.1 27.1,-46.6 2.16,-57 m 360.69,150.5 c -0.15,0 -0.32,-0.1 -0.5,-0.2 -24.96,-10 -66.03,-1.3 -92.02,19.5 -26.06,21 -27.13,46.6 -2.18,57 0.14,0 0.32,0.1 0.5,0.2 24.9,10 66.02,1.4 91.92,-19.5 26.1,-21 27.09,-46.5 2.28,-57 m 188.91,486.4 c -57.87,46.6 -60.07,103.2 -4.87,126.2 0.35,0.2 0.76,0.3 1.14,0.5 55.28,22.3 146.36,3 203.82,-43.3 57.86,-46.5 60.03,-103.2 4.92,-126.1 -0.38,-0.2 -0.75,-0.4 -1.14,-0.6 -55.27,-22.2 -146.37,-3 -203.87,43.3 m 483.72,-613.3 -303.92,244.7 -9.06,233.2 c 46.18,-2.8 89.62,2.4 127.43,17.6 104.11,43.5 99.95,150.4 -9.32,238.4 -108.4,87.3 -280.38,123.6 -386.91,80.7 -104.1,-43.5 -99.92,-150.4 9.3,-238.4 37.77,-30.4 83.24,-54.6 130.85,-71.5 l 9.74,-249.5 c 0.4,-10.5 7.58,-22 19.93,-32 l 342.34,-275.7 c -54.47,-38.9 -112.98,-75.8 -175.71,-110.5 l -297.75,239.9 c 32.79,37.2 18.1,94.8 -43.04,144 -76.92,62 -198.87,87.8 -274.37,57.3 -73.85,-30.8 -70.93,-106.7 6.52,-169 61.21,-49.3 150.77,-75.6 222.07,-69.4 l 304.92,-245.5 c -42.27,-20.9 -86.16,-41 -131.76,-60 -8.86,-3.7 -17.73,-7.3 -26.64,-10.9 -37.16,-15 -74.95,-29.2 -113.4,-42.6 l -304.95,245.6 c 32.87,37.2 18.18,94.8 -42.99,144 -76.89,62 -198.77,87.7 -274.39,57.2 -73.83,-30.7 -70.84,-106.6 6.57,-168.9 61.18,-49.2 150.69,-75.6 222.08,-69.4 l 297.74,-239.8 c -76.53,-23.5 -155.44,-43.9 -236.36,-61.6 l -342.4,275.8 c -12.37,9.9 -28.88,17.5 -45.96,21 l -405.07,84.5 c -12.57,31.6 -37.75,64.3 -75.55,94.7 -108.44,87.4 -280.45,123.7 -386.88,80.8 -104.14,-43.5 -99.98,-150.4 9.27,-238.4 108.49,-87.4 280.35,-123.7 386.9,-80.7 36,15 59.08,37.6 69.32,64.4 l 378.45,-78.9 303.93,-244.8 c -1087.81,-198.4 -2508.52,98 -3629.77,757.3 l 548.83,229.1 378.55,-79 c 12.49,-31.6 37.7,-64.2 75.46,-94.6 108.5,-87.4 280.39,-123.7 386.91,-80.8 104.14,43.5 99.98,150.4 -9.22,238.3 -108.57,87.4 -280.52,123.7 -386.98,80.8 -36,-15.1 -58.98,-37.7 -69.26,-64.4 l -405.16,84.5 c -16.88,3.5 -32.91,2.8 -45.08,-2.1 l -585.51,-244.5 c -83.57,52 -165.43,106 -245.11,162 l 543.11,226.7 c 72.33,-36 160.33,-47 220.19,-22.9 73.79,30.8 70.9,106.6 -6.59,169 -76.91,62 -198.89,87.8 -274.42,57.3 -58.25,-24.3 -68.63,-76.7 -32.34,-128.3 l -549.89,-229.5 c -49.79,36.9 -98.68,74.6 -146.55,113.1 -47.83,38.6 -93.97,77.4 -138.6,116.5 l 549.84,229.4 c 72.33,-36 160.35,-47 220.21,-22.8 73.86,30.8 70.88,106.6 -6.57,168.9 -76.96,62 -198.91,87.8 -274.4,57.3 -58.25,-24.3 -68.67,-76.7 -32.4,-128.4 l -542.99,-226.6 c -66.46,61.6 -128.89,123.7 -187.35,186.2 l 585.57,244.4 c 11.77,4.9 18.13,13.5 17.75,24.1 l -9.73,249.5 c 46.12,-2.8 89.58,2.4 127.39,17.7 104.18,43.4 99.92,150.3 -9.23,238.3 -108.56,87.4 -280.5,123.6 -386.99,80.7 -104.08,-43.4 -99.93,-150.3 9.32,-238.3 37.74,-30.4 83.25,-54.7 130.87,-71.6 l 9.04,-233.1 -548.84,-229 c -722.75,825.5 -756.85,1700.7 -86.99,2235.7 l 338.02,-272.2 9.08,-233.2 c -46.2,2.8 -89.8,-2.4 -127.46,-17.6 -104.01,-43.5 -99.92,-150.4 9.39,-238.3 108.5,-87.4 280.45,-123.7 386.94,-80.8 104.08,43.5 99.95,150.4 -9.32,238.4 -37.77,30.4 -83.29,54.6 -130.93,71.5 l -9.7,249.6 c -0.4,10.5 -7.55,21.9 -19.9,31.9 l -376.56,303.2 c 54.49,39 113.09,75.8 175.7,110.5 l 332,-267.3 c -32.84,-37.3 -18.19,-94.9 42.99,-144.1 76.96,-62 198.83,-87.7 274.39,-57.3 73.83,30.8 70.87,106.7 -6.57,169 -61.15,49.2 -150.69,75.6 -222.04,69.4 l -339.12,273.1 c 42.3,20.9 86.19,40.9 131.79,60 8.82,3.7 17.76,7.3 26.67,10.9 37.11,15 74.92,29.1 113.35,42.5 l 339.14,-273.1 c -32.78,-37.2 -18.16,-94.8 42.99,-144.1 76.91,-61.9 198.87,-87.7 274.39,-57.2 73.83,30.8 70.91,106.6 -6.58,169 -61.14,49.3 -150.65,75.6 -221.98,69.4 l -332.07,267.3 c 76.6,23.5 155.51,44 236.4,61.6 l 376.57,-303.2 c 12.4,-10 28.95,-17.6 45.98,-21.1 l 405.17,-84.6 c 12.52,-31.5 37.69,-64.2 75.49,-94.6 108.37,-87.3 280.38,-123.7 386.94,-80.7 104.11,43.4 99.92,150.3 -9.29,238.3 -108.53,87.4 -280.42,123.7 -387,80.7 -35.97,-15 -58.99,-37.6 -69.2,-64.4 l -378.58,78.9 -338.09,272.3 c 1087.87,198.4 2508.55,-97.9 3629.74,-757.2 l -548.28,-228.9 -378.48,79 c -12.59,31.5 -37.76,64.2 -75.5,94.6 -108.47,87.4 -280.35,123.7 -386.9,80.7 -104.17,-43.4 -99.95,-150.4 9.25,-238.3 108.51,-87.4 280.48,-123.6 386.95,-80.7 35.97,15 59.01,37.6 69.22,64.4 l 405.23,-84.5 c 16.85,-3.5 32.85,-2.8 45.01,2.1 l 584.99,244.2 c 83.67,-52 165.42,-106 245.11,-162 l -542.52,-226.4 c -72.37,36 -160.39,47 -220.22,22.9 -73.85,-30.9 -70.87,-106.7 6.58,-169 76.95,-62 198.9,-87.8 274.4,-57.3 58.25,24.3 68.66,76.7 32.36,128.4 l 549.37,229.2 c 49.72,-36.9 98.61,-74.6 146.49,-113.2 47.85,-38.5 93.97,-77.4 138.63,-116.5 l -549.34,-229.2 c -72.3,36 -160.32,47 -220.19,22.9 -73.8,-30.8 -70.87,-106.6 6.62,-169 76.92,-62 198.86,-87.7 274.43,-57.3 58.2,24.4 68.56,76.7 32.33,128.4 l 542.55,226.4 c 66.33,-61.5 128.83,-123.7 187.23,-186.2 l -584.99,-244.1 c -11.73,-4.9 -18.15,-13.6 -17.71,-24.1 l 9.67,-249.5 c -46.12,2.7 -89.58,-2.5 -127.4,-17.7 -104.11,-43.4 -99.92,-150.4 9.29,-238.3 108.53,-87.4 280.48,-123.7 386.91,-80.8 104.13,43.5 100.01,150.4 -9.26,238.4 -37.78,30.4 -83.29,54.6 -130.9,71.5 l -9.08,233.2 548.35,228.8 c 722.74,-825.6 756.85,-1700.7 87.06,-2235.8 m 426.71,1858.9 c -24.3,39.7 -49.92,79.1 -76.89,118.5 -80.83,117.9 -173.54,234.1 -277.62,348.3 -49.75,54.5 -102.99,108.4 -157.91,162 -60,58.5 -122.13,116.5 -188.16,173.6 -42.15,36.5 -85.55,72.8 -130.14,108.7 -89.19,71.8 -181.87,141.3 -277.88,208.5 -155.78,108.9 -320.7,211.2 -493.19,307.2 -93.28,52 -188.51,102.2 -286.35,150.1 -55.75,27.3 -112.18,54 -169.35,79.9 -110.38,50.1 -222.2,97.2 -335.22,141.2 -113.05,44 -227.29,84.8 -342.52,122.5 -57.62,18.8 -115.49,36.9 -173.62,54.1 -174.32,51.7 -350.73,96.2 -528.49,133.3 -177.74,37.1 -353.49,66.1 -526.6,86.8 -288.52,34.6 -569.68,46.4 -840.37,35.1 -54.44,-2.2 -108.17,-5.4 -161.18,-9.5 -105.98,-8.3 -209.03,-20.2 -308.94,-35.7 -1.41,-0.2 -2.76,-0.5 -4.16,-0.8 -248.22,-38.9 -477.27,-100.3 -684.61,-183.9 -9.85,-3.9 -19.63,-8 -29.37,-12 -127.5,-53.2 -243.76,-113.8 -348.38,-181.3 -174.35,-112.7 -316.44,-244.8 -424.4,-395.2 -83.41,-116.2 -144.87,-240.8 -184.02,-372.8 -9.79,-33 -18.17,-66.5 -25.18,-100.4 -21,-101.7 -29.4,-207.6 -25.18,-317 1.44,-36.5 4.25,-73.2 8.48,-110 8.43,-73.7 22.48,-148 42.02,-222.9 19.57,-74.8 44.66,-150.1 75.21,-225.9 30.57,-75.7 66.63,-151.8 108.15,-228.2 20.75,-38.2 42.89,-76.5 66.37,-114.8 121.57,-198.2 276.35,-392.3 462.44,-580.1 111.65,-112.7 234.59,-223.2 368.34,-330.9 44.6,-35.9 90.04,-71.2 136.37,-106 185.27,-139 384.19,-268.8 595.29,-388.3 52.81,-29.9 106.33,-59.2 160.62,-87.8 108.56,-57.2 220.12,-111.7 334.44,-163.6 165.61,-75.2 334.38,-143.6 505.66,-204.8 114.21,-40.9 229.5,-78.6 345.7,-113.1 116.23,-34.5 233.35,-65.7 351.2,-93.7 58.93,-14 118.02,-27.2 177.26,-39.6 236.98,-49.4 470.45,-84.4 698.83,-104.8 114.16,-10.2 227.1,-16.7 338.52,-19.5 55.72,-1.5 111.07,-2 165.99,-1.6 54.96,0.4 109.53,1.8 163.65,4 217.8,9.1 424.1,32.9 617.68,71.3 48.39,9.7 96.01,20.2 142.79,31.6 93.55,22.8 183.85,49.2 270.72,79.3 43.42,15 86.02,30.9 127.71,47.7 9.85,4 19.63,8 29.37,12.1 85.01,35.5 165.02,74.2 239.92,116.1 149.79,83.8 279.08,180.3 387.07,288.7 53.98,54.3 102.62,111.5 145.78,171.7 41.73,58.1 77.94,118.2 108.62,180.4 30.66,62.2 55.81,126.3 75.4,192.3 39.14,132 56.03,271.5 50.33,417.5 -11.42,292 -112.35,595.3 -300.2,901.7"
         style="fill:#fbbc0d;fill-opacity:1;fill-rule:nonzero;stroke:none"
         id="path130" /><path
         d="m 6454.42,13962.8 c 0.37,0.2 0.76,0.3 1.12,0.5 55.18,23.1 52.94,79.7 -4.95,126.3 -57.46,46.3 -148.6,65.5 -203.95,43.2 -0.34,-0.1 -0.7,-0.3 -1.06,-0.4 -55.18,-23.1 -52.9,-79.7 4.98,-126.3 57.45,-46.3 148.57,-65.6 203.86,-43.3"
         style="fill:#fddb3a;fill-opacity:1;fill-rule:nonzero;stroke:none"
         id="path132" /><path
         d="m 5000.84,14408.3 c -0.36,-0.2 -0.72,-0.3 -1.12,-0.5 -55.29,-22.3 -146.34,-3 -203.82,43.3 -57.82,46.6 -60.06,103.2 -4.88,126.2 0.39,0.2 0.72,0.4 1.12,0.5 55.22,22.3 146.37,3 203.82,-43.2 57.89,-46.7 60.06,-103.2 4.88,-126.3"
         style="fill:#fddb3a;fill-opacity:1;fill-rule:nonzero;stroke:none"
         id="path134" /><path
         d="m 7607.02,13369.3 c 0.17,0.1 0.33,0.1 0.46,0.2 24.94,10.1 66.01,1.4 92.02,-19.5 26.02,-21 27.02,-46.5 2.18,-56.9 -0.16,-0.1 -0.33,-0.2 -0.49,-0.2 -24.91,-10.1 -66.04,-1.5 -91.99,19.5 -26.05,21 -27.12,46.5 -2.18,56.9"
         style="fill:#fddb3a;fill-opacity:1;fill-rule:nonzero;stroke:none"
         id="path136" /><path
         d="m 4034.58,14425.1 c -24.98,-10.1 -66.07,-1.4 -92.03,19.4 -26.05,21 -27.04,46.6 -2.17,57 0.13,0 0.29,0.1 0.45,0.2 24.91,10 66.05,1.4 91.99,-19.5 26.06,-21 27.09,-46.6 2.22,-56.9 -0.17,-0.1 -0.33,-0.2 -0.46,-0.2"
         style="fill:#fddb3a;fill-opacity:1;fill-rule:nonzero;stroke:none"
         id="path138" /><path
         d="m 7930.77,12776.7 c 55.26,22.3 146.41,3.1 203.92,-43.2 57.89,-46.6 60.1,-103.3 4.95,-126.3 -0.39,-0.2 -0.79,-0.3 -1.15,-0.5 -55.29,-22.3 -146.34,-3 -203.82,43.2 -57.89,46.7 -60.13,103.3 -4.95,126.4 0.32,0.1 0.69,0.2 1.05,0.4"
         style="fill:#fddb3a;fill-opacity:1;fill-rule:nonzero;stroke:none"
         id="path140" /><path
         d="m 3186.95,13907.9 c 55.26,22.3 146.34,3 203.82,-43.3 57.89,-46.6 60.09,-103.2 4.95,-126.3 -0.39,-0.1 -0.79,-0.3 -1.15,-0.4 -55.29,-22.3 -146.34,-3.1 -203.82,43.2 -57.89,46.6 -60.13,103.3 -4.96,126.3 0.37,0.2 0.76,0.3 1.16,0.5"
         style="fill:#fddb3a;fill-opacity:1;fill-rule:nonzero;stroke:none"
         id="path142" /><path
         d="m 8439.07,11638.3 c -55.29,-22.3 -146.37,-3.1 -203.85,43.2 -57.89,46.6 -60.06,103.3 -4.92,126.3 0.4,0.1 0.79,0.3 1.16,0.4 55.29,22.3 146.37,3.1 203.85,-43.2 57.85,-46.6 60.03,-103.2 4.92,-126.2 -0.4,-0.2 -0.76,-0.4 -1.16,-0.5"
         style="fill:#fddb3a;fill-opacity:1;fill-rule:nonzero;stroke:none"
         id="path144" /><path
         d="m 6557.29,12769.6 c 59.68,-13.3 118.81,-32.9 175.62,-58.1 55.8,-24.9 105.45,-54.7 147.58,-88.6 50.61,-40.7 92.51,-84.7 124.53,-130.8 32.2,-46.2 52.93,-91.3 61.81,-134.2 8.87,-42.6 5.76,-81.9 -8.99,-116.9 -14.33,-33.8 -42.38,-59 -85.82,-77.1 l -509.34,-212.6 -738.97,595.1 509.28,212.5 c 1.16,0.5 2.31,1 3.47,1.4 42.29,17.1 91.37,26.3 146.03,27.4 56.8,1.2 115.61,-4.9 174.8,-18.1"
         style="fill:#fddb3a;fill-opacity:1;fill-rule:nonzero;stroke:none"
         id="path146" /><path
         d="m 7591.45,11121.1 c 24.9,10.1 66,1.4 91.98,-19.5 26.09,-21 27.08,-46.5 2.19,-56.9 -0.2,-0.1 -0.37,-0.2 -0.57,-0.3 -24.87,-10 -65.97,-1.3 -91.85,19.5 -26.09,21.1 -27.08,46.6 -2.21,57 0.13,0.1 0.29,0.1 0.46,0.2"
         style="fill:#fddb3a;fill-opacity:1;fill-rule:nonzero;stroke:none"
         id="path148" /><path
         d="m 7514.07,12530.2 c -55.32,89.9 -137.51,179.1 -244.26,265 -55.41,44.6 -119.13,85.3 -189.26,121 -69.3,35.2 -143.55,65.7 -220.68,90.6 -76.9,24.9 -157.6,44.3 -239.85,57.8 -52.07,8.5 -105,14.7 -157.6,18.4 31.15,74.4 33.49,152.7 6.84,232.8 -32.82,98.7 -105.9,194.3 -217.31,283.9 -104.64,84.4 -222.87,156.5 -351.35,214.7 -128.22,57.9 -260.05,101.1 -391.75,128.3 -131.6,27 -262.04,38.2 -387.61,33.3 -122.43,-4.9 -233.44,-27.2 -330.23,-66.2 -2.87,-1.1 -5.71,-2.3 -8.58,-3.5 l -29.29,-12.1 -247.85,199.6 c -19.93,16 -51.4,22.6 -70.5,14.9 l -197.06,-82.2 c -19.1,-8 -18.29,-27.6 1.7,-43.7 l 247.15,-199 -181.6,-75.2 -246.67,198.7 c -19.86,16 -51.37,22.6 -70.47,14.9 l -197.09,-82.3 c -19,-7.9 -18.23,-27.5 1.74,-43.6 l 245.92,-198 -442.59,-183.3 c -9.2,-3.8 -14.13,-10.4 -13.79,-18.7 0.27,-8.3 5.81,-17.1 15.52,-24.9 l 282.84,-227.8 c 19.86,-16 51.4,-22.6 70.5,-14.9 l 320.24,133.6 1820.42,-1465.9 -276.18,-115.3 c -17.02,-7 -18.61,-23.3 -3.79,-38.6 l 234.4,-242.2 c 8.84,-9.1 22.37,-16.6 37.12,-20.4 14.48,-3.7 28.58,-3.5 38.74,0.6 l 441.81,184.3 244.68,-197 c 19.92,-16 51.4,-22.7 70.5,-15 l 197.09,82.3 c 19.03,7.9 18.28,27.5 -1.74,43.6 l -244.74,197.1 181.13,75.6 244.77,-197.1 c 19.83,-16 51.3,-22.7 70.4,-15 l 197.06,82.3 c 19.1,7.9 18.29,27.5 -1.67,43.6 l -244.78,197.1 43.18,18 c 98.84,41.3 172.9,96.6 219.92,164.7 47,67.7 68.64,143.8 64.37,226.1 -4.3,82.2 -34.46,169.4 -89.75,259.1 m 219.98,891.2 c -72.34,36 -160.39,47 -218.65,23.6 -75.36,-31.5 -72.42,-107.3 5.05,-169.7 76.94,-61.9 198.86,-87.7 272.89,-57.9 59.76,25 70.12,77.4 33.85,129 l 542.56,226.5 c 66.38,-61.6 128.81,-123.7 187.26,-186.2 l -585,-244.2 c -11.75,-4.9 -18.15,-13.6 -17.73,-24.1 l 9.64,-249.5 c -46.07,2.8 -89.54,-2.5 -125.14,-16.8 -106.32,-44.3 -102.14,-151.3 7.07,-239.2 108.5,-87.4 280.48,-123.7 384.82,-81.6 106.2,44.3 102.08,151.2 -7.16,239.2 -37.79,30.4 -83.3,54.7 -130.93,71.5 l -9.03,233.2 548.3,228.8 c 722.79,-825.6 756.88,-1700.7 87.06,-2235.8 l -303.88,244.7 -9.07,233.2 c 46.13,-2.8 89.6,2.4 125.2,16.7 106.36,44.4 102.15,151.3 -7.1,239.3 -108.4,87.3 -280.37,123.6 -384.69,81.6 -106.29,-44.4 -102.14,-151.3 7.07,-239.3 37.79,-30.4 83.23,-54.6 130.85,-71.5 l 9.75,-249.5 c 0.41,-10.5 7.6,-22.1 19.92,-32 l 342.35,-275.7 c -54.48,-38.9 -112.96,-75.8 -175.72,-110.4 l -297.76,239.8 c 32.83,37.2 18.13,94.9 -43,144 -76.91,62 -198.87,87.7 -272.86,58 -75.39,-31.5 -72.42,-107.3 4.99,-169.7 61.23,-49.3 150.73,-75.6 222.06,-69.3 l 304.93,-245.6 c -42.28,-20.9 -86.17,-41 -131.78,-60 -8.84,-3.7 -17.72,-7.3 -26.66,-10.9 -37.11,-15 -74.91,-29.2 -113.35,-42.5 l -304.96,245.5 c 32.89,37.2 18.18,94.8 -42.95,144 -76.93,62 -198.79,87.8 -272.79,57.9 -75.46,-31.4 -72.49,-107.2 4.92,-169.6 61.17,-49.2 150.71,-75.6 222.07,-69.4 l 297.75,-239.8 c -76.55,-23.4 -155.44,-43.9 -236.34,-61.5 l -342.38,275.7 c -12.38,9.9 -28.91,17.5 -45.98,21 l -405.08,84.6 c -12.56,31.5 -37.76,64.2 -75.55,94.6 -108.46,87.4 -280.44,123.7 -384.79,81.6 -106.19,-44.3 -102.04,-151.2 7.17,-239.2 108.5,-87.3 280.37,-123.6 384.72,-81.6 38.19,16 61.28,38.5 71.5,65.3 l 378.48,-78.9 303.91,-244.7 c -1087.81,-198.5 -2508.52,97.9 -3629.75,757.2 l 548.83,229.1 378.51,-79 c 12.54,-31.6 37.73,-64.2 75.49,-94.6 108.53,-87.4 280.38,-123.7 384.72,-81.6 106.3,44.3 102.14,151.2 -7.06,239.2 -108.53,87.4 -280.51,123.6 -384.89,81.6 -38.1,-15.9 -61.08,-38.5 -71.33,-65.3 l -405.18,84.5 c -16.84,3.5 -32.89,2.8 -44.63,-2 l -585.94,-244.6 c -83.58,52 -165.44,106 -245.11,162.1 l 543.09,226.6 c 72.34,-36 160.32,-47 218.65,-23.5 75.36,31.4 72.42,107.3 -4.99,169.6 -77,62 -198.92,87.8 -272.95,57.9 -59.76,-24.9 -70.12,-77.3 -33.85,-129 l -549.92,-229.4 c -49.77,36.9 -98.65,74.6 -146.49,113.2 -47.84,38.5 -93.95,77.3 -138.65,116.4 l 549.86,229.4 c 72.33,-35.9 160.35,-47 218.64,-23.5 75.43,31.5 72.43,107.3 -5.02,169.7 -76.96,62 -198.89,87.7 -272.89,57.9 -59.76,-25 -70.14,-77.4 -33.87,-129 l -543.06,-226.7 c -66.42,61.6 -128.81,123.7 -187.3,186.2 l 585.57,244.4 c 11.77,4.9 18.11,13.6 17.76,24.1 l -9.71,249.5 c 46.07,-2.7 89.54,2.4 125.14,16.8 106.36,44.3 102.14,151.3 -7.04,239.2 -108.53,87.4 -280.44,123.7 -384.85,81.6 -106.2,-44.3 -102.05,-151.2 7.23,-239.2 37.72,-30.4 83.23,-54.6 130.86,-71.5 l 9.03,-233.2 -548.82,-229 c -722.8,825.5 -756.88,1700.7 -87,2235.7 l 338.02,-272.2 9.04,-233.1 c -46.2,2.8 -89.77,-2.5 -125.47,-16.9 -105.99,-44.2 -101.88,-151.1 7.4,-239.1 108.56,-87.4 280.47,-123.7 384.86,-81.6 106.16,44.3 102.04,151.2 -7.2,239.2 -37.79,30.4 -83.31,54.6 -130.93,71.5 l -9.67,249.6 c -0.49,10.5 -7.58,21.9 -19.93,31.9 l -376.58,303.3 c 54.48,38.9 113.09,75.7 175.71,110.4 l 331.96,-267.3 c -32.79,-37.3 -18.12,-94.9 43.01,-144.1 76.94,-62 198.86,-87.7 272.89,-57.9 75.33,31.5 72.43,107.3 -5.05,169.6 -61.14,49.3 -150.7,75.6 -222.06,69.4 l -339.11,273.1 c 42.28,20.9 86.18,41 131.79,60 8.84,3.7 17.75,7.3 26.65,10.9 37.15,15 74.91,29.1 113.36,42.5 l 339.17,-273.1 c -32.8,-37.2 -18.16,-94.8 42.97,-144 76.9,-62 198.86,-87.7 272.89,-57.9 75.36,31.4 72.39,107.3 -5.09,169.7 -61.16,49.2 -150.63,75.5 -221.96,69.3 l -332.03,267.3 c 76.56,23.5 155.47,44 236.35,61.6 l 376.61,-303.2 c 12.35,-10 28.91,-17.6 45.95,-21.1 l 405.18,-84.5 c 12.5,-31.6 37.69,-64.3 75.48,-94.7 108.37,-87.3 280.38,-123.7 384.73,-81.6 106.32,44.3 102.14,151.3 -7.1,239.2 -108.5,87.3 -280.44,123.7 -384.79,81.6 -38.19,-15.9 -61.14,-38.5 -71.4,-65.3 l -378.55,78.9 -338.12,272.3 c 1087.88,198.5 2508.52,-97.9 3629.75,-757.2 l -548.26,-228.9 -378.52,79 c -12.56,31.6 -37.76,64.2 -75.48,94.7 -108.5,87.3 -280.38,123.6 -384.73,81.6 -106.33,-44.4 -102.14,-151.3 7.07,-239.3 108.5,-87.3 280.51,-123.6 384.86,-81.6 38.09,15.9 61.14,38.6 71.36,65.3 l 405.17,-84.5 c 16.85,-3.5 32.83,-2.8 44.61,2 l 585.4,244.3 c 83.72,-52 165.44,-106 245.11,-162 l -542.53,-226.4 c -72.33,36 -160.35,47 -218.61,23.5 -75.43,-31.5 -72.42,-107.3 4.98,-169.6 76.97,-62 198.9,-87.8 272.9,-57.9 59.76,24.9 70.14,77.3 33.88,129 l 549.35,229.2 c 49.77,-36.9 98.65,-74.6 146.5,-113.2 47.83,-38.5 93.95,-77.3 138.64,-116.5 l -549.32,-229.2"
         style="fill:#fddb3a;fill-opacity:1;fill-rule:nonzero;stroke:none"
         id="path150" /><path
         d="m 3673.8,14274.5 c -24.87,-10 -65.94,-1.3 -91.82,19.5 -26.12,21.1 -27.11,46.6 -2.18,57 0.17,0 0.36,0.1 0.56,0.2 24.87,10 65.94,1.3 91.82,-19.5 26.12,-21.1 27.12,-46.6 2.21,-56.9 -0.19,-0.1 -0.39,-0.2 -0.59,-0.3"
         style="fill:#fddb3a;fill-opacity:1;fill-rule:nonzero;stroke:none"
         id="path152" /></g></g></svg>
