<?xml version="1.0" encoding="UTF-8"?>
<!DOCTYPE svg PUBLIC "-//W3C//DTD SVG 1.1//EN" "http://www.w3.org/Graphics/SVG/1.1/DTD/svg11.dtd">
<svg xmlns="http://www.w3.org/2000/svg" version="1.1" width="4000px" height="4000px" style="shape-rendering:geometricPrecision; text-rendering:geometricPrecision; image-rendering:optimizeQuality; fill-rule:evenodd; clip-rule:evenodd" xmlns:xlink="http://www.w3.org/1999/xlink">
<g><path style="opacity:0.966" fill="#204868" d="M 2382.5,1764.5 C 2395.84,1764.33 2409.17,1764.5 2422.5,1765C 2429.33,1766.5 2433.5,1770.67 2435,1777.5C 2435.5,1784.16 2435.67,1790.83 2435.5,1797.5C 2440.83,1797.5 2446.17,1797.5 2451.5,1797.5C 2451.5,1802.83 2451.5,1808.17 2451.5,1813.5C 2455.18,1813.33 2458.85,1813.5 2462.5,1814C 2464.29,1814.78 2465.79,1815.95 2467,1817.5C 2467.33,1824.5 2467.67,1831.5 2468,1838.5C 2515.92,1865.03 2533.25,1905.03 2520,1958.5C 2499.79,2007.36 2463.29,2029.2 2410.5,2024C 2373.03,2016.2 2347.53,1994.37 2334,1958.5C 2320.75,1905.02 2338.08,1865.02 2386,1838.5C 2386.33,1831.5 2386.67,1824.5 2387,1817.5C 2388.21,1815.95 2389.71,1814.78 2391.5,1814C 2395.15,1813.5 2398.82,1813.33 2402.5,1813.5C 2402.5,1808.17 2402.5,1802.83 2402.5,1797.5C 2407.83,1797.5 2413.17,1797.5 2418.5,1797.5C 2418.5,1792.17 2418.5,1786.83 2418.5,1781.5C 2407.83,1781.5 2397.17,1781.5 2386.5,1781.5C 2390.84,1809.32 2379.18,1820.15 2351.5,1814C 2338.83,1810.36 2334.66,1802.2 2339,1789.5C 2352.84,1775.02 2358.01,1777.69 2354.5,1797.5C 2359.5,1797.5 2364.5,1797.5 2369.5,1797.5C 2369.1,1789.75 2369.6,1782.08 2371,1774.5C 2373.57,1769.64 2377.4,1766.31 2382.5,1764.5 Z M 2403.5,1830.5 C 2419.17,1830.5 2434.83,1830.5 2450.5,1830.5C 2450.14,1836.59 2450.64,1842.59 2452,1848.5C 2453.17,1849.67 2454.33,1850.83 2455.5,1852C 2492.41,1868.31 2509.58,1896.81 2507,1937.5C 2501.27,1969.9 2483.1,1992.06 2452.5,2004C 2411.97,2014.27 2380.14,2002.11 2357,1967.5C 2339.51,1931.61 2344.01,1898.78 2370.5,1869C 2378.87,1861.81 2388.2,1856.15 2398.5,1852C 2399.67,1850.83 2400.83,1849.67 2402,1848.5C 2403.36,1842.59 2403.86,1836.59 2403.5,1830.5 Z"/></g>
<g><path style="opacity:0.986" fill="#b3c7ff" d="M 932.5,1796.5 C 970.168,1796.33 1007.83,1796.5 1045.5,1797C 1066.73,1804.24 1078.9,1819.08 1082,1841.5C 1083.28,1863.27 1074.78,1879.93 1056.5,1891.5C 1085.46,1905.5 1095.63,1928.17 1087,1959.5C 1080.55,1973.95 1069.71,1983.45 1054.5,1988C 1048.96,1989.79 1043.29,1991.13 1037.5,1992C 1002.6,1992.83 967.762,1992.66 933,1991.5C 932.5,1926.5 932.333,1861.5 932.5,1796.5 Z M 971.5,1830.5 C 991.546,1830.06 1011.55,1830.56 1031.5,1832C 1039.26,1837.01 1043.26,1844.18 1043.5,1853.5C 1043.53,1863.66 1039.19,1871.16 1030.5,1876C 1010.89,1877.45 991.221,1877.95 971.5,1877.5C 971.5,1861.83 971.5,1846.17 971.5,1830.5 Z M 971.5,1909.5 C 992.503,1909.33 1013.5,1909.5 1034.5,1910C 1047.18,1916.2 1052.35,1926.36 1050,1940.5C 1047.98,1948.05 1043.48,1953.55 1036.5,1957C 1014.89,1958.46 993.22,1958.96 971.5,1958.5C 971.5,1942.17 971.5,1925.83 971.5,1909.5 Z"/></g>
<g><path style="opacity:0.986" fill="#b3c7ff" d="M 1537.5,1796.5 C 1574.83,1796.33 1612.17,1796.5 1649.5,1797C 1669.84,1803.44 1682.01,1817.27 1686,1838.5C 1688.41,1856.59 1683.25,1872.09 1670.5,1885C 1667.47,1887.52 1664.13,1889.52 1660.5,1891C 1690.72,1905.28 1700.89,1928.45 1691,1960.5C 1684.28,1973.87 1673.78,1983.04 1659.5,1988C 1653.6,1989.76 1647.6,1991.09 1641.5,1992C 1606.79,1992.83 1572.12,1992.66 1537.5,1991.5C 1536.17,1926.43 1536.17,1861.43 1537.5,1796.5 Z M 1576.5,1830.5 C 1594.84,1830.33 1613.17,1830.5 1631.5,1831C 1640.41,1832.92 1645.58,1838.42 1647,1847.5C 1650.14,1862.41 1644.64,1872.24 1630.5,1877C 1612.5,1877.67 1594.5,1877.67 1576.5,1877C 1575.17,1861.5 1575.17,1846 1576.5,1830.5 Z M 1576.5,1909.5 C 1597.5,1909.33 1618.5,1909.5 1639.5,1910C 1649.55,1914.75 1654.89,1922.75 1655.5,1934C 1654.77,1946.05 1648.77,1954.05 1637.5,1958C 1617.17,1958.67 1596.83,1958.67 1576.5,1958C 1575.17,1941.83 1575.17,1925.67 1576.5,1909.5 Z"/></g>
<g><path style="opacity:0.986" fill="#b3c7ff" d="M 2619.5,1796.5 C 2656.5,1796.33 2693.5,1796.5 2730.5,1797C 2751.89,1802.72 2764.72,1816.56 2769,1838.5C 2771.53,1858.92 2765.03,1875.76 2749.5,1889C 2747.5,1890 2745.5,1891 2743.5,1892C 2771.47,1905.21 2782.3,1927.04 2776,1957.5C 2769.7,1973.8 2758.2,1984.63 2741.5,1990C 2733.69,1992.41 2725.69,1993.75 2717.5,1994C 2684.47,1994.81 2651.47,1994.65 2618.5,1993.5C 2618.17,1927.76 2618.5,1862.1 2619.5,1796.5 Z M 2658.5,1830.5 C 2676.84,1830.33 2695.17,1830.5 2713.5,1831C 2723.17,1833.34 2728.67,1839.51 2730,1849.5C 2732.32,1863.71 2726.82,1873.21 2713.5,1878C 2695.17,1878.67 2676.83,1878.67 2658.5,1878C 2657.17,1862.17 2657.17,1846.33 2658.5,1830.5 Z M 2658.5,1910.5 C 2680.57,1910.03 2702.57,1910.53 2724.5,1912C 2736.37,1920.27 2740.2,1931.44 2736,1945.5C 2732.82,1953.51 2726.99,1958.34 2718.5,1960C 2698.5,1960.67 2678.5,1960.67 2658.5,1960C 2657.17,1943.5 2657.17,1927 2658.5,1910.5 Z"/></g>
<g><path style="opacity:0.98" fill="#b3c6ff" d="M 1280.5,1800.5 C 1292.17,1800.33 1303.84,1800.5 1315.5,1801C 1316,1801.5 1316.5,1802 1317,1802.5C 1317.5,1817.5 1317.67,1832.5 1317.5,1847.5C 1327.17,1847.33 1336.84,1847.5 1346.5,1848C 1347.82,1857.44 1347.82,1866.94 1346.5,1876.5C 1336.89,1877.47 1327.22,1877.81 1317.5,1877.5C 1317.33,1902.5 1317.5,1927.5 1318,1952.5C 1320.88,1957.44 1325.22,1959.78 1331,1959.5C 1337.93,1958.46 1344.76,1957.13 1351.5,1955.5C 1353.2,1964.96 1355.53,1974.29 1358.5,1983.5C 1340.02,1994.13 1320.35,1996.97 1299.5,1992C 1289.15,1987.78 1282.65,1980.28 1280,1969.5C 1279.67,1939.17 1279.33,1908.83 1279,1878.5C 1273.2,1877.81 1267.36,1877.15 1261.5,1876.5C 1260.5,1866.86 1260.17,1857.19 1260.5,1847.5C 1266.76,1847.81 1272.92,1847.48 1279,1846.5C 1279.18,1831.09 1279.68,1815.76 1280.5,1800.5 Z"/></g>
<g><path style="opacity:0.976" fill="#b3c6ff" d="M 2975.5,1801.5 C 2988.17,1801.5 3000.83,1801.5 3013.5,1801.5C 3013.33,1816.84 3013.5,1832.17 3014,1847.5C 3023.66,1847.2 3033.5,1847.53 3043.5,1848.5C 3043.5,1858.17 3043.5,1867.83 3043.5,1877.5C 3033.56,1878.49 3023.72,1878.83 3014,1878.5C 3013.33,1901.83 3013.33,1925.17 3014,1948.5C 3013.72,1953.78 3015.89,1957.61 3020.5,1960C 3025.5,1960.67 3030.5,1960.67 3035.5,1960C 3039.42,1958.35 3043.42,1957.35 3047.5,1957C 3050.57,1966.67 3052.73,1976.5 3054,1986.5C 3036.83,1995.45 3018.67,1998.28 2999.5,1995C 2987.24,1991.07 2979.4,1982.9 2976,1970.5C 2975.67,1939.83 2975.33,1909.17 2975,1878.5C 2968.94,1878.82 2962.77,1878.49 2956.5,1877.5C 2956.5,1867.83 2956.5,1858.17 2956.5,1848.5C 2962.63,1847.54 2968.63,1847.2 2974.5,1847.5C 2975.5,1832.18 2975.83,1816.85 2975.5,1801.5 Z"/></g>
<g><path style="opacity:0.979" fill="#b3c7ff" d="M 1156.5,1845.5 C 1179.19,1841.93 1200.19,1846.09 1219.5,1858C 1231.19,1868.55 1237.69,1881.72 1239,1897.5C 1239.33,1916.83 1239.67,1936.17 1240,1955.5C 1241.65,1958.23 1244.15,1959.57 1247.5,1959.5C 1248.59,1969.47 1248.76,1979.47 1248,1989.5C 1247.35,1991.72 1245.85,1992.89 1243.5,1993C 1234.27,1995.29 1225.27,1994.63 1216.5,1991C 1210,1986.15 1206.5,1979.65 1206,1971.5C 1185.88,1993.1 1161.71,1999.6 1133.5,1991C 1107.91,1977.91 1099.75,1957.75 1109,1930.5C 1115.68,1919.82 1124.85,1911.99 1136.5,1907C 1148.83,1902.72 1161.5,1901.06 1174.5,1902C 1183.56,1903.31 1192.56,1904.81 1201.5,1906.5C 1201.3,1899.34 1200.14,1892.34 1198,1885.5C 1194.73,1880.23 1190.23,1876.39 1184.5,1874C 1170.87,1871.27 1157.53,1872.27 1144.5,1877C 1137.84,1879.99 1131.51,1883.49 1125.5,1887.5C 1124.52,1887.02 1123.69,1886.36 1123,1885.5C 1120.01,1879.2 1117.01,1872.87 1114,1866.5C 1113.22,1865.06 1113.39,1863.72 1114.5,1862.5C 1127.62,1854.47 1141.62,1848.8 1156.5,1845.5 Z M 1161.5,1924.5 C 1169.51,1924.33 1177.51,1924.5 1185.5,1925C 1190.65,1926.04 1195.65,1927.54 1200.5,1929.5C 1204.43,1944.13 1199.77,1954.96 1186.5,1962C 1174.06,1967.78 1161.73,1967.78 1149.5,1962C 1142.05,1956.6 1139.55,1949.43 1142,1940.5C 1143.29,1936.76 1145.46,1933.59 1148.5,1931C 1152.65,1928.26 1156.98,1926.09 1161.5,1924.5 Z"/></g>
<g><path style="opacity:0.978" fill="#b3c6ff" d="M 1417.5,1845.5 C 1431.96,1844.85 1446.29,1845.68 1460.5,1848C 1481.29,1854.46 1494.12,1868.29 1499,1889.5C 1500.25,1911.13 1500.92,1932.8 1501,1954.5C 1503.07,1957.53 1505.74,1959.87 1509,1961.5C 1509.67,1971.17 1509.67,1980.83 1509,1990.5C 1508.23,1991.85 1507.06,1992.68 1505.5,1993C 1495.44,1995.38 1485.78,1994.38 1476.5,1990C 1471.09,1985.02 1467.93,1978.85 1467,1971.5C 1448.7,1991.71 1426.2,1998.88 1399.5,1993C 1374.5,1983.84 1363.67,1966.01 1367,1939.5C 1371.67,1923.5 1381.84,1912.66 1397.5,1907C 1409.85,1902.86 1422.52,1901.2 1435.5,1902C 1444.6,1903.09 1453.6,1904.59 1462.5,1906.5C 1464.11,1883.45 1453.45,1872.12 1430.5,1872.5C 1414.3,1872.93 1399.64,1877.93 1386.5,1887.5C 1381.28,1880.06 1377.44,1872.06 1375,1863.5C 1388.06,1854.65 1402.22,1848.65 1417.5,1845.5 Z M 1423.5,1924.5 C 1436.5,1923.45 1449.17,1924.95 1461.5,1929C 1465.25,1941.11 1462.25,1951.11 1452.5,1959C 1438.99,1967.41 1424.99,1968.41 1410.5,1962C 1400.25,1951.96 1399.92,1941.62 1409.5,1931C 1413.88,1927.97 1418.54,1925.81 1423.5,1924.5 Z"/></g>
<g><path style="opacity:0.982" fill="#b3c7ff" d="M 1770.5,1845.5 C 1798.73,1840.99 1822.89,1848.65 1843,1868.5C 1862.31,1892.45 1866.98,1919.12 1857,1948.5C 1844.85,1976.84 1823.35,1992.34 1792.5,1995C 1752.32,1996.51 1725.82,1978.34 1713,1940.5C 1705.22,1906.83 1714.72,1879.33 1741.5,1858C 1750.56,1852.13 1760.23,1847.96 1770.5,1845.5 Z M 1781.5,1877.5 C 1803.6,1877.3 1817.1,1887.97 1822,1909.5C 1824.82,1924.53 1821.82,1938.2 1813,1950.5C 1798.02,1964.65 1781.86,1966.15 1764.5,1955C 1752.39,1943.45 1747.56,1929.28 1750,1912.5C 1752.75,1893.59 1763.25,1881.92 1781.5,1877.5 Z"/></g>
<g><path style="opacity:0.981" fill="#b3c6ff" d="M 1936.5,1845.5 C 1967.35,1840.94 1992.85,1850.28 2013,1873.5C 2028.46,1896.75 2031.79,1921.75 2023,1948.5C 2007.7,1981.24 1981.87,1996.74 1945.5,1995C 1911.72,1991.55 1889.56,1973.72 1879,1941.5C 1870.04,1899.6 1884.54,1869.1 1922.5,1850C 1927.3,1848.55 1931.97,1847.05 1936.5,1845.5 Z M 1947.5,1877.5 C 1969.6,1877.3 1983.1,1887.97 1988,1909.5C 1991.2,1926.53 1987.04,1941.37 1975.5,1954C 1955.06,1967.53 1937.22,1964.7 1922,1945.5C 1912.3,1926 1913.63,1907.34 1926,1889.5C 1932.01,1883.25 1939.18,1879.25 1947.5,1877.5 Z"/></g>
<g><path style="opacity:0.982" fill="#b2c6ff" d="M 2124.5,1845.5 C 2150.3,1840.09 2168.64,1849.09 2179.5,1872.5C 2195.42,1850.91 2216.76,1842.07 2243.5,1846C 2257.9,1850.07 2267.4,1859.24 2272,1873.5C 2273.48,1879.08 2274.48,1884.75 2275,1890.5C 2275.83,1924.17 2275.67,1957.84 2274.5,1991.5C 2262.3,1992.83 2250.14,1992.83 2238,1991.5C 2237.67,1961.5 2237.33,1931.5 2237,1901.5C 2234.17,1881.84 2223.34,1875.01 2204.5,1881C 2194.18,1886.79 2187.01,1895.29 2183,1906.5C 2182.83,1934.84 2182.33,1963.17 2181.5,1991.5C 2169.3,1992.83 2157.14,1992.83 2145,1991.5C 2144.67,1961.83 2144.33,1932.17 2144,1902.5C 2141.81,1882.16 2130.98,1874.99 2111.5,1881C 2101.16,1886.35 2093.99,1894.51 2090,1905.5C 2089.83,1934.17 2089.33,1962.84 2088.5,1991.5C 2076.55,1992.65 2064.55,1992.81 2052.5,1992C 2051.5,1943.91 2051.17,1895.74 2051.5,1847.5C 2062.83,1847.5 2074.17,1847.5 2085.5,1847.5C 2085.07,1855.28 2085.57,1862.95 2087,1870.5C 2096.43,1857.54 2108.93,1849.2 2124.5,1845.5 Z"/></g>
<g><path style="opacity:0.98" fill="#b3c7ff" d="M 2862.5,1845.5 C 2895.41,1843.21 2920.58,1855.87 2938,1883.5C 2945.49,1899.07 2948.15,1915.4 2946,1932.5C 2945.25,1933.13 2944.42,1933.63 2943.5,1934C 2907.46,1934.83 2871.46,1934.66 2835.5,1933.5C 2837.52,1955.35 2849.69,1967.01 2872,1968.5C 2887.32,1968.01 2898.99,1961.35 2907,1948.5C 2916.79,1951.57 2926.62,1954.57 2936.5,1957.5C 2937.61,1958.72 2937.78,1960.06 2937,1961.5C 2919.61,1987.61 2895.11,1999.44 2863.5,1997C 2830.65,1993.36 2808.48,1976.19 2797,1945.5C 2788.37,1913.51 2795.87,1886.01 2819.5,1863C 2832.29,1853.13 2846.62,1847.3 2862.5,1845.5 Z M 2867.5,1873.5 C 2889.42,1874.12 2902.76,1885.12 2907.5,1906.5C 2883.27,1907.17 2859.1,1907.84 2835,1908.5C 2836.32,1888.01 2847.15,1876.34 2867.5,1873.5 Z"/></g>
<g><path style="opacity:0.959" fill="#204968" d="M 2369.5,1927.5 C 2375.5,1927.5 2381.5,1927.5 2387.5,1927.5C 2389.09,1952.43 2402.43,1965.76 2427.5,1967.5C 2427.5,1973.17 2427.5,1978.83 2427.5,1984.5C 2402.67,1983.5 2384.84,1971.84 2374,1949.5C 2371.32,1942.4 2369.82,1935.07 2369.5,1927.5 Z"/></g>
<g><path style="opacity:0.968" fill="#b0e8fe" d="M 1873.5,2088.5 C 1886.91,2087.51 1899.91,2089.35 1912.5,2094C 1915.43,2095.27 1918.1,2096.94 1920.5,2099C 1918.15,2104.88 1915.65,2110.71 1913,2116.5C 1912.44,2117.02 1911.77,2117.36 1911,2117.5C 1898.69,2110.12 1885.52,2107.96 1871.5,2111C 1864.39,2114.21 1862.73,2119.21 1866.5,2126C 1869.38,2127.61 1872.38,2128.94 1875.5,2130C 1890.09,2132.09 1903.76,2136.75 1916.5,2144C 1926.19,2155.8 1927.02,2168.3 1919,2181.5C 1908.2,2192.49 1895.03,2197.49 1879.5,2196.5C 1866.21,2196.41 1853.54,2193.58 1841.5,2188C 1839.54,2187.05 1837.88,2185.71 1836.5,2184C 1838.83,2177.51 1841.83,2171.35 1845.5,2165.5C 1859.21,2174.51 1874.21,2177.68 1890.5,2175C 1900.48,2170.48 1901.48,2164.82 1893.5,2158C 1881.8,2154.83 1870.14,2151.49 1858.5,2148C 1841.59,2141.35 1835.43,2129.19 1840,2111.5C 1843.9,2101.94 1850.73,2095.44 1860.5,2092C 1864.97,2090.88 1869.31,2089.71 1873.5,2088.5 Z"/></g>
<g><path style="opacity:0.97" fill="#b0e8fe" d="M 2348.5,2088.5 C 2365.5,2086.75 2380.84,2090.92 2394.5,2101C 2397.07,2103.07 2399.07,2105.57 2400.5,2108.5C 2396.04,2112.46 2391.71,2116.62 2387.5,2121C 2386.39,2121.64 2385.22,2122.14 2384,2122.5C 2378.94,2117.79 2373.11,2114.29 2366.5,2112C 2342.42,2108.76 2328.76,2119.09 2325.5,2143C 2327.07,2163.04 2337.9,2173.88 2358,2175.5C 2362.97,2174.89 2367.8,2173.72 2372.5,2172C 2376.62,2169.53 2380.45,2166.69 2384,2163.5C 2390.08,2167.58 2395.58,2172.41 2400.5,2178C 2391.48,2188.18 2380.15,2194.18 2366.5,2196C 2350.81,2197.99 2336.14,2194.99 2322.5,2187C 2304.04,2172.57 2296.88,2153.73 2301,2130.5C 2308.27,2106.73 2324.1,2092.73 2348.5,2088.5 Z"/></g>
<g><path style="opacity:0.967" fill="#b0e8fe" d="M 2544.5,2088.5 C 2557.6,2087.41 2570.27,2089.24 2582.5,2094C 2585.53,2095.18 2588.2,2096.84 2590.5,2099C 2588.23,2105.52 2585.39,2111.69 2582,2117.5C 2569.32,2110.21 2555.82,2108.05 2541.5,2111C 2534.19,2114.59 2532.85,2119.59 2537.5,2126C 2544.67,2129.95 2552.34,2132.28 2560.5,2133C 2571.73,2135.18 2581.57,2140.01 2590,2147.5C 2599.01,2163.63 2596.18,2177.46 2581.5,2189C 2559.25,2198.87 2536.91,2198.87 2514.5,2189C 2511.4,2188.06 2509.07,2186.22 2507.5,2183.5C 2509.53,2177.11 2512.36,2171.11 2516,2165.5C 2531.38,2175.69 2547.88,2178.19 2565.5,2173C 2570.82,2168.29 2570.82,2163.62 2565.5,2159C 2551.8,2154.82 2538.14,2150.49 2524.5,2146C 2511.74,2139.3 2506.9,2128.8 2510,2114.5C 2512.55,2105.21 2518.05,2098.38 2526.5,2094C 2532.43,2091.52 2538.43,2089.69 2544.5,2088.5 Z"/></g>
<g><path style="opacity:0.975" fill="#b0e8fd" d="M 1409.5,2089.5 C 1418.19,2089.17 1426.86,2089.5 1435.5,2090.5C 1442.77,2113.99 1450.44,2137.32 1458.5,2160.5C 1466.82,2137.36 1474.66,2114.03 1482,2090.5C 1490.08,2089.52 1498.25,2089.18 1506.5,2089.5C 1513.49,2113.63 1520.99,2137.63 1529,2161.5C 1537.14,2137.59 1544.98,2113.59 1552.5,2089.5C 1560.5,2089.5 1568.5,2089.5 1576.5,2089.5C 1565.86,2124.6 1554.69,2159.6 1543,2194.5C 1533.89,2195.82 1524.73,2195.82 1515.5,2194.5C 1508.36,2172.41 1501.02,2150.41 1493.5,2128.5C 1485.84,2150.49 1478.17,2172.49 1470.5,2194.5C 1461.52,2195.67 1452.52,2195.83 1443.5,2195C 1431.86,2159.91 1420.52,2124.74 1409.5,2089.5 Z"/></g>
<g><path style="opacity:0.967" fill="#b0e8fd" d="M 1589.5,2089.5 C 1615.84,2089.33 1642.17,2089.5 1668.5,2090C 1669.83,2096.67 1669.83,2103.33 1668.5,2110C 1650.5,2110.5 1632.5,2110.67 1614.5,2110.5C 1614.5,2117.5 1614.5,2124.5 1614.5,2131.5C 1630.17,2131.33 1645.84,2131.5 1661.5,2132C 1662.48,2138.74 1662.81,2145.58 1662.5,2152.5C 1646.5,2152.5 1630.5,2152.5 1614.5,2152.5C 1614.5,2160.17 1614.5,2167.83 1614.5,2175.5C 1633.17,2175.5 1651.83,2175.5 1670.5,2175.5C 1670.58,2182.21 1670.58,2188.71 1670.5,2195C 1643.17,2195.5 1615.84,2195.67 1588.5,2195.5C 1588.17,2160.09 1588.51,2124.76 1589.5,2089.5 Z"/></g>
<g><path style="opacity:0.984" fill="#afe8fd" d="M 1688.5,2089.5 C 1711.2,2089.08 1733.87,2089.58 1756.5,2091C 1777.85,2097.2 1784.68,2110.7 1777,2131.5C 1774.83,2135 1772,2137.83 1768.5,2140C 1786.22,2150.15 1790.38,2164.32 1781,2182.5C 1773.54,2190.31 1764.37,2194.48 1753.5,2195C 1731.84,2195.5 1710.17,2195.67 1688.5,2195.5C 1688.5,2160.17 1688.5,2124.83 1688.5,2089.5 Z M 1714.5,2109.5 C 1725.88,2109.14 1737.21,2109.64 1748.5,2111C 1754.63,2115.07 1756.13,2120.57 1753,2127.5C 1751.59,2128.79 1750.09,2129.95 1748.5,2131C 1737.21,2132.36 1725.88,2132.86 1714.5,2132.5C 1714.5,2124.83 1714.5,2117.17 1714.5,2109.5 Z M 1714.5,2151.5 C 1726.89,2151.08 1739.23,2151.58 1751.5,2153C 1761.57,2158.02 1762.9,2164.69 1755.5,2173C 1753.91,2173.86 1752.25,2174.53 1750.5,2175C 1738.5,2175.5 1726.5,2175.67 1714.5,2175.5C 1714.5,2167.5 1714.5,2159.5 1714.5,2151.5 Z"/></g>
<g><path style="opacity:0.988" fill="#b0e8fd" d="M 1939.5,2089.5 C 1966.17,2089.5 1992.83,2089.5 2019.5,2089.5C 2019.81,2096.42 2019.48,2103.26 2018.5,2110C 2000.84,2110.5 1983.17,2110.67 1965.5,2110.5C 1965.5,2117.5 1965.5,2124.5 1965.5,2131.5C 1980.84,2131.33 1996.17,2131.5 2011.5,2132C 2013.44,2138.55 2014.1,2145.38 2013.5,2152.5C 1997.5,2152.5 1981.5,2152.5 1965.5,2152.5C 1965.5,2160.17 1965.5,2167.83 1965.5,2175.5C 1984.17,2175.5 2002.83,2175.5 2021.5,2175.5C 2021.5,2182.17 2021.5,2188.83 2021.5,2195.5C 1994.17,2195.5 1966.83,2195.5 1939.5,2195.5C 1939.5,2160.17 1939.5,2124.83 1939.5,2089.5 Z"/></g>
<g><path style="opacity:0.973" fill="#afe7fe" d="M 2039.5,2089.5 C 2059.87,2089.09 2080.2,2089.59 2100.5,2091C 2127.5,2099.49 2136.66,2117.32 2128,2144.5C 2124.17,2152.33 2118.33,2158.17 2110.5,2162C 2117.97,2172.97 2125.64,2183.81 2133.5,2194.5C 2124.17,2195.83 2114.83,2195.83 2105.5,2194.5C 2099.29,2185.25 2092.96,2176.08 2086.5,2167C 2079.51,2166.5 2072.51,2166.33 2065.5,2166.5C 2065.67,2175.84 2065.5,2185.17 2065,2194.5C 2056.59,2195.48 2048.09,2195.82 2039.5,2195.5C 2039.5,2160.17 2039.5,2124.83 2039.5,2089.5 Z M 2065.5,2111.5 C 2075.58,2111.08 2085.58,2111.58 2095.5,2113C 2105.23,2118.85 2107.73,2127.02 2103,2137.5C 2100.12,2142.02 2095.96,2144.52 2090.5,2145C 2082.17,2145.5 2073.84,2145.67 2065.5,2145.5C 2065.5,2134.17 2065.5,2122.83 2065.5,2111.5 Z"/></g>
<g><path style="opacity:0.975" fill="#b0e8fd" d="M 2135.5,2089.5 C 2144.75,2089.18 2153.92,2089.52 2163,2090.5C 2173.17,2114.52 2183.33,2138.52 2193.5,2162.5C 2204.31,2138.38 2214.98,2114.21 2225.5,2090C 2233.49,2089.5 2241.49,2089.33 2249.5,2089.5C 2248.64,2093.56 2247.47,2097.56 2246,2101.5C 2232.2,2132.42 2218.7,2163.42 2205.5,2194.5C 2196.83,2195.83 2188.17,2195.83 2179.5,2194.5C 2164.04,2159.79 2149.38,2124.79 2135.5,2089.5 Z"/></g>
<g><path style="opacity:0.969" fill="#afe8fe" d="M 2257.5,2089.5 C 2266.09,2089.18 2274.59,2089.52 2283,2090.5C 2283.5,2125.5 2283.67,2160.5 2283.5,2195.5C 2274.83,2195.5 2266.17,2195.5 2257.5,2195.5C 2257.5,2160.17 2257.5,2124.83 2257.5,2089.5 Z"/></g>
<g><path style="opacity:0.976" fill="#b0e8fd" d="M 2415.5,2089.5 C 2442.17,2089.5 2468.83,2089.5 2495.5,2089.5C 2495.81,2096.42 2495.48,2103.26 2494.5,2110C 2476.84,2110.5 2459.17,2110.67 2441.5,2110.5C 2441.5,2117.5 2441.5,2124.5 2441.5,2131.5C 2456.84,2131.33 2472.17,2131.5 2487.5,2132C 2488.78,2135.06 2489.45,2138.4 2489.5,2142C 2489.48,2145.42 2489.15,2148.75 2488.5,2152C 2472.84,2152.5 2457.17,2152.67 2441.5,2152.5C 2441.5,2160.17 2441.5,2167.83 2441.5,2175.5C 2460.17,2175.5 2478.83,2175.5 2497.5,2175.5C 2497.5,2182.17 2497.5,2188.83 2497.5,2195.5C 2470.17,2195.5 2442.83,2195.5 2415.5,2195.5C 2415.5,2160.17 2415.5,2124.83 2415.5,2089.5 Z"/></g>
</svg>
