<?xml version="1.0" encoding="UTF-8"?>
<!DOCTYPE svg PUBLIC "-//W3C//DTD SVG 1.1//EN" "http://www.w3.org/Graphics/SVG/1.1/DTD/svg11.dtd">
<svg xmlns="http://www.w3.org/2000/svg" version="1.1" width="4000px" height="4000px" style="shape-rendering:geometricPrecision; text-rendering:geometricPrecision; image-rendering:optimizeQuality; fill-rule:evenodd; clip-rule:evenodd" xmlns:xlink="http://www.w3.org/1999/xlink">
<g><path style="opacity:0.847" fill="#000000" d="M 937.5,1616.5 C 940.727,1616.86 942.894,1618.52 944,1621.5C 944.333,1621.17 944.667,1620.83 945,1620.5C 945.45,1622.52 946.283,1624.35 947.5,1626C 951.093,1625.26 954.76,1624.92 958.5,1625C 960.239,1626.74 961.572,1628.74 962.5,1631C 961.886,1632.54 961.886,1633.87 962.5,1635C 959.392,1637.37 956.059,1639.37 952.5,1641C 957.838,1648.61 955.838,1653.77 946.5,1656.5C 945.167,1655.83 943.833,1655.17 942.5,1654.5C 940.989,1651.48 939.489,1648.48 938,1645.5C 928.148,1651.25 923.481,1648.58 924,1637.5C 926.953,1635.27 930.12,1633.44 933.5,1632C 928.467,1624.96 929.8,1619.79 937.5,1616.5 Z"/></g>
<g><path style="opacity:0.921" fill="#040100" d="M 875.5,1654.5 C 897.527,1651.81 914.36,1660.15 926,1679.5C 929.735,1689.54 933.569,1699.54 937.5,1709.5C 942.789,1713.01 946.122,1711.68 947.5,1705.5C 944.124,1695.87 940.458,1686.37 936.5,1677C 937.191,1675.93 937.691,1674.77 938,1673.5C 948.509,1668.49 959.343,1664.16 970.5,1660.5C 972.473,1661.64 974.307,1662.97 976,1664.5C 980.756,1676.1 984.922,1687.6 988.5,1699C 990.206,1724.61 978.54,1742.11 953.5,1751.5C 930.579,1755.29 913.079,1747.29 901,1727.5C 896.733,1717.53 892.567,1707.53 888.5,1697.5C 885.934,1695.12 883.267,1695.12 880.5,1697.5C 879.243,1701.98 879.743,1706.31 882,1710.5C 890.951,1734.03 900.284,1757.36 910,1780.5C 919.428,1776.54 928.928,1772.7 938.5,1769C 943.768,1767.55 947.268,1769.38 949,1774.5C 953.863,1786.76 958.53,1799.09 963,1811.5C 1019.8,1808.36 1068.96,1828.03 1110.5,1870.5C 1137.59,1899.98 1153.59,1933.98 1158.5,1972.5C 1165.08,2012.89 1157.91,2052.56 1137,2091.5C 1106.54,2142.73 1062.37,2174.06 1004.5,2185.5C 944.839,2194.21 891.506,2178.21 844.5,2137.5C 809.575,2103.4 789.575,2062.56 784.5,2015C 780.829,1951.48 803.496,1897.48 852.5,1853C 847.805,1840.44 842.972,1827.94 838,1815.5C 837.516,1813.09 837.85,1810.75 839,1808.5C 849.54,1803.49 860.373,1799.15 871.5,1795.5C 860.927,1766.52 849.927,1737.68 838.5,1709C 836.715,1694 840.881,1680.5 851,1668.5C 854.364,1665.63 857.864,1662.97 861.5,1660.5C 866.35,1658.67 871.016,1656.67 875.5,1654.5 Z"/></g>
<g><path style="opacity:1" fill="#f69d00" d="M 961.5,1701.5 C 961.33,1700.18 961.663,1699.01 962.5,1698C 965.799,1696.13 969.132,1695.3 972.5,1695.5C 977.131,1714.4 970.798,1728.24 953.5,1737C 937.839,1741.05 925.005,1736.89 915,1724.5C 911.184,1714.04 907.184,1703.71 903,1693.5C 893.546,1679.6 882.379,1677.93 869.5,1688.5C 865.745,1693.57 864.578,1699.24 866,1705.5C 874.138,1726.09 881.972,1746.75 889.5,1767.5C 886.017,1769.41 882.35,1771.07 878.5,1772.5C 869.538,1751.47 861.038,1730.13 853,1708.5C 850.276,1690.92 856.776,1678.08 872.5,1670C 883.523,1666.99 893.857,1668.33 903.5,1674C 907.752,1677.58 911.252,1681.75 914,1686.5C 918,1696.5 922,1706.5 926,1716.5C 934.546,1727.15 944.38,1728.32 955.5,1720C 959.991,1714.69 961.991,1708.53 961.5,1701.5 Z"/></g>
<g><path style="opacity:1" fill="#b27200" d="M 972.5,1695.5 C 969.132,1695.3 965.799,1696.13 962.5,1698C 961.663,1699.01 961.33,1700.18 961.5,1701.5C 958.743,1696.11 956.243,1690.44 954,1684.5C 953.219,1683.06 953.386,1681.72 954.5,1680.5C 958.035,1678.6 961.702,1677.43 965.5,1677C 968.13,1683.06 970.463,1689.22 972.5,1695.5 Z"/></g>
<g><path style="opacity:1" fill="#f7b43d" d="M 889.5,1767.5 C 892.642,1773.47 894.975,1779.8 896.5,1786.5C 892.563,1787.04 888.896,1788.37 885.5,1790.5C 882.611,1784.72 880.278,1778.72 878.5,1772.5C 882.35,1771.07 886.017,1769.41 889.5,1767.5 Z"/></g>
<g><path style="opacity:0.995" fill="#14a9c1" d="M 1187.5,1770.5 C 1245.5,1770.33 1303.5,1770.5 1361.5,1771C 1377.38,1774.19 1390.88,1781.69 1402,1793.5C 1424.66,1824.34 1426.33,1856.34 1407,1889.5C 1400.17,1898.83 1391.67,1906.16 1381.5,1911.5C 1388.68,1915.41 1396.01,1919.24 1403.5,1923C 1420.99,1936.15 1430.49,1953.65 1432,1975.5C 1439.83,1954.05 1454.33,1938.89 1475.5,1930C 1499.28,1921.66 1523.61,1919.66 1548.5,1924C 1553.9,1925.24 1559.07,1927.08 1564,1929.5C 1566.89,1910.1 1558.73,1898.93 1539.5,1896C 1520.26,1893.7 1501.93,1896.7 1484.5,1905C 1476.94,1909.03 1469.44,1913.2 1462,1917.5C 1453.84,1902.19 1446.34,1886.53 1439.5,1870.5C 1439.61,1869.56 1439.94,1868.72 1440.5,1868C 1479.78,1844.48 1522.11,1836.48 1567.5,1844C 1592.84,1847.75 1613.34,1859.58 1629,1879.5C 1634.38,1888.59 1638.38,1898.26 1641,1908.5C 1641.99,1933.17 1642.99,1957.84 1644,1982.5C 1644.51,1984.88 1645.18,1987.21 1646,1989.5C 1650.02,1991.98 1654.02,1994.31 1658,1996.5C 1658.82,2017.54 1658.65,2038.54 1657.5,2059.5C 1656.09,2060.81 1654.42,2061.64 1652.5,2062C 1635.8,2065.2 1619.13,2065.2 1602.5,2062C 1587.23,2056.05 1578.73,2044.89 1577,2028.5C 1544.5,2066.33 1505.67,2074.5 1460.5,2053C 1444.76,2042.03 1434.59,2027.19 1430,2008.5C 1421.83,2028.67 1407.67,2042.83 1387.5,2051C 1373.29,2056.13 1358.63,2059.13 1343.5,2060C 1291.17,2060.67 1238.83,2060.67 1186.5,2060C 1185.83,2011.9 1185.5,1963.74 1185.5,1915.5C 1185.5,1866.96 1186.17,1818.62 1187.5,1770.5 Z M 1266.5,1839.5 C 1285.5,1839.33 1304.5,1839.5 1323.5,1840C 1335.53,1841.53 1341.19,1848.36 1340.5,1860.5C 1341.57,1873.6 1335.57,1880.76 1322.5,1882C 1304.17,1882.67 1285.83,1882.67 1267.5,1882C 1266.51,1867.91 1266.18,1853.75 1266.5,1839.5 Z M 1266.5,1946.5 C 1290.17,1946.33 1313.84,1946.5 1337.5,1947C 1344.26,1950.09 1348.42,1955.26 1350,1962.5C 1352.21,1972.23 1350.05,1980.73 1343.5,1988C 1341.04,1989.71 1338.38,1991.04 1335.5,1992C 1312.83,1992.67 1290.17,1992.67 1267.5,1992C 1266.51,1976.91 1266.18,1961.74 1266.5,1946.5 Z M 1525.5,1965.5 C 1538.46,1964.61 1551.13,1966.11 1563.5,1970C 1567.61,1982.93 1564.28,1993.26 1553.5,2001C 1542.58,2007.07 1530.91,2009.07 1518.5,2007C 1506.84,2002.84 1502.01,1994.67 1504,1982.5C 1508.69,1973.63 1515.86,1967.96 1525.5,1965.5 Z"/></g>
<g><path style="opacity:0.995" fill="#14a9c1" d="M 2043.5,1770.5 C 2101.5,1770.33 2159.5,1770.5 2217.5,1771C 2243.41,1775.89 2261.24,1790.72 2271,1815.5C 2282.76,1849.27 2275.93,1878.44 2250.5,1903C 2246.51,1906.33 2242.18,1909.16 2237.5,1911.5C 2246.8,1915.93 2255.8,1921.1 2264.5,1927C 2273.62,1934.75 2280.12,1944.25 2284,1955.5C 2284.48,1920.73 2297.31,1891.56 2322.5,1868C 2346,1849.89 2372.66,1841.06 2402.5,1841.5C 2448.78,1840.55 2483.94,1859.55 2508,1898.5C 2511.4,1907.2 2514.73,1915.87 2518,1924.5C 2528.16,1886.68 2551.66,1861.18 2588.5,1848C 2615.64,1840.19 2642.98,1839.52 2670.5,1846C 2721.89,1863.08 2748.55,1898.74 2750.5,1953C 2747.3,2013.2 2716.3,2049.86 2657.5,2063C 2617.84,2070.1 2582.18,2061.44 2550.5,2037C 2533.63,2022.11 2522.8,2003.61 2518,1981.5C 2504.73,2026.77 2474.89,2053.94 2428.5,2063C 2381.57,2071.49 2341.74,2058.66 2309,2024.5C 2300.3,2013.44 2293.97,2001.11 2290,1987.5C 2287.08,2020.43 2269.91,2042.26 2238.5,2053C 2225.74,2056.63 2212.74,2058.97 2199.5,2060C 2147.17,2060.5 2094.83,2060.67 2042.5,2060.5C 2042.17,1963.76 2042.5,1867.1 2043.5,1770.5 Z M 2123.5,1839.5 C 2142.17,1839.33 2160.84,1839.5 2179.5,1840C 2191.57,1841.57 2197.24,1848.4 2196.5,1860.5C 2197.49,1873.67 2191.49,1880.84 2178.5,1882C 2160.17,1882.67 2141.83,1882.67 2123.5,1882C 2122.17,1867.83 2122.17,1853.67 2123.5,1839.5 Z M 2401.5,1907.5 C 2420.59,1908.42 2432.75,1918.08 2438,1936.5C 2441,1951.62 2439.66,1966.29 2434,1980.5C 2422.97,1997.39 2407.81,2002.55 2388.5,1996C 2378.34,1991.16 2371.84,1983.32 2369,1972.5C 2363.24,1954.01 2365.57,1936.68 2376,1920.5C 2382.66,1912.29 2391.16,1907.96 2401.5,1907.5 Z M 2631.5,1907.5 C 2649.19,1908.67 2661.02,1917.67 2667,1934.5C 2669,1946.83 2669,1959.17 2667,1971.5C 2658.24,1994.96 2641.74,2003.13 2617.5,1996C 2602.15,1986.19 2594.82,1972.02 2595.5,1953.5C 2594.54,1938.27 2599.54,1925.44 2610.5,1915C 2617.01,1910.78 2624.01,1908.28 2631.5,1907.5 Z M 2122.5,1946.5 C 2146.17,1946.33 2169.84,1946.5 2193.5,1947C 2199.82,1949.99 2203.99,1954.82 2206,1961.5C 2208.34,1971.58 2206.17,1980.42 2199.5,1988C 2197.04,1989.71 2194.38,1991.04 2191.5,1992C 2168.83,1992.67 2146.17,1992.67 2123.5,1992C 2122.51,1976.91 2122.18,1961.74 2122.5,1946.5 Z"/></g>
<g><path style="opacity:0.992" fill="#14a8c0" d="M 1679.5,1777.5 C 1704.21,1777.18 1728.88,1777.51 1753.5,1778.5C 1754.33,1800.49 1754.83,1822.49 1755,1844.5C 1768.67,1845.17 1782.33,1845.83 1796,1846.5C 1796.67,1865.83 1796.67,1885.17 1796,1904.5C 1782.33,1905.17 1768.67,1905.83 1755,1906.5C 1754.33,1930.5 1754.33,1954.5 1755,1978.5C 1754.96,1984.93 1757.79,1989.43 1763.5,1992C 1769.5,1992.67 1775.5,1992.67 1781.5,1992C 1787.53,1990.49 1793.53,1988.99 1799.5,1987.5C 1799.84,1989.85 1800.34,1992.19 1801,1994.5C 1804.1,1963.72 1819.93,1942.22 1848.5,1930C 1872.26,1921.57 1896.59,1919.57 1921.5,1924C 1926.68,1925.38 1931.68,1927.21 1936.5,1929.5C 1937.67,1920.53 1935.84,1912.2 1931,1904.5C 1925.55,1899.35 1919.05,1896.51 1911.5,1896C 1883.78,1893.51 1858.78,1900.51 1836.5,1917C 1835.5,1917.67 1834.5,1917.67 1833.5,1917C 1826.04,1901.24 1818.7,1885.41 1811.5,1869.5C 1837.86,1852.44 1866.86,1843.27 1898.5,1842C 1924.19,1839.96 1948.86,1843.96 1972.5,1854C 1997.51,1867.83 2011.67,1889 2015,1917.5C 2015.06,1940.54 2015.73,1963.54 2017,1986.5C 2019.64,1991.45 2023.81,1994.12 2029.5,1994.5C 2030.83,2016.5 2030.83,2038.5 2029.5,2060.5C 2012.35,2064.65 1995.02,2065.48 1977.5,2063C 1960.74,2057.56 1951.24,2046.06 1949,2028.5C 1921.46,2061.68 1886.96,2071.85 1845.5,2059C 1829.58,2052.42 1817.41,2041.58 1809,2026.5C 1810.09,2034.14 1811.26,2041.81 1812.5,2049.5C 1796.28,2055.85 1779.61,2060.68 1762.5,2064C 1749.49,2065.67 1736.49,2065.67 1723.5,2064C 1693.62,2057.11 1677.79,2038.28 1676,2007.5C 1675.17,1973.6 1675.34,1939.76 1676.5,1906C 1668.17,1905.67 1659.83,1905.33 1651.5,1905C 1651,1904.5 1650.5,1904 1650,1903.5C 1649.33,1884.5 1649.33,1865.5 1650,1846.5C 1658.92,1845.99 1667.75,1845.15 1676.5,1844C 1675.34,1822.91 1675.17,1801.74 1676,1780.5C 1676.98,1779.19 1678.15,1778.19 1679.5,1777.5 Z M 1898.5,1965.5 C 1911.55,1964.45 1924.21,1966.12 1936.5,1970.5C 1940.48,1989.35 1933.15,2001.18 1914.5,2006C 1905.81,2007.93 1897.14,2007.93 1888.5,2006C 1879.95,2003.28 1875.95,1997.45 1876.5,1988.5C 1876.18,1980.98 1879.18,1975.15 1885.5,1971C 1889.72,1968.55 1894.05,1966.72 1898.5,1965.5 Z"/></g>
<g><path style="opacity:1" fill="#a9000c" d="M 920.5,1793.5 C 919.432,1792.57 918.099,1792.23 916.5,1792.5C 923.405,1788.86 930.738,1786.2 938.5,1784.5C 938.719,1785.68 938.386,1786.68 937.5,1787.5C 931.711,1789.23 926.044,1791.23 920.5,1793.5 Z"/></g>
<g><path style="opacity:1" fill="#fe0013" d="M 922.5,1800.5 C 926.52,1808.86 930.187,1817.52 933.5,1826.5C 995.808,1825.25 1047.64,1847.59 1089,1893.5C 1132.69,1951.07 1141.03,2013.74 1114,2081.5C 1107.25,2096.22 1098.92,2109.89 1089,2122.5C 1082.6,2129.39 1076.44,2136.39 1070.5,2143.5C 1050.55,2157.47 1028.55,2166.47 1004.5,2170.5C 914.096,2168.93 853.596,2125.6 823,2040.5C 806.948,1976.38 819.948,1919.04 862,1868.5C 869.068,1860.76 876.734,1853.76 885,1847.5C 885.667,1846.17 885.667,1844.83 885,1843.5C 881.727,1835.18 878.56,1826.84 875.5,1818.5C 891.052,1812.23 906.718,1806.23 922.5,1800.5 Z"/></g>
<g><path style="opacity:1" fill="#dd0010" d="M 916.5,1792.5 C 918.099,1792.23 919.432,1792.57 920.5,1793.5C 907.417,1799.2 894.083,1804.53 880.5,1809.5C 878.321,1810.06 876.154,1810.73 874,1811.5C 872.97,1811.16 872.47,1810.5 872.5,1809.5C 886.789,1803.07 901.456,1797.4 916.5,1792.5 Z"/></g>
<g><path style="opacity:1" fill="#cd313d" d="M 872.5,1809.5 C 872.47,1810.5 872.97,1811.16 874,1811.5C 876.154,1810.73 878.321,1810.06 880.5,1809.5C 880.389,1810.12 880.056,1810.62 879.5,1811C 874.647,1811.52 870.314,1813.18 866.5,1816C 861.918,1816.48 857.585,1817.64 853.5,1819.5C 853.33,1818.18 853.663,1817.01 854.5,1816C 860.345,1813.33 866.345,1811.16 872.5,1809.5 Z"/></g>
<g><path style="opacity:1" fill="#bc000d" d="M 1070.5,2143.5 C 1076.44,2136.39 1082.6,2129.39 1089,2122.5C 1098.92,2109.89 1107.25,2096.22 1114,2081.5C 1141.03,2013.74 1132.69,1951.07 1089,1893.5C 1047.64,1847.59 995.808,1825.25 933.5,1826.5C 930.187,1817.52 926.52,1808.86 922.5,1800.5C 928.82,1797.39 935.486,1795.06 942.5,1793.5C 945.622,1804.04 949.622,1814.2 954.5,1824C 1021.61,1821.31 1075.44,1846.48 1116,1899.5C 1149.77,1950.82 1156.1,2005.49 1135,2063.5C 1121.32,2096.55 1099.82,2123.22 1070.5,2143.5 Z"/></g>
<g><path style="opacity:0.997" fill="#13a8c0" d="M 2897.5,1841.5 C 2920.47,1839.25 2939.63,1846.58 2955,1863.5C 2957.76,1868.02 2960.26,1872.68 2962.5,1877.5C 2981.62,1853.36 3006.79,1841.36 3038,1841.5C 3069.2,1841.71 3089.2,1856.71 3098,1886.5C 3099.32,1892.78 3100.32,1899.12 3101,1905.5C 3101.5,1957.17 3101.67,2008.83 3101.5,2060.5C 3075.5,2060.5 3049.5,2060.5 3023.5,2060.5C 3023.67,2017.5 3023.5,1974.5 3023,1931.5C 3019.63,1913.12 3009.13,1906.96 2991.5,1913C 2980.07,1919.1 2972.24,1928.26 2968,1940.5C 2967.5,1980.5 2967.33,2020.5 2967.5,2060.5C 2941.5,2060.5 2915.5,2060.5 2889.5,2060.5C 2889.67,2017.17 2889.5,1973.83 2889,1930.5C 2886.67,1915.16 2877.83,1908.66 2862.5,1911C 2849.33,1916.17 2840.17,1925.33 2835,1938.5C 2834.5,1979.17 2834.33,2019.83 2834.5,2060.5C 2808.5,2060.5 2782.5,2060.5 2756.5,2060.5C 2756.5,1988.83 2756.5,1917.17 2756.5,1845.5C 2779.83,1845.5 2803.17,1845.5 2826.5,1845.5C 2826.33,1855.51 2826.5,1865.51 2827,1875.5C 2845.1,1853.03 2868.6,1841.7 2897.5,1841.5 Z"/></g>
<g><path style="opacity:1" fill="#f93d4b" d="M 875.5,1818.5 C 878.56,1826.84 881.727,1835.18 885,1843.5C 885.667,1844.83 885.667,1846.17 885,1847.5C 876.734,1853.76 869.068,1860.76 862,1868.5C 819.948,1919.04 806.948,1976.38 823,2040.5C 853.596,2125.6 914.096,2168.93 1004.5,2170.5C 938.481,2181.11 883.314,2161.44 839,2111.5C 795.865,2055.68 787.198,1994.68 813,1928.5C 825.708,1900.79 844.041,1877.45 868,1858.5C 868.667,1857.17 868.667,1855.83 868,1854.5C 864.107,1845.49 860.607,1836.32 857.5,1827C 857.645,1826.23 857.978,1825.56 858.5,1825C 864.192,1822.82 869.859,1820.65 875.5,1818.5 Z"/></g>
<g><path style="opacity:1" fill="#0d0100" d="M 857.5,1953.5 C 863.615,1953.11 867.282,1955.94 868.5,1962C 871.295,1961.71 874.129,1961.21 877,1960.5C 882.723,1961.87 884.389,1965.21 882,1970.5C 879.114,1972.34 876.281,1974.17 873.5,1976C 875.307,1979.31 875.807,1982.81 875,1986.5C 868.438,1991.58 864.272,1989.91 862.5,1981.5C 859.109,1980.5 855.776,1980.84 852.5,1982.5C 845.437,1979.35 844.77,1975.18 850.5,1970C 853.275,1969.99 855.275,1968.83 856.5,1966.5C 853.505,1961.73 853.838,1957.4 857.5,1953.5 Z"/></g>
<g><path style="opacity:1" fill="#0e0100" d="M 919.5,1970.5 C 921.989,1970.3 924.323,1970.8 926.5,1972C 928.446,1974.67 930.113,1977.51 931.5,1980.5C 934.962,1978.61 938.628,1978.11 942.5,1979C 946.092,1981.97 946.425,1985.3 943.5,1989C 940.583,1990.23 937.916,1991.73 935.5,1993.5C 941.036,2002.42 938.702,2006.92 928.5,2007C 925.924,2004.35 924.591,2001.18 924.5,1997.5C 921.903,1997.64 919.569,1998.48 917.5,2000C 912.605,2001.12 909.939,1999.12 909.5,1994C 909.625,1992.37 910.125,1990.87 911,1989.5C 913.414,1987.71 915.914,1986.04 918.5,1984.5C 915.514,1979.45 915.847,1974.78 919.5,1970.5 Z"/></g>
<g><path style="opacity:1" fill="#0e0100" d="M 904.5,2054.5 C 904.039,2052.45 903.372,2050.45 902.5,2048.5C 901.042,2047.22 899.708,2047.22 898.5,2048.5C 891.994,2052.16 887.994,2050.33 886.5,2043C 888.377,2038.63 891.711,2036.46 896.5,2036.5C 896.536,2033.18 895.869,2030.01 894.5,2027C 896.88,2019.61 900.714,2018.78 906,2024.5C 906.813,2026.44 907.313,2028.44 907.5,2030.5C 910.693,2029.99 913.859,2029.32 917,2028.5C 922.553,2029.06 924.553,2032.06 923,2037.5C 920.397,2040.28 917.23,2041.94 913.5,2042.5C 914.688,2044.88 915.688,2047.38 916.5,2050C 915.592,2055.92 912.258,2058.25 906.5,2057C 905.619,2056.29 904.953,2055.46 904.5,2054.5 Z"/></g>
<g><path style="opacity:1" fill="#72000a" d="M 898.5,2048.5 C 899.708,2047.22 901.042,2047.22 902.5,2048.5C 903.372,2050.45 904.039,2052.45 904.5,2054.5C 902.957,2053.26 901.957,2051.6 901.5,2049.5C 900.675,2048.61 899.675,2048.28 898.5,2048.5 Z"/></g>
<g><path style="opacity:0.899" fill="#fefffe" d="M 1662.5,2104.5 C 1668.43,2103.34 1673.26,2105.01 1677,2109.5C 1678.01,2120.26 1673.18,2124.43 1662.5,2122C 1654.55,2116.17 1654.55,2110.34 1662.5,2104.5 Z"/></g>
<g><path style="opacity:0.921" fill="#fefffe" d="M 1614.5,2111.5 C 1625.93,2110.7 1636.59,2113.03 1646.5,2118.5C 1644.76,2122.98 1642.76,2127.32 1640.5,2131.5C 1630.48,2126.04 1620.15,2125.21 1609.5,2129C 1606.51,2133.05 1607.18,2136.38 1611.5,2139C 1619.83,2141.33 1628.17,2143.67 1636.5,2146C 1649.99,2153.44 1652.82,2163.94 1645,2177.5C 1640.41,2182.04 1634.91,2184.88 1628.5,2186C 1617.59,2187.31 1606.92,2186.31 1596.5,2183C 1593.5,2181.83 1590.83,2180.17 1588.5,2178C 1590.59,2173.99 1592.26,2169.82 1593.5,2165.5C 1599.18,2168.34 1605.18,2170.5 1611.5,2172C 1615.83,2172.67 1620.17,2172.67 1624.5,2172C 1630.78,2171.08 1632.78,2167.74 1630.5,2162C 1619.48,2158.16 1608.48,2154.16 1597.5,2150C 1590.82,2143.94 1588.65,2136.44 1591,2127.5C 1596.03,2118.07 1603.87,2112.73 1614.5,2111.5 Z"/></g>
<g><path style="opacity:0.924" fill="#fefffe" d="M 1722.5,2111.5 C 1735.92,2110.74 1747.25,2115.08 1756.5,2124.5C 1753.15,2128.69 1749.31,2132.35 1745,2135.5C 1738.07,2127.98 1729.57,2125.48 1719.5,2128C 1710.47,2130.88 1705.3,2137.04 1704,2146.5C 1703.32,2162.49 1710.99,2170.82 1727,2171.5C 1731.37,2171.86 1735.37,2170.86 1739,2168.5C 1739.5,2161.51 1739.67,2154.51 1739.5,2147.5C 1744.83,2147.5 1750.17,2147.5 1755.5,2147.5C 1755.67,2157.51 1755.5,2167.51 1755,2177.5C 1749.39,2182.26 1742.89,2185.1 1735.5,2186C 1719.28,2189.33 1705.45,2185.16 1694,2173.5C 1686.01,2161.04 1684.34,2147.71 1689,2133.5C 1696.51,2120.5 1707.67,2113.17 1722.5,2111.5 Z"/></g>
<g><path style="opacity:0.921" fill="#fefffe" d="M 2005.5,2111.5 C 2016.93,2110.7 2027.59,2113.03 2037.5,2118.5C 2035.76,2122.98 2033.76,2127.32 2031.5,2131.5C 2021.48,2126.04 2011.15,2125.21 2000.5,2129C 1997.51,2133.05 1998.18,2136.38 2002.5,2139C 2010.83,2141.33 2019.17,2143.67 2027.5,2146C 2040.99,2153.44 2043.82,2163.94 2036,2177.5C 2031.41,2182.04 2025.91,2184.88 2019.5,2186C 2008.59,2187.31 1997.92,2186.31 1987.5,2183C 1984.5,2181.83 1981.83,2180.17 1979.5,2178C 1981.59,2173.99 1983.26,2169.82 1984.5,2165.5C 1990.18,2168.34 1996.18,2170.5 2002.5,2172C 2006.83,2172.67 2011.17,2172.67 2015.5,2172C 2021.78,2171.08 2023.78,2167.74 2021.5,2162C 2010.48,2158.16 1999.48,2154.16 1988.5,2150C 1981.82,2143.94 1979.65,2136.44 1982,2127.5C 1987.03,2118.07 1994.87,2112.73 2005.5,2111.5 Z"/></g>
<g><path style="opacity:0.923" fill="#fefffe" d="M 2150.5,2111.5 C 2164.09,2110.64 2175.43,2115.14 2184.5,2125C 2180.98,2128.68 2177.32,2132.18 2173.5,2135.5C 2165.58,2127.56 2156.25,2125.39 2145.5,2129C 2133.85,2136.27 2130.35,2146.44 2135,2159.5C 2141,2169.51 2149.83,2173.34 2161.5,2171C 2165.97,2169.26 2169.97,2166.76 2173.5,2163.5C 2176.85,2166.69 2180.35,2169.69 2184,2172.5C 2183.11,2175.44 2181.27,2177.94 2178.5,2180C 2168,2186.17 2156.67,2188.17 2144.5,2186C 2122,2179.19 2112.5,2164.02 2116,2140.5C 2120.98,2123.02 2132.48,2113.35 2150.5,2111.5 Z"/></g>
<g><path style="opacity:0.921" fill="#fefffe" d="M 2564.5,2111.5 C 2575.93,2110.7 2586.59,2113.03 2596.5,2118.5C 2594.76,2122.98 2592.76,2127.32 2590.5,2131.5C 2580.48,2126.04 2570.15,2125.21 2559.5,2129C 2556.51,2133.05 2557.18,2136.38 2561.5,2139C 2569.83,2141.33 2578.17,2143.67 2586.5,2146C 2599.99,2153.44 2602.82,2163.94 2595,2177.5C 2590.41,2182.04 2584.91,2184.88 2578.5,2186C 2567.59,2187.31 2556.92,2186.31 2546.5,2183C 2543.5,2181.83 2540.83,2180.17 2538.5,2178C 2540.59,2173.99 2542.26,2169.82 2543.5,2165.5C 2549.18,2168.34 2555.18,2170.5 2561.5,2172C 2565.83,2172.67 2570.17,2172.67 2574.5,2172C 2580.78,2171.08 2582.78,2167.74 2580.5,2162C 2569.48,2158.16 2558.48,2154.16 2547.5,2150C 2540.82,2143.94 2538.65,2136.44 2541,2127.5C 2546.03,2118.07 2553.87,2112.73 2564.5,2111.5 Z"/></g>
<g><path style="opacity:0.918" fill="#fefffe" d="M 2893.5,2111.5 C 2904.47,2110.99 2914.47,2113.83 2923.5,2120C 2925.23,2121.39 2926.56,2123.06 2927.5,2125C 2924.05,2128.61 2920.38,2132.11 2916.5,2135.5C 2908.62,2127.47 2899.29,2125.31 2888.5,2129C 2875.85,2137.45 2873.01,2148.62 2880,2162.5C 2889.05,2172.25 2899.55,2174.08 2911.5,2168C 2913.02,2166.31 2914.68,2164.81 2916.5,2163.5C 2920.44,2165.94 2923.94,2168.94 2927,2172.5C 2927.32,2173.91 2926.98,2175.24 2926,2176.5C 2914.81,2185.84 2901.98,2189.01 2887.5,2186C 2865.81,2179.15 2856.31,2164.32 2859,2141.5C 2861.37,2130.8 2867.21,2122.64 2876.5,2117C 2882.04,2114.37 2887.7,2112.54 2893.5,2111.5 Z"/></g>
<g><path style="opacity:0.92" fill="#fefffe" d="M 3027.5,2111.5 C 3036.05,2111.15 3044.38,2112.31 3052.5,2115C 3054.87,2115.85 3056.87,2117.18 3058.5,2119C 3057.15,2123.58 3055.15,2127.74 3052.5,2131.5C 3044.4,2126.86 3035.74,2125.36 3026.5,2127C 3020.34,2128.97 3019.01,2132.63 3022.5,2138C 3033.39,2141.05 3044.05,2144.72 3054.5,2149C 3061.14,2154.71 3063.3,2161.88 3061,2170.5C 3057.44,2179.36 3050.94,2184.53 3041.5,2186C 3029.46,2187.59 3017.79,2186.26 3006.5,2182C 3004.33,2181 3002.67,2179.5 3001.5,2177.5C 3002.97,2173.23 3004.97,2169.23 3007.5,2165.5C 3017.75,2172.05 3028.75,2173.88 3040.5,2171C 3045.27,2167.98 3045.6,2164.65 3041.5,2161C 3033.01,2157.83 3024.34,2155.17 3015.5,2153C 3002.32,2146.11 2999.15,2135.94 3006,2122.5C 3011.85,2116.06 3019.01,2112.4 3027.5,2111.5 Z"/></g>
<g><path style="opacity:0.925" fill="#fefffe" d="M 1899.5,2112.5 C 1905.18,2112.33 1910.84,2112.5 1916.5,2113C 1927.36,2116.89 1931.19,2124.39 1928,2135.5C 1925.33,2140.67 1921.5,2144.67 1916.5,2147.5C 1919.54,2151.54 1923.21,2154.88 1927.5,2157.5C 1929.03,2154.25 1930.36,2150.92 1931.5,2147.5C 1935.07,2148.97 1938.74,2150.13 1942.5,2151C 1943.43,2151.39 1944.09,2152.05 1944.5,2153C 1943.39,2158.51 1941.39,2163.68 1938.5,2168.5C 1941.5,2170.83 1944.17,2173.5 1946.5,2176.5C 1943.65,2179.52 1940.98,2182.69 1938.5,2186C 1937.5,2186.67 1936.5,2186.67 1935.5,2186C 1933.32,2183.65 1930.98,2181.48 1928.5,2179.5C 1918.46,2186.14 1907.46,2188.3 1895.5,2186C 1879.24,2182.1 1873.74,2172.26 1879,2156.5C 1882.23,2151.64 1886.4,2147.8 1891.5,2145C 1883.18,2134.95 1883.52,2125.28 1892.5,2116C 1894.93,2114.79 1897.26,2113.62 1899.5,2112.5 Z M 1906.5,2123.5 C 1913.47,2123.79 1915.64,2127.12 1913,2133.5C 1910.67,2135.17 1908.33,2136.83 1906,2138.5C 1898.64,2132.81 1898.8,2127.81 1906.5,2123.5 Z M 1900.5,2154.5 C 1906.45,2159.11 1912.12,2164.11 1917.5,2169.5C 1910.82,2174.15 1903.82,2174.65 1896.5,2171C 1893.81,2168.35 1892.97,2165.18 1894,2161.5C 1895.69,2158.64 1897.86,2156.31 1900.5,2154.5 Z"/></g>
<g><path style="opacity:0.939" fill="#fefffe" d="M 1140.5,2113.5 C 1146.76,2113.19 1152.92,2113.52 1159,2114.5C 1164,2130.17 1169,2145.83 1174,2161.5C 1179.4,2145.8 1184.9,2130.13 1190.5,2114.5C 1196.13,2113.5 1201.79,2113.17 1207.5,2113.5C 1212.51,2129.86 1217.67,2146.19 1223,2162.5C 1228.68,2146.3 1233.84,2129.97 1238.5,2113.5C 1244.51,2113.33 1250.51,2113.5 1256.5,2114C 1248.27,2137.35 1240.44,2160.85 1233,2184.5C 1226.56,2185.81 1220.06,2185.81 1213.5,2184.5C 1208.48,2169.4 1203.31,2154.4 1198,2139.5C 1193,2154.5 1188,2169.5 1183,2184.5C 1176.56,2185.81 1170.06,2185.81 1163.5,2184.5C 1155.63,2160.88 1147.96,2137.22 1140.5,2113.5 Z"/></g>
<g><path style="opacity:0.964" fill="#fefffe" d="M 1264.5,2113.5 C 1282.83,2113.5 1301.17,2113.5 1319.5,2113.5C 1319.5,2118.17 1319.5,2122.83 1319.5,2127.5C 1306.83,2127.5 1294.17,2127.5 1281.5,2127.5C 1281.5,2132.5 1281.5,2137.5 1281.5,2142.5C 1292.83,2142.5 1304.17,2142.5 1315.5,2142.5C 1315.5,2146.83 1315.5,2151.17 1315.5,2155.5C 1304.17,2155.5 1292.83,2155.5 1281.5,2155.5C 1281.5,2160.83 1281.5,2166.17 1281.5,2171.5C 1294.5,2171.5 1307.5,2171.5 1320.5,2171.5C 1320.5,2176.17 1320.5,2180.83 1320.5,2185.5C 1301.83,2185.5 1283.17,2185.5 1264.5,2185.5C 1264.5,2161.5 1264.5,2137.5 1264.5,2113.5 Z"/></g>
<g><path style="opacity:0.952" fill="#fefffe" d="M 1333.5,2113.5 C 1348.84,2113.33 1364.17,2113.5 1379.5,2114C 1395.09,2118.02 1399.92,2127.52 1394,2142.5C 1392.5,2144.67 1390.67,2146.5 1388.5,2148C 1399.02,2153.54 1402.52,2162.04 1399,2173.5C 1396.2,2178.5 1392.03,2182 1386.5,2184C 1368.89,2185.44 1351.22,2185.94 1333.5,2185.5C 1333.5,2161.5 1333.5,2137.5 1333.5,2113.5 Z M 1350.5,2126.5 C 1357.51,2126.33 1364.51,2126.5 1371.5,2127C 1377.65,2128.47 1379.82,2132.3 1378,2138.5C 1376.68,2140.49 1374.85,2141.65 1372.5,2142C 1365.17,2142.5 1357.84,2142.67 1350.5,2142.5C 1350.5,2137.17 1350.5,2131.83 1350.5,2126.5 Z M 1350.5,2155.5 C 1359.21,2155.25 1367.88,2155.75 1376.5,2157C 1382.31,2159.13 1383.81,2162.96 1381,2168.5C 1379.2,2170.32 1377.03,2171.48 1374.5,2172C 1366.51,2172.5 1358.51,2172.67 1350.5,2172.5C 1350.5,2166.83 1350.5,2161.17 1350.5,2155.5 Z"/></g>
<g><path style="opacity:0.938" fill="#fefffe" d="M 1440.5,2113.5 C 1454.5,2113.33 1468.5,2113.5 1482.5,2114C 1506.16,2119.47 1516.33,2134.3 1513,2158.5C 1509.21,2173.34 1499.71,2182.17 1484.5,2185C 1469.84,2185.5 1455.17,2185.67 1440.5,2185.5C 1440.5,2161.5 1440.5,2137.5 1440.5,2113.5 Z M 1458.5,2127.5 C 1468.58,2126.65 1478.25,2128.15 1487.5,2132C 1496.74,2140.44 1498.57,2150.28 1493,2161.5C 1489.39,2167.06 1484.22,2170.23 1477.5,2171C 1471.18,2171.5 1464.84,2171.67 1458.5,2171.5C 1458.5,2156.83 1458.5,2142.17 1458.5,2127.5 Z"/></g>
<g><path style="opacity:0.948" fill="#fefffe" d="M 1525.5,2113.5 C 1543.83,2113.5 1562.17,2113.5 1580.5,2113.5C 1580.5,2118.17 1580.5,2122.83 1580.5,2127.5C 1568.17,2127.5 1555.83,2127.5 1543.5,2127.5C 1543.5,2132.5 1543.5,2137.5 1543.5,2142.5C 1554.5,2142.5 1565.5,2142.5 1576.5,2142.5C 1576.5,2146.83 1576.5,2151.17 1576.5,2155.5C 1565.5,2155.5 1554.5,2155.5 1543.5,2155.5C 1543.5,2160.83 1543.5,2166.17 1543.5,2171.5C 1556.5,2171.5 1569.5,2171.5 1582.5,2171.5C 1582.5,2176.17 1582.5,2180.83 1582.5,2185.5C 1563.5,2185.5 1544.5,2185.5 1525.5,2185.5C 1525.5,2161.5 1525.5,2137.5 1525.5,2113.5 Z"/></g>
<g><path style="opacity:0.94" fill="#fefffe" d="M 1769.5,2113.5 C 1774.87,2113.17 1780.21,2113.51 1785.5,2114.5C 1796.86,2128.02 1808.02,2141.69 1819,2155.5C 1819.5,2141.5 1819.67,2127.5 1819.5,2113.5C 1825.17,2113.5 1830.83,2113.5 1836.5,2113.5C 1836.5,2137.5 1836.5,2161.5 1836.5,2185.5C 1831.49,2185.67 1826.49,2185.5 1821.5,2185C 1809.96,2171.79 1798.79,2158.29 1788,2144.5C 1787.5,2158.16 1787.33,2171.83 1787.5,2185.5C 1781.5,2185.5 1775.5,2185.5 1769.5,2185.5C 1769.5,2161.5 1769.5,2137.5 1769.5,2113.5 Z"/></g>
<g><path style="opacity:0.944" fill="#fefffe" d="M 2050.5,2113.5 C 2069.17,2113.5 2087.83,2113.5 2106.5,2113.5C 2106.5,2118.17 2106.5,2122.83 2106.5,2127.5C 2093.83,2127.5 2081.17,2127.5 2068.5,2127.5C 2068.5,2132.5 2068.5,2137.5 2068.5,2142.5C 2079.5,2142.5 2090.5,2142.5 2101.5,2142.5C 2101.5,2146.83 2101.5,2151.17 2101.5,2155.5C 2090.5,2155.5 2079.5,2155.5 2068.5,2155.5C 2068.5,2160.83 2068.5,2166.17 2068.5,2171.5C 2081.5,2171.5 2094.5,2171.5 2107.5,2171.5C 2107.5,2176.17 2107.5,2180.83 2107.5,2185.5C 2088.5,2185.5 2069.5,2185.5 2050.5,2185.5C 2050.5,2161.5 2050.5,2137.5 2050.5,2113.5 Z"/></g>
<g><path style="opacity:0.938" fill="#fefffe" d="M 2193.5,2113.5 C 2199.5,2113.5 2205.5,2113.5 2211.5,2113.5C 2211.33,2129.5 2211.5,2145.5 2212,2161.5C 2214.51,2168.18 2219.35,2171.51 2226.5,2171.5C 2234.04,2171.99 2238.87,2168.66 2241,2161.5C 2242.39,2145.54 2242.89,2129.54 2242.5,2113.5C 2248.17,2113.5 2253.83,2113.5 2259.5,2113.5C 2259.67,2129.17 2259.5,2144.84 2259,2160.5C 2255.78,2178.54 2244.95,2187.21 2226.5,2186.5C 2208.61,2187.16 2197.78,2178.82 2194,2161.5C 2193.5,2145.5 2193.33,2129.5 2193.5,2113.5 Z"/></g>
<g><path style="opacity:0.938" fill="#fefffe" d="M 2274.5,2113.5 C 2288.5,2113.33 2302.5,2113.5 2316.5,2114C 2335.23,2119.62 2341.73,2131.78 2336,2150.5C 2333.17,2156 2329,2160.17 2323.5,2163C 2328.83,2170.33 2334.17,2177.67 2339.5,2185C 2332.81,2185.83 2326.14,2185.66 2319.5,2184.5C 2315.04,2178.42 2310.71,2172.25 2306.5,2166C 2301.85,2165.5 2297.18,2165.33 2292.5,2165.5C 2292.5,2172.17 2292.5,2178.83 2292.5,2185.5C 2286.5,2185.5 2280.5,2185.5 2274.5,2185.5C 2274.5,2161.5 2274.5,2137.5 2274.5,2113.5 Z M 2292.5,2127.5 C 2299.57,2127.16 2306.57,2127.66 2313.5,2129C 2322.39,2135.57 2322.72,2142.57 2314.5,2150C 2307.25,2151.39 2299.92,2151.89 2292.5,2151.5C 2292.5,2143.5 2292.5,2135.5 2292.5,2127.5 Z"/></g>
<g><path style="opacity:0.975" fill="#fefffe" d="M 2350.5,2113.5 C 2356.17,2113.5 2361.83,2113.5 2367.5,2113.5C 2367.5,2137.5 2367.5,2161.5 2367.5,2185.5C 2361.83,2185.5 2356.17,2185.5 2350.5,2185.5C 2350.5,2161.5 2350.5,2137.5 2350.5,2113.5 Z"/></g>
<g><path style="opacity:0.931" fill="#fefffe" d="M 2375.5,2113.5 C 2402.17,2113.17 2428.84,2113.5 2455.5,2114.5C 2461.25,2124.33 2467.25,2134 2473.5,2143.5C 2479.7,2133.8 2485.7,2123.97 2491.5,2114C 2497.5,2113.33 2503.5,2113.33 2509.5,2114C 2500.33,2129.17 2491.17,2144.33 2482,2159.5C 2481.5,2168.16 2481.33,2176.83 2481.5,2185.5C 2475.5,2185.5 2469.5,2185.5 2463.5,2185.5C 2463.67,2176.49 2463.5,2167.49 2463,2158.5C 2455.33,2145.83 2447.67,2133.17 2440,2120.5C 2439.5,2122.81 2439.34,2125.14 2439.5,2127.5C 2431.83,2127.5 2424.17,2127.5 2416.5,2127.5C 2416.5,2146.83 2416.5,2166.17 2416.5,2185.5C 2410.5,2185.5 2404.5,2185.5 2398.5,2185.5C 2398.5,2166.17 2398.5,2146.83 2398.5,2127.5C 2390.83,2127.5 2383.17,2127.5 2375.5,2127.5C 2375.5,2122.83 2375.5,2118.17 2375.5,2113.5 Z"/></g>
<g><path style="opacity:0.944" fill="#fefffe" d="M 2609.5,2113.5 C 2628.17,2113.5 2646.83,2113.5 2665.5,2113.5C 2665.5,2118.17 2665.5,2122.83 2665.5,2127.5C 2652.83,2127.5 2640.17,2127.5 2627.5,2127.5C 2627.5,2132.5 2627.5,2137.5 2627.5,2142.5C 2638.5,2142.5 2649.5,2142.5 2660.5,2142.5C 2660.5,2146.83 2660.5,2151.17 2660.5,2155.5C 2649.5,2155.5 2638.5,2155.5 2627.5,2155.5C 2627.5,2160.83 2627.5,2166.17 2627.5,2171.5C 2640.5,2171.5 2653.5,2171.5 2666.5,2171.5C 2666.5,2176.17 2666.5,2180.83 2666.5,2185.5C 2647.5,2185.5 2628.5,2185.5 2609.5,2185.5C 2609.5,2161.5 2609.5,2137.5 2609.5,2113.5 Z"/></g>
<g><path style="opacity:0.94" fill="#fefffe" d="M 2678.5,2113.5 C 2692.5,2113.33 2706.5,2113.5 2720.5,2114C 2738.33,2119.48 2744.83,2131.31 2740,2149.5C 2737.56,2155.61 2733.39,2160.11 2727.5,2163C 2732.83,2170.33 2738.17,2177.67 2743.5,2185C 2736.83,2185.67 2730.17,2185.67 2723.5,2185C 2719.17,2178.67 2714.83,2172.33 2710.5,2166C 2705.85,2165.5 2701.18,2165.33 2696.5,2165.5C 2696.5,2172.17 2696.5,2178.83 2696.5,2185.5C 2690.5,2185.5 2684.5,2185.5 2678.5,2185.5C 2678.5,2161.5 2678.5,2137.5 2678.5,2113.5 Z M 2696.5,2127.5 C 2703.57,2127.16 2710.57,2127.66 2717.5,2129C 2721.95,2131.07 2723.95,2134.57 2723.5,2139.5C 2723.8,2145.37 2721.14,2149.2 2715.5,2151C 2709.18,2151.5 2702.84,2151.67 2696.5,2151.5C 2696.5,2143.5 2696.5,2135.5 2696.5,2127.5 Z"/></g>
<g><path style="opacity:0.935" fill="#fefffe" d="M 2744.5,2114.5 C 2750.9,2113.17 2757.4,2113.17 2764,2114.5C 2771,2130.83 2778,2147.17 2785,2163.5C 2791.72,2147.05 2798.72,2130.72 2806,2114.5C 2812.08,2113.36 2818.25,2113.19 2824.5,2114C 2813.88,2137.36 2803.55,2160.86 2793.5,2184.5C 2787.28,2185.81 2781.11,2185.81 2775,2184.5C 2765.06,2160.96 2754.89,2137.63 2744.5,2114.5 Z"/></g>
<g><path style="opacity:0.975" fill="#fefffe" d="M 2829.5,2113.5 C 2835.17,2113.5 2840.83,2113.5 2846.5,2113.5C 2846.5,2137.5 2846.5,2161.5 2846.5,2185.5C 2840.83,2185.5 2835.17,2185.5 2829.5,2185.5C 2829.5,2161.5 2829.5,2137.5 2829.5,2113.5 Z"/></g>
<g><path style="opacity:0.944" fill="#fefffe" d="M 2937.5,2113.5 C 2956.17,2113.5 2974.83,2113.5 2993.5,2113.5C 2993.5,2118.17 2993.5,2122.83 2993.5,2127.5C 2980.83,2127.5 2968.17,2127.5 2955.5,2127.5C 2955.5,2132.5 2955.5,2137.5 2955.5,2142.5C 2966.5,2142.5 2977.5,2142.5 2988.5,2142.5C 2988.5,2146.83 2988.5,2151.17 2988.5,2155.5C 2977.5,2155.5 2966.5,2155.5 2955.5,2155.5C 2955.5,2160.83 2955.5,2166.17 2955.5,2171.5C 2968.5,2171.5 2981.5,2171.5 2994.5,2171.5C 2994.5,2176.17 2994.5,2180.83 2994.5,2185.5C 2975.5,2185.5 2956.5,2185.5 2937.5,2185.5C 2937.5,2161.5 2937.5,2137.5 2937.5,2113.5 Z"/></g>
<g><path style="opacity:0.927" fill="#fefffe" d="M 1658.5,2129.5 C 1664.17,2129.5 1669.83,2129.5 1675.5,2129.5C 1675.5,2148.17 1675.5,2166.83 1675.5,2185.5C 1669.83,2185.5 1664.17,2185.5 1658.5,2185.5C 1658.5,2166.83 1658.5,2148.17 1658.5,2129.5 Z"/></g>
</svg>
